<?xml version="1.0" encoding="UTF-8"?>
<svg id="Layer_2" data-name="Layer 2" xmlns="http://www.w3.org/2000/svg" viewBox="0 0 1861.62 951.86">
  <defs>
    <style>
      .cls-1 {
        fill: #000;
        stroke-width: 0px;
      }

      .cls-2 {
        fill: none;
        stroke: #000;
        stroke-miterlimit: 10;
      }
    </style>
  </defs>
  <g id="Layer_1-2" data-name="Layer 1">
    <path class="cls-1" d="M64.18,7.72c-2.59-2.85-6.59-3.52-10.22-2.62-3.98.99-7.19,3.72-9.02,7.36-2.15,4.25-2.58,9.11-2.59,13.8-.01,5.54.34,11.09.93,16.6.59,5.59,1.46,11.15,2.6,16.65,1.12,5.38,2.58,10.68,3.87,16.03,2.31,9.57,4.1,19.71,1.12,29.35-1.33,4.32-3.55,8.46-6.76,11.67-1.55,1.55-3.31,2.84-5.26,3.82-.88.44-1.92,1-2.92,1.03-.39.01-.8-.06-1.17-.2-.08-.03-.19-.12-.29-.17.67-1.58-1.74-2.91-2.68-1.32-1,1.71-.06,3.41,1.63,4.16,1.96.87,3.81.46,5.7-.35,3.8-1.62,6.98-4.33,9.47-7.59,5.46-7.15,7.31-16.37,6.75-25.2-.72-11.33-4.6-22.15-6.81-33.22-1.13-5.64-1.96-11.34-2.49-17.07-.51-5.51-.88-11.12-.64-16.65.21-4.88,1.2-10.74,5.36-13.9,3.22-2.44,8.33-3.32,11.31-.05,1.3,1.43,3.42-.7,2.12-2.12Z"/>
    <path class="cls-1" d="M94.13,1.52c-.02-1.21-1.68-2.09-2.56-1.06-3.86,4.53-8.68,8.08-14.14,10.45-.74.32-.91,1.41-.54,2.05.45.77,1.31.86,2.05.54,4.55-1.97,8.71-4.81,12.25-8.27l.16,8.15c.04,1.93,3.04,1.93,3,0l-.23-11.85Z"/>
    <path class="cls-1" d="M84.42,122.54c-.44-.75-1.32-.89-2.05-.54-5.01,2.4-10.79,2.85-16.13,1.36-1.86-.52-2.66,2.37-.8,2.89,6.14,1.71,12.7,1.09,18.44-1.66.73-.35.92-1.39.54-2.05Z"/>
    <path class="cls-1" d="M112.31,127.79c-4.8.1-9.51-.65-14.03-2.18,4.05-3.23,7.87-7.33,6.99-12.87-.39-2.49-1.79-5.05-4.08-6.26-2.4-1.26-5.26-.86-7.39.74-2.6,1.95-4.08,4.99-5.3,7.92-.31.75.34,1.64,1.05,1.85.86.25,1.54-.3,1.85-1.05.98-2.38,2.31-5.22,4.6-6.6,2.07-1.25,4.33-.46,5.51,1.57,3.36,5.78-2.9,10.83-7.04,13.87-1.1.81-.87,2.23.36,2.74,5.53,2.29,11.5,3.39,17.48,3.27,1.93-.04,1.93-3.04,0-3Z"/>
    <path class="cls-1" d="M169.49,112.3c-10.45-8.52-15.97-21.65-17.51-34.81-1.88-16.02,1.38-32.39,5.05-47.93,1.59-6.72,3.86-14.18,9.87-18.26,1.59-1.08.09-3.68-1.51-2.59-5.63,3.81-8.51,10.05-10.31,16.41-2.21,7.77-3.7,15.88-4.95,23.86-2.44,15.55-2.73,31.78,3.48,46.52,3.06,7.27,7.62,13.91,13.76,18.92,1.48,1.21,3.62-.9,2.12-2.12Z"/>
    <path class="cls-1" d="M189.92,44.64c-.41-1.27-1.15-2.37-2.18-3.21-.88-.72-2.04-1.29-2.74-2.21-.72-.94.4-2.26.54-3.29.19-1.43-.35-2.79-1.27-3.87-2.53-2.96-6.57-2.31-9.91-1.45-.7.18-1.03.79-1.1,1.45l-.36,3.25c-.09.81.75,1.5,1.5,1.5.89,0,1.41-.69,1.5-1.5.08-.68.15-1.37.23-2.05,1.27-.32,2.6-.58,3.89-.34,1.08.2,2.34.98,2.55,2.15.11.62-.22,1.18-.44,1.74-.27.68-.44,1.37-.37,2.1.13,1.35.96,2.39,1.98,3.22.91.74,2.07,1.33,2.78,2.29.65.88.88,2.07.66,3.13-.46,2.29-3.16,3.59-5.27,2.6-1.74-.81-3.26,1.77-1.51,2.59,2.51,1.18,5.45.86,7.6-.94,2.04-1.7,2.74-4.66,1.94-7.15Z"/>
    <path class="cls-1" d="M228.52,32.65c-3.4,2.43-6.66,5.06-9.74,7.87-2.8-1.61-5.51-3.39-8.11-5.32-.65-.48-1.68-.11-2.05.54-.45.76-.11,1.57.54,2.05,2.36,1.76,4.82,3.38,7.36,4.87-2.36,2.29-4.62,4.7-6.75,7.21-1.24,1.46.87,3.6,2.12,2.12,2.31-2.73,4.77-5.33,7.36-7.79,2.27,1.22,4.6,2.35,6.97,3.35.75.32,1.61.22,2.05-.54.37-.63.21-1.73-.54-2.05-2.09-.89-4.15-1.87-6.16-2.92,2.7-2.42,5.52-4.7,8.47-6.81,1.56-1.11.06-3.72-1.51-2.59Z"/>
    <path class="cls-1" d="M251.41,27.39c-.06.04-.25.15-.31.18-.06.02-.27.09-.33.11-.06.02-.13.03-.19.04-.02,0-.02,0-.05,0-.08,0-.34-.02-.35,0-.24-.04-.47-.11-.7-.2-.03-.02-.23-.12-.27-.14-.16-.09-.32-.19-.47-.3-.03-.03-.19-.16-.23-.2-.12-.11-.24-.23-.35-.35-.06-.07-.12-.13-.18-.2-.12-.16-.23-.33-.33-.5-.03-.05-.13-.24-.16-.31-.02-.06-.1-.28-.12-.33-.04-.14-.07-.28-.1-.42,0-.09-.01-.19-.01-.28,0-.08.02-.24.02-.28.02-.11.05-.22.09-.32.02-.02.1-.21.13-.27.11-.19.11-.18.28-.37.73-.81,1.54-1.51,1.97-2.53.87-2.08-.25-4.28-1.96-5.52-2.23-1.62-5.18-1.08-7.67-.52-.79.18-1.25,1.09-1.05,1.85.22.81,1.05,1.22,1.85,1.05,1.07-.24,2.13-.48,3.24-.45.89.02,1.66.24,2.23.79.25.24.47.53.58.82.11.28.14.48.05.77-.23.72-1.12,1.32-1.62,1.94-2.29,2.85-.72,6.8,2.22,8.5,1.64.95,3.66,1.09,5.3.05,1.63-1.03.12-3.63-1.51-2.59Z"/>
    <path class="cls-1" d="M272.24,34.73c-.22-.79-1.06-1.25-1.85-1.05-.56.15-1.12.3-1.68.44l-2.37-9c-.49-1.87-3.39-1.07-2.89.8.79,2.99,1.57,5.98,2.36,8.96l-5.14,1.35c-.78.21-1.26,1.07-1.05,1.85.22.79,1.06,1.25,1.85,1.05,1.7-.45,3.4-.89,5.1-1.34.24.91.48,1.81.72,2.72.49,1.87,3.39,1.07,2.89-.8-.24-.9-.47-1.79-.71-2.69.57-.15,1.15-.3,1.72-.45.78-.21,1.26-1.07,1.05-1.85Z"/>
    <path class="cls-1" d="M310.97,40.39c-5.32.85-10.8.28-15.83-1.56,2.61-3.79,4.13-8.33,4.28-12.94.1-2.95-.08-7.63-4.07-7.64-4.01,0-5.12,4.06-5.48,7.28-.09.81.75,1.49,1.5,1.5.89,0,1.41-.7,1.5-1.5.13-1.19.26-2.71,1.1-3.64.48-.52,1.53-.98,2.03-.29.59.83.43,2.65.43,3.62,0,1.21-.1,2.42-.33,3.61-.6,3.21-1.92,6.21-3.82,8.8-.56-.27-1.11-.54-1.65-.84-.75-.42-1.58-.14-2.05.54-1.25,1.78-1.28,4.13-.2,6,.52.9,1.62.9,2.36.3.88-.72,1.69-1.5,2.45-2.34,5.88,2.31,12.29,3,18.58,1.99,1.9-.3,1.09-3.2-.8-2.89Z"/>
    <path class="cls-1" d="M331.78,23.61c-2.09,2.97-4.17,5.93-6.26,8.9-2.4-2.71-5.9-4.39-9.52-4.5-1.93-.06-1.93,2.94,0,3,2.94.09,5.91,1.66,7.73,4.04l-5.57,7.93c-1.11,1.58,1.49,3.08,2.59,1.51,1.52-2.17,3.05-4.34,4.57-6.51.18.6.32,1.21.55,1.79.37.93.98,1.81,2,2.1,1.06.3,2.22-.16,2.55-1.27.24-.81-.02-1.8-.61-2.4-.37-.37-.9-.56-1.43-.5-.04-.17-.09-.34-.14-.5-.23-.73-.54-1.42-.9-2.09,2.35-3.34,4.69-6.67,7.04-10.01,1.11-1.58-1.49-3.08-2.59-1.51Z"/>
    <path class="cls-1" d="M364.04,32.19c-4.71-1.1-9.52-1.29-14.31-.63-.8.11-1.24,1.14-1.05,1.85.24.87,1.04,1.16,1.85,1.05,4.23-.58,8.56-.34,12.71.63,1.88.44,2.68-2.45.8-2.89Z"/>
    <path class="cls-1" d="M386.93,23.52c.06-1.51-2.07-2.02-2.8-.76-3.67,6.37-8.11,12.23-13.25,17.47-1.35,1.38.77,3.5,2.12,2.12,4.03-4.11,7.66-8.61,10.83-13.41.01,5.01.3,10.01.89,14.99.09.81.62,1.49,1.5,1.5.74,0,1.59-.7,1.5-1.5-.79-6.78-1.06-13.6-.79-20.41Z"/>
    <path class="cls-1" d="M402.56,59.4c-29.99-.52-59.98-.42-89.97.33-29.98.75-59.95,2.13-89.87,4.16-16.86,1.14-33.71,2.48-50.54,4.03-1.91.17-1.93,3.18,0,3,29.87-2.74,59.79-4.84,89.75-6.31,29.96-1.47,59.94-2.3,89.93-2.49,16.9-.11,33.8-.01,50.7.28,1.93.03,1.93-2.97,0-3Z"/>
    <path class="cls-1" d="M292.71,96.16c-.93-1.45-2.36-2.39-3.69-3.43-1.39-1.08-2.27-1.95-1.56-3.73.77-1.92,1.14-3.68.07-5.59-2.79-4.97-8.86-3.69-13.23-2.06-1.79.67-1.02,3.57.8,2.89,2.87-1.07,8.1-2.99,9.91.82.75,1.58-.64,3.06-.84,4.63-.19,1.46.35,2.78,1.31,3.87,1.72,1.96,4.91,2.99,5.31,5.87.36,2.66-1.35,5.51-3.56,6.87-3.69,2.28-8.4,1.92-12.55,1.68-1.93-.11-1.92,2.89,0,3,4.44.26,9.09.4,13.18-1.61,3.19-1.57,5.51-4.81,5.9-8.36.18-1.68-.13-3.42-1.05-4.86Z"/>
    <path class="cls-1" d="M425.71,64.23c-1.22-12.86-4.4-25.63-9-37.69-2.62-6.87-5.73-13.54-9.3-19.96-.94-1.69-3.53-.18-2.59,1.51,6.16,11.06,10.9,22.87,14.07,35.13,1.55,5.98,2.74,12.06,3.52,18.19.66,5.26.96,10.64.27,15.91-.63,4.82-2.19,9.52-5.11,13.39-.32-1.63-.35-3.3-.04-4.98.35-1.89-2.54-2.7-2.89-.8-.58,3.13-.35,6.3.84,9.27.4,1,1.65,1.54,2.51.66,7.82-8.07,8.74-20.01,7.73-30.65Z"/>
    <path class="cls-1" d="M494.73,65.13c-4.46-4.1-8.42-8.7-11.8-13.69,1.84-1.96,3.8-3.81,5.88-5.51.63-.51.53-1.59,0-2.12-.62-.62-1.49-.51-2.12,0-1.92,1.57-3.72,3.26-5.44,5.04-1.43-2.3-2.76-4.66-3.95-7.1-.85-1.73-3.43-.22-2.59,1.51,1.33,2.72,2.82,5.35,4.45,7.9-1.15,1.32-2.26,2.66-3.29,4.07-.19.16-.35.36-.44.61-.74,1.04-1.47,2.09-2.15,3.16-.04.07-.07.13-.1.2-1.46.34-2.72-.39-3.7-1.46-1.19-1.3-1.89-3.02-2.45-4.67-.71-2.09-1.29-4.22-1.76-6.37-.45-2.02-.79-4.05-1.06-6.1.25-2.37.36-4.75.52-6.98.7-9.9.81-19.84.36-29.76-.09-1.96-2.81-1.9-3,0-1.08,10.66-2.15,21.41-1.36,32.14.05.66.1,1.32.17,1.98-4.33-1.86-9.69-1.49-13.39,1.52-4.47,3.64-4.33,10.25-.68,14.43,1.69,1.94,4.22,3.11,6.81,2.83,2.84-.3,5.14-1.92,6.77-4.21.93-1.29,1.63-2.71,2.17-4.19.25,1.05.52,2.1.82,3.14,1.15,3.95,2.75,8.86,6.99,10.45,3.51,1.31,8.23-1.28,8.03-5.13.78-1.05,1.6-2.08,2.45-3.08,3.4,4.92,7.33,9.46,11.74,13.51,1.42,1.3,3.55-.81,2.12-2.12ZM460.15,45.94c-1.04,3.68-3.96,9.28-8.74,7.63-3.82-1.31-5.55-6.89-3.4-10.21,2.78-4.29,8.94-4.29,13.02-1.93-.19,1.51-.45,3.02-.87,4.5Z"/>
    <path class="cls-1" d="M593.98,52.6c-18.28,1.04-36.56,2.08-54.84,3.12-1.92.11-1.93,3.11,0,3,18.28-1.04,36.56-2.08,54.84-3.12,1.92-.11,1.93-3.11,0-3Z"/>
    <path class="cls-1" d="M612.31,58.84c-.7-3.81-2.73-7.62-5.03-10.7-2.42-3.23-5.39-5.94-8.85-8.02-1.66-1-3.17,1.6-1.51,2.59,5.84,3.51,10.32,9.18,12.21,15.74.22.77.56,1.75.16,2.52-.36.71-1.25,1.11-1.91,1.46-1.77.95-3.6,1.79-5.46,2.53-3.84,1.52-7.82,2.63-11.88,3.35-1.9.34-1.09,3.23.8,2.89,4.65-.82,9.17-2.17,13.51-4.03,2.05-.87,4.29-1.76,6.08-3.12,1.72-1.31,2.27-3.14,1.89-5.24Z"/>
    <path class="cls-1" d="M658.55,79.02c-1-4.48-3.34-8.57-5.11-12.77-1.73-4.11-3.22-8.33-4.49-12.61-2.58-8.76-4.27-17.89-4.68-27.03-.21-4.67.08-9.62,2.57-13.71,1.02-1.67,2.37-3.17,4.03-4.21.8-.5,1.64-.89,2.54-1.14.41-.12.82-.23,1.25-.18.12.01.26.03.38.07.12.04.16.07.18.08.23,1.78,3.07,1.75,2.98-.13-.19-4-5.2-3.09-7.61-1.96-3.09,1.45-5.55,4.21-7.05,7.23-3.74,7.53-2.34,16.87-1.18,24.87,1.27,8.76,3.5,17.38,6.64,25.66,1.56,4.1,3.52,8.02,5.17,12.08,1.53,3.77,2.68,8.01,1,11.93-1.38,3.22-4.26,5.48-7.25,7.12-1.62.9-3.32,1.64-5.06,2.28-.87.32-1.75.62-2.63.91-.43.14-.87.28-1.3.41-.12.03-.24.07-.36.1.11-.94-.64-2.03-1.85-1.74-1.65.4-2.17,2.42-1.25,3.75,1.15,1.67,3.31,1.08,4.91.58,3.27-1.02,6.53-2.24,9.51-3.95,2.82-1.62,5.44-3.75,7.15-6.56,2.04-3.36,2.36-7.3,1.51-11.08Z"/>
    <path class="cls-1" d="M677.93,40.9c-.85-1.11-3.08-2.35-2.63-3.97.49-1.77,2.19-3.05,2.82-4.8,1.19-3.35-.58-7.44-3.83-8.86-3.85-1.68-8.47.74-9.62,4.68-.54,1.86,2.35,2.65,2.89.8.69-2.36,3.75-3.9,5.96-2.52,1.05.66,1.75,1.84,1.93,3.05.22,1.43-.4,2.52-1.2,3.65-.85,1.2-1.76,2.38-1.97,3.88-.22,1.56.43,2.9,1.46,4.03.85.94,2.16,1.74,2.36,3.09.18,1.23-.44,2.49-1.23,3.39-2.75,3.11-7.61,1.9-11.11,1.08-1.88-.44-2.68,2.45-.8,2.89,4.15.97,9.18,2,12.87-.81,2.88-2.19,4.5-6.44,2.11-9.58Z"/>
    <path class="cls-1" d="M703.95,41.22c-.16.02-.3.1-.44.19-.1-.07-.21-.13-.31-.2-.38-.29-.73-.64-1.06-.99-.62-.68-1.14-1.44-1.64-2.22-.74-1.16-1.43-2.39-2.23-3.52,2.19-1.8,4.39-3.59,6.58-5.39.63-.51.53-1.59,0-2.12-.62-.62-1.49-.51-2.12,0-2.14,1.75-4.29,3.51-6.43,5.26-2.77-2.4-7.28-3.86-10.07-.79-1.3,1.43.82,3.55,2.12,2.12,1.2-1.32,2.99-.93,4.42-.16.42.23.8.49,1.15.77-1.69,1.38-3.38,2.77-5.07,4.15-1.06.87-2.17,1.7-3.19,2.62-.92.84-1.66,1.94-1.56,3.23.18,2.28,3.5,3.5,4.73,1.33.64-1.12-.31-2.17-1.29-2.24.55-.59,1.3-1.08,1.9-1.58,1.71-1.4,3.42-2.8,5.14-4.2.45-.37.9-.73,1.34-1.1.35.49.67,1.01,1,1.54,1.15,1.87,2.31,3.87,4.02,5.3.79.66,1.91,1.59,3,1.54.98-.04,2-1.08,1.89-2.11-.11-1.06-.86-1.59-1.9-1.45Z"/>
    <path class="cls-1" d="M725.26,16.57c-2.35.67-4.8.61-7.07-.1,2.49-1.63,4.32-4.37,4.25-7.38-.08-3.77-3.36-6.52-7.02-6.63-2.01-.06-3.83.84-4.96,2.49-.46.67-.13,1.66.54,2.05.74.43,1.59.13,2.05-.54.07-.1.41-.45.48-.5.13-.09.28-.17.42-.24.03,0,.32-.13.37-.14.14-.04.28-.07.42-.1.02,0,.03,0,.05,0,.09,0,.18-.01.27-.02.2,0,.39,0,.59,0,.06,0,.13.01.19.02,0,0,.06.01.15.03.83.17,1.21.32,1.88.76.45.3.9.76,1.2,1.3.15.27.24.48.32.96.06.34.07.74.03,1.13-.07.76-.41,1.59-.85,2.28-1.01,1.59-2.67,2.65-4.5,3.01-1.33.27-1.38,2.1-.36,2.74,3.64,2.31,8.2,2.95,12.35,1.76,1.85-.53,1.07-3.43-.8-2.89Z"/>
    <path class="cls-1" d="M713.58,58.6c-17.67-.94-35.42.41-52.75,3.98-1.89.39-1.09,3.28.8,2.89,17.07-3.52,34.55-4.8,51.95-3.87,1.93.1,1.92-2.9,0-3Z"/>
    <path class="cls-1" d="M701.95,89.74c-2.75-1.99-6.17-3.34-7.93-6.42-1.24-2.18-.66-6.74,2.6-6.53,1.23.08,2.08-1.75,1.06-2.56-5.69-4.54-13.6-5.39-20.09-2.05-1.72.88-.2,3.47,1.51,2.59,4.36-2.24,9.77-2.17,14.11.08-1.16.87-2.04,2.16-2.49,3.6-.97,3.05.07,6.02,2.13,8.34,1.08,1.22,2.42,2.22,3.77,3.12,1.37.92,3,1.65,4.21,2.77,2.81,2.6-3.54,5.61-5.51,6.26-3.56,1.16-7.52,1.04-10.93-.57-1.74-.82-3.26,1.76-1.51,2.59,6.3,2.98,14.07,2.06,19.35-2.58,1.32-1.16,2.46-2.72,2.39-4.55-.07-1.76-1.32-3.1-2.67-4.08Z"/>
    <path class="cls-1" d="M767.55,51.18c-3.91-.62-7.84-.83-11.76-.64-.78-3.84-1.84-7.62-3.21-11.29-.67-1.79-3.57-1.02-2.89.8,1.31,3.5,2.34,7.09,3.1,10.72-2.77.28-5.53.77-8.25,1.47-1.87.48-1.08,3.37.8,2.89,2.63-.68,5.3-1.15,7.99-1.42.44,2.7.74,5.42.87,8.16-.7-.68-1.2-1.56-1.46-2.56-.48-1.87-3.37-1.08-2.89.8.72,2.82,2.8,4.96,5.54,5.87.93.31,1.91-.51,1.9-1.45-.05-3.7-.38-7.39-.97-11.04,3.48-.15,6.98.03,10.43.58.81.13,1.6-.21,1.85-1.05.2-.71-.25-1.72-1.05-1.85Z"/>
    <path class="cls-1" d="M801.91,50.9c-1.4-8.02-1.77-16.33-.6-24.41.32-2.25.77-4.48,1.33-6.67.47-1.85.94-3.8,1.8-5.51.51-1,1.66-2.9,3.04-2.53.46.12.9.6,1.09,1.03.08.18.18.4.14.6,0,.02,0,.02,0,.02-.02,0-.07.01-.2.09-1.69.93-.18,3.53,1.51,2.59,2.78-1.54,1.65-5.23-.59-6.69-2.9-1.88-6.02.5-7.43,3.07-1.9,3.47-2.69,7.78-3.35,11.64-.72,4.24-1.06,8.54-1.03,12.84.05,8.76,1.55,17.51,3.99,25.9,2.37,8.14,6.05,16.14,6.71,24.69.35,4.53-.29,9.13-2.66,13.07-2.09,3.48-5.37,6.2-9.17,7.62-1.79.67-1.02,3.57.8,2.89,6.48-2.42,11.44-7.74,13.27-14.43,2.05-7.52.11-15.46-2.17-22.68-2.42-7.67-5.09-15.17-6.48-23.13Z"/>
    <path class="cls-1" d="M848.16,48.51c-1.06,4-4.84,6.43-8.72,7.24-4.21.88-8.57-.16-12.68-1.38,4.55-4.51,7.05-10.98,6.64-17.4-.04-.64-.44-1.29-1.1-1.45-3.16-.75-7.15-1.48-9.74,1.06-1.96,1.92-2.58,5.19-.52,7.26,1.36,1.37,3.49-.75,2.12-2.12-1.01-1.01-.07-2.71.94-3.35,1.51-.97,3.57-.62,5.33-.21.02,6.16-2.85,12-7.75,15.8-.94.73-.3,2.21.66,2.51,5.62,1.72,11.71,3.52,17.59,2,4.62-1.19,8.85-4.43,10.11-9.17.5-1.87-2.4-2.66-2.89-.8Z"/>
    <path class="cls-1" d="M870.33,37.1c-4.82,1.37-9.16,4.01-12.62,7.51-1.48-2.24-2.89-4.53-4.21-6.87-.95-1.68-3.54-.17-2.59,1.51,1.48,2.62,3.07,5.18,4.74,7.68-1.82,2.27-3.31,4.82-4.38,7.56-.3.75.32,1.65,1.05,1.85.85.23,1.55-.29,1.85-1.05.81-2.08,1.92-4.02,3.25-5.8,2.9,4.1,6.05,8.03,9.44,11.74,1.31,1.43,3.42-.7,2.12-2.12-3.46-3.78-6.65-7.79-9.57-11.98,3.19-3.35,7.26-5.87,11.72-7.13,1.85-.53,1.07-3.42-.8-2.89Z"/>
    <path class="cls-1" d="M868.03,74.4c-15.67-1.58-31.44-2.06-47.18-1.45-1.92.07-1.93,3.08,0,3,14.18-.55,28.39-.21,42.53,1.02.15.6.6,1.15,1.37,1.25,1.44.18,2.86-.19,4.05-1.02,1.26-.88.74-2.64-.76-2.8Z"/>
    <path class="cls-1" d="M848.33,100.45c-1.59-.98-3.23-1.84-4.92-2.63,1.17-.61,2.24-1.43,3.09-2.49,1.61-1.98,2.39-4.84,1.14-7.2-1.85-3.49-8.34-5.14-10.21-.77-.32.75-.22,1.6.54,2.05.63.38,1.73.21,2.05-.54.92-2.15,4.22-.96,5.03.77.61,1.31-.09,2.91-.97,3.92-1.22,1.4-3.07,2.33-4.91,2.56-1.67.21-2.04,2.32-.4,2.95,2.29.88,4.51,1.93,6.64,3.14,1.06.61,2.1,1.25,3.11,1.93.62.41,2.04,1.21,2.1,2.07.06.73-1.15,1.11-1.7,1.35-1.09.5-2.24.87-3.41,1.15-2.38.58-4.89.72-7.32.38-.81-.11-1.6.2-1.85,1.05-.2.7.25,1.73,1.05,1.85,3.18.44,6.38.32,9.49-.53,2.4-.66,6.38-1.79,6.71-4.75.34-3.04-3.11-4.93-5.29-6.27Z"/>
    <path class="cls-1" d="M925.79,53.65c-7.21-.36-14.43-.47-21.65-.32-1.79.04-1.91,2.34-.4,2.95l3.27,1.31c.76.3,1.64-.33,1.85-1.05.03-.09.04-.17.05-.26,5.63-.03,11.26.09,16.89.38,1.93.1,1.92-2.9,0-3Z"/>
    <path class="cls-1" d="M974.24,27.05c-6.09,6.33-12.17,12.66-18.26,18.99-1.34,1.39.78,3.52,2.12,2.12,4.99-5.19,9.98-10.38,14.96-15.56-1.11,6.88-2.21,13.76-3.32,20.64-.3,1.89,2.59,2.7,2.89.8,1.37-8.51,2.73-17.02,4.1-25.53.22-1.37-1.38-2.64-2.51-1.46Z"/>
    <path class="cls-1" d="M979.38,66.75h-31.71c-.25,0-.46.05-.65.14.48.76.77,1.64.77,2.58v.28h31.59c1.93,0,1.93-3,0-3Z"/>
    <path class="cls-1" d="M967.75,104.57c-1.3-.85-2.79-1.21-4.25-1.69-.84-.27-1.86-.61-2.62-1.2,2.09-.87,4.11-1.94,5.55-3.72,1.6-1.97,2.25-4.82,1.26-7.22-1.05-2.51-3.55-3.43-6.1-3.43-1.99,0-5.01.92-6.55-.73-1.32-1.41-3.44.71-2.12,2.12,1.43,1.52,3.42,1.84,5.42,1.77,1.75-.06,4.17-.67,5.74.37,1.61,1.06,1.24,3.53.28,4.91-1.4,2.02-3.99,2.95-6.19,3.79-.69.26-1.37,1.03-1.05,1.85,1.03,2.61,3.37,3.69,5.9,4.49,1.28.4,6.63,2.28,4.4,4.39-.98.94-2.75,1.3-4,1.66-1.74.51-3.52.87-5.33,1.05-3.46.34-6.92.1-10.3-.71-1.88-.45-2.68,2.44-.8,2.89,3.93.94,7.98,1.21,11.99.72,1.99-.25,3.96-.65,5.88-1.25,1.59-.5,3.45-1.05,4.68-2.24,2.69-2.6.82-6.1-1.81-7.82Z"/>
    <path class="cls-1" d="M950.28,15.29c-6.4-.57-8.73,8.85-9.97,13.43-1.86,6.85-2.6,13.96-3.11,21.02-.94,12.85-1.14,26.14-6.23,38.2-2.75,6.52-7.06,12.54-13.06,16.42-1.62,1.04-.11,3.64,1.51,2.59,10.66-6.89,15.88-19.05,18.19-31.1,2.53-13.22,1.81-26.79,4.19-40.02.68-3.81,1.63-7.57,2.96-11.21.87-2.36,2.34-6.62,5.52-6.34,1.92.17,1.91-2.83,0-3Z"/>
    <path class="cls-1" d="M1017.7,52.96c-5.94-1.46-12.14-1.47-18.09-.04-1.88.45-1.08,3.35.8,2.89,5.42-1.31,11.08-1.29,16.5.04,1.87.46,2.67-2.43.8-2.89Z"/>
    <path class="cls-1" d="M1018.41,64.34c-5.85-.47-11.74-.04-17.47,1.23-1.88.42-1.09,3.31.8,2.89,5.48-1.21,11.08-1.57,16.67-1.13,1.92.15,1.91-2.85,0-3Z"/>
    <path class="cls-1" d="M1100.9,22.34c.34-.86.68-1.72,1.02-2.58-.78.49-1.33,1.31-1.38,2.42-.01.24.03.45.1.63.09-.15.17-.31.26-.47Z"/>
    <path class="cls-2" d="M649.97,53.44c12.78-10.34,25.57-20.69,38.35-31.03"/>
    <path class="cls-2" d="M668.11,106.55c21.02-8.66,40.61-20.78,57.75-35.71"/>
    <path class="cls-1" d="M1084.84,61.2c-5.16-2.73-10.12-5.8-14.87-9.16,3.04-3.23,6.08-6.45,9.12-9.68,1.32-1.4-.79-3.53-2.12-2.12-3.15,3.34-6.3,6.69-9.45,10.03-4.98-3.69-9.72-7.72-14.16-12.08-1.38-1.35-3.5.77-2.12,2.12,4.46,4.37,9.21,8.43,14.22,12.16-3.46,3.67-6.91,7.33-10.37,11-1.32,1.4.79,3.53,2.12,2.12,3.56-3.78,7.13-7.56,10.69-11.35,4.93,3.51,10.08,6.71,15.43,9.55,1.71.9,3.22-1.69,1.51-2.59Z"/>
    <path class="cls-1" d="M1087.91,26.16c.42-2.22.45-4.46.14-6.73-.07-.49-.6-.93-1.05-1.05-2.24-.6-4.5-.67-6.79-.29-.8.13-1.25,1.12-1.05,1.85.23.85,1.04,1.18,1.85,1.05,1.41-.23,2.82-.18,4.21.08.16,2.02-.05,4.05-.6,5.99-.33,1.17.75,2.05,1.85,1.85,1.43-.27,2.27,2.14,1.84,3.31-.81,2.23-3.74,2.99-5.8,3.3-.8.12-1.24,1.13-1.05,1.85.24.86,1.04,1.17,1.85,1.05,3.3-.5,7.42-2.32,8.03-6.03.43-2.62-1.05-5.42-3.43-6.22Z"/>
    <path class="cls-1" d="M1088.03,85.5c-.77-.72-2.1-.44-3.06-.44-4.5,0-8.99,0-13.49,0-9.16,0-18.31-.01-27.47-.02-1.93,0-1.93,3,0,3,13.41,0,26.81.02,40.22.02-.27.85.18,2.03,1.35,2.15,1.51.16,2.82-1.07,3.05-2.51.12-.75-.03-1.66-.61-2.2Z"/>
    <path class="cls-1" d="M1071.64,111.64c2-3.18,2.55-7.65-.55-10.25-3.01-2.52-8.27-1.96-9.69,2.01-.65,1.82,2.24,2.6,2.89.8.69-1.93,3.78-1.58,4.98-.41,2.24,2.18.48,5.97-1.38,7.72-1.02.95-.16,2.46,1.06,2.56,3.93.32,7.18,3.69,7.73,7.52-3.79.53-7.63.15-11.28-1.05-1.84-.6-2.63,2.29-.8,2.89,4.55,1.49,9.37,1.75,14.07.86.65-.12,1.09-.83,1.1-1.45.08-5.1-3.44-9.63-8.13-11.21Z"/>
    <path class="cls-1" d="M1139.96,63.15c-3.69,1.06-7.32,2.34-10.86,3.8-1.35-4.2-2.87-8.35-4.55-12.43-.72-1.76-3.63-.99-2.89.8,1.73,4.21,3.28,8.49,4.67,12.83-2.53,1.13-5.02,2.36-7.46,3.7-1.69.93-.18,3.52,1.51,2.59,2.24-1.22,4.52-2.35,6.84-3.4.85,2.81,1.62,5.65,2.32,8.51.46,1.87,3.35,1.08,2.89-.8-.73-2.99-1.55-5.97-2.44-8.91,3.51-1.46,7.1-2.72,10.76-3.78,1.85-.53,1.06-3.43-.8-2.89Z"/>
    <path class="cls-1" d="M1179.56,17.91c.27-.6.65-1.12,1.09-1.55-.92-.53-1.96-.85-3.01-.86-.08.53-.18,1.06-.25,1.59.77.11,1.52.39,2.18.82Z"/>
    <path class="cls-1" d="M897.13,222.55c-1.2-.71-3.1.06-3.27,1.3-.22.02-.44.03-.65.04-1.09.05-2.17.1-3.26.14-2.25.09-4.51.16-6.76.17-4.42.03-8.87-.11-13.25-.72-7.54-1.06-14.92-3.5-20.97-8.23-5.32-4.16-9.51-9.94-10.6-16.7-1.44-8.85,2.52-17.66,4.89-25.99,2.79-9.79,4.73-19.79,5.87-29.91.22-1.92-2.78-1.9-3,0-1.19,10.47-3.3,20.84-6.3,30.94-2.77,9.32-6.64,19.12-3.62,28.89,2.4,7.75,8.31,13.97,15.2,18.03,8.18,4.81,17.76,6.36,27.12,6.65,2.87.09,5.75.06,8.62-.03,2.71-.08,5.65.08,8.31-.4,1.06-.19,2.07-.73,2.45-1.79.32-.89.03-1.89-.8-2.39Z"/>
    <path class="cls-1" d="M929.46,220.07c-.37-1.79-1.73-3.07-3.19-4.05-1.86-1.26-3.87-2.33-5.81-3.48l-14.14-8.39c-1.66-.99-3.18,1.61-1.51,2.59,3.64,2.16,7.28,4.32,10.92,6.48,1.79,1.06,3.57,2.12,5.35,3.18,1.53.91,3.39,1.72,4.66,3,2.59,2.62-1.66,5.24-3.74,6.29-3.54,1.79-7.19,3.36-10.92,4.71-4.22,1.53-8.53,2.79-12.9,3.78-1.34.31-1.36,2.06-.36,2.74,1.8,1.22,3.98,1.54,6.08.97,1.13-.31,1.28-1.5.8-2.27,6.68-1.87,13.25-4.36,19.34-7.61,2.87-1.53,6.17-4.3,5.41-7.95Z"/>
    <path class="cls-1" d="M974.13,211.47c-.99,1.49-3.78-.03-4.84-.69-2.34-1.45-4.57-3.15-6.73-4.86,3.06-2.91,6.24-5.7,9.55-8.34,1.51-1.2-.63-3.31-2.12-2.12-3.38,2.7-6.64,5.55-9.76,8.54-3.51-2.95-6.82-6.13-9.9-9.52-1.3-1.43-3.42.7-2.12,2.12,3.08,3.38,6.39,6.54,9.88,9.48-3.08,3.07-6.01,6.28-8.8,9.62-.26.1-.51.28-.71.56-.6.84-1.19,1.68-1.79,2.52-.98,1.37,1.3,3.15,2.36,1.82,3.51-4.42,7.28-8.63,11.29-12.6.8.63,1.58,1.28,2.4,1.89,3.26,2.45,10.39,8.37,13.89,3.09,1.07-1.61-1.53-3.12-2.59-1.51Z"/>
    <path class="cls-1" d="M988.44,191.02c-1.58.48-3.19.42-4.69-.15,2.04-2.5,3.52-5.69,2.6-8.91-.76-2.68-3.68-4.58-6.44-4.41-1.64.1-3.17.91-3.92,2.42-.36.73-.2,1.62.54,2.05.66.39,1.69.19,2.05-.54.06-.11.12-.22.19-.33-.04.09.16-.18.2-.23.04-.03.04-.03.05-.04.03-.02.06-.04.09-.06.1-.05.2-.11.29-.16-.34.18.07-.02.17-.04.05-.01.22-.04.29-.05.23-.01.46-.01.7,0,0,0,.01,0,.02,0,.06.01.13.02.19.04.16.03.32.08.48.13.09.03.17.06.26.09-.06-.02.27.12.32.15.15.08.3.17.44.26.06.04.11.08.17.12.21.18.41.38.59.59.04.06.17.24.19.27.05.08.08.16.12.24-.04-.06.1.26.12.32.04.13.12.49.12.52.13.91,0,1.66-.29,2.52-.56,1.69-1.75,3.19-3.03,4.44-.73.72-.48,1.82.3,2.36,2.5,1.72,5.77,2.2,8.67,1.32,1.84-.56,1.06-3.45-.8-2.89Z"/>
    <path class="cls-1" d="M983.69,226.83c-14.37,3.21-28.93,5.5-43.59,6.84-1.91.17-1.93,3.18,0,3,13.47-1.23,26.86-3.25,40.1-6.02l-.95,1.15c-1.22,1.48.89,3.61,2.12,2.12,1.26-1.53,2.52-3.05,3.78-4.58.94-1.14.07-2.85-1.46-2.51Z"/>
    <path class="cls-1" d="M978.43,264.66c.1,3.27-5.24,3.49-7.51,3.44-3.7-.09-7.39-.19-11.09-.29,4.15-3.06,7.19-7.56,8.36-12.64.8-3.47.9-7.28-.94-10.45-1.61-2.77-4.94-5.03-8.02-2.97-3.41,2.28-2.3,7.05-.94,10.18.77,1.77,3.35.24,2.59-1.51-.59-1.36-1.1-3.04-.89-4.54.17-1.21,1.13-2.25,2.42-1.83,1.36.44,2.3,2.04,2.78,3.28.62,1.59.61,3.31.45,4.99-.64,6.73-5.4,13.03-11.73,15.41-1.54.58-1.37,2.9.4,2.95,3.31.09,6.61.17,9.92.26,2.85.08,5.77.35,8.62.14,3.71-.28,8.72-1.85,8.59-6.4-.06-1.93-3.06-1.93-3,0Z"/>
    <path class="cls-1" d="M1024.59,201.97c-.5-1.87-2.19-2.8-3.97-2.87-.05-.08-.11-.15-.17-.21-.26-.26-.69-.46-1.06-.44-.3.01-.59.11-.83.27-1.29-.45-2.73,0-3.75.87-.5.43-.9.96-1.19,1.56-.45.48-.9.96-1.35,1.44-.55.59-.59,1.54,0,2.12.47.47,1.26.57,1.83.22.02,0,.03.02.05.03.75.28,1.52.1,2.15-.32.2.16.42.3.71.38.58.16,1.15.1,1.65-.11.23.13.49.22.74.2.81-.04,1.5-.66,1.5-1.5v-1.5s.18.03.3.06c.01.01.02.01.06.04.06.03.12.07.18.1.02,0,.02.01.04.02.04.04.09.1.1.1.02.03.04.07.06.1.01.02.02.03.03.04.02.07.04.15.05.18.21.78,1.07,1.26,1.85,1.05.79-.22,1.26-1.06,1.05-1.85Z"/>
    <path class="cls-1" d="M1064.51,198.49c-6.12-.03-12.24-.06-18.36-.09,1.09-2.32,2.89-4.26,4.45-6.29,1.85-2.39,3.18-4.9,3.37-7.97.16-2.56-.62-5.3-2.77-6.85-2.57-1.85-5.93-1.16-8.26.72-3.27,2.63-3.84,6.98-4.26,10.88-.21,1.92,2.79,1.9,3,0,.36-3.36.86-7.8,4.4-9.35,2.69-1.18,4.72.79,4.89,3.43.2,3.02-1.27,5.48-3.08,7.76-2.14,2.71-4.47,5.33-5.34,8.76-.24.95.46,1.89,1.45,1.9,6.83.03,13.67.06,20.5.1,1.93,0,1.93-2.99,0-3Z"/>
    <path class="cls-1" d="M1060.83,212.89c-5.28.42-10.57.84-15.85,1.26-.81.06-1.5.64-1.5,1.5,0,.76.69,1.56,1.5,1.5,5.28-.42,10.57-.84,15.85-1.26.81-.06,1.5-.64,1.5-1.5,0-.76-.69-1.56-1.5-1.5Z"/>
    <path class="cls-1" d="M1051.96,243.98c-.58-1.56-1.69-2.74-2.45-4.18-.88-1.68-.17-3.49.15-5.22.29-1.56.44-3.14-.38-4.57-1.35-2.34-5.3-4.09-6.9-1.01-.89,1.71,1.7,3.23,2.59,1.51.11-.21,0-.3.56-.08.38.15.78.51,1.02.84.8,1.1.18,2.73-.08,3.93-.35,1.63-.61,3.32-.07,4.94.52,1.54,1.65,2.69,2.4,4.09,1.27,2.36.81,5.56-1.08,7.46-2.11,2.14-5.56,2.32-8.03.76-1.64-1.03-3.15,1.56-1.51,2.59,2.73,1.72,6.19,1.88,9.11.55,2.9-1.32,4.75-4.15,5.14-7.27.18-1.45.04-2.96-.46-4.34Z"/>
    <path class="cls-1" d="M1099.87,208.21h-10.98c-1.93,0-1.93,3,0,3h10.98c1.93,0,1.93-3,0-3Z"/>
    <path class="cls-1" d="M1096.21,220.38c-.6.07-1.2.11-1.81.1-.3,0-.6-.02-.91-.05-.15-.01-.29-.03-.44-.04-.06,0-.13-.02-.19-.03-.6-.1-1.19-.24-1.76-.42-.29-.09-.57-.19-.86-.3-.04-.01-.17-.07-.22-.09-.13-.06-.25-.11-.37-.17-.71-.34-1.65-.22-2.05.54-.35.67-.22,1.69.54,2.05,2.5,1.2,5.3,1.74,8.06,1.41.78-.09,1.54-.62,1.5-1.5-.03-.73-.67-1.6-1.5-1.5Z"/>
    <path class="cls-1" d="M1153.66,202.99c-10.26,1.37-20.62,1.95-30.96,1.73,1.97-1.72,3.8-3.61,5.4-5.7,2.45-3.18,4.76-6.86,5.17-10.94.36-3.65-1.48-7.45-4.98-8.88-2.92-1.19-6.18.03-7.72,2.75-1.65,2.93-1.49,6.83-.21,9.86.32.75.99,1.27,1.85,1.05.71-.19,1.36-1.1,1.05-1.85-1-2.39-1.46-5.79.2-8.01,2.06-2.77,5.62-.51,6.55,2.07,1.37,3.81-1.38,8.1-3.49,11.08-2.36,3.35-5.34,6.28-8.68,8.65-1.2.85-.8,2.73.76,2.8,11.71.49,23.45-.05,35.07-1.6.81-.11,1.49-.61,1.5-1.5,0-.73-.7-1.61-1.5-1.5Z"/>
    <path class="cls-1" d="M1186.45,204.35c-.89-1.38-2.91-.48-2.83.83-.25-.27-.53-.51-.77-.8-.72-.91-1.42-1.83-2.16-2.72-.79-.95-1.6-1.87-2.43-2.77,2.57-1.66,5.16-3.28,7.8-4.82,1.67-.97.16-3.56-1.51-2.59-2.85,1.66-5.64,3.42-8.4,5.22-.08-.08-.16-.17-.25-.26-3.37-3.33-7.08-6.31-11.01-8.94-1.61-1.07-3.11,1.52-1.51,2.59,3.66,2.44,7.08,5.22,10.22,8.29-3.95,2.67-7.8,5.48-11.55,8.44-.38.3-.56,1.02-.39,1.46,1.23,3.17,5.57,3.74,7.54.94,1.11-1.58-1.49-3.08-2.59-1.51-.23.33-.77.42-1.25.33,3.37-2.61,6.82-5.11,10.36-7.48.36.39.73.77,1.08,1.17.97,1.08,1.91,2.2,2.81,3.34.79,1,1.5,2.18,2.63,2.85,1.14.68,2.49.67,3.53-.18,1.02-.82,1.42-2.22.68-3.36Z"/>
    <path class="cls-1" d="M1208.75,182.86c-2.8-.8-5.59-1.61-8.39-2.41.43-2.63.46-5.61-1.79-7.37-1.98-1.55-5.38-1.67-6.68.83-.89,1.71,1.7,3.23,2.59,1.51.23-.45.4-.49.94-.48.14,0,.59.09.74.16.33.14.57.3.76.51,1.21,1.29.62,3.86.27,5.51-.17.8.23,1.61,1.05,1.85l9.72,2.79c1.86.53,2.65-2.36.8-2.89Z"/>
    <path class="cls-1" d="M1196.16,226.21c-.98-.83-2.29-.78-3.5-.81-6.81-.14-13.63-.22-20.44-.24-13.63-.04-27.26.15-40.88.59-7.64.24-15.28.57-22.92.96-1.92.1-1.93,3.1,0,3,22.66-1.17,45.35-1.68,68.03-1.53,3.16.02,6.32.06,9.47.1,1.58.02,3.16.05,4.74.08.78.01,1.56.03,2.35.05.29,1.56,2.7,2.15,3.72.5.57-.91.19-2.06-.58-2.71Z"/>
    <path class="cls-1" d="M1158.41,238.27c-2.68-5.53-10.21-2.41-13.94-.03-5.02,3.21-10.24,7.99-10.63,14.34-.14,2.18.42,4.54,1.53,6.57-.64,1.22-1.17,2.51-1.65,3.78-.69,1.81,2.21,2.59,2.89.8.22-.57.48-1.22.78-1.89,1.27,1.26,2.84,2.17,4.64,2.47,2.76.47,5.95-.55,7.38-3.11,1.36-2.44.36-5.2-1.83-6.73-2.51-1.76-5.85-1.75-8.34,0-.72.5-1.35,1.09-1.91,1.74-.45-1.34-.62-2.76-.45-4.06.59-4.49,4.31-8.03,7.83-10.48,1.96-1.36,4-2.66,6.34-3.22,1.75-.42,3.88-.52,4.77,1.33.84,1.74,3.43.22,2.59-1.51ZM1144.88,256.42c1.39.51,2.79,1.88,1.86,3.42-1,1.65-3.37,1.92-5.04,1.3-1.1-.4-2.04-1.14-2.8-2.05,1.42-2.09,3.36-3.63,5.98-2.67Z"/>
    <path class="cls-1" d="M1241.87,202.97c-4.02-1.29-8.35-.95-12.17.78-.74.33-.92,1.41-.54,2.05.44.76,1.31.87,2.05.54,3.1-1.4,6.64-1.51,9.86-.48.77.25,1.64-.29,1.85-1.05.22-.81-.27-1.6-1.05-1.85Z"/>
    <path class="cls-1" d="M1245.13,212.23c-3.66-.33-7.33-.49-11-.5-.37-1.21-.73-2.42-1.1-3.63-.56-1.84-3.45-1.06-2.89.8.48,1.58.95,3.15,1.43,4.73.19.63.78,1.11,1.45,1.1,4.05-.03,8.09.14,12.12.5.81.07,1.5-.74,1.5-1.5,0-.87-.69-1.43-1.5-1.5Z"/>
    <path class="cls-1" d="M1296.73,184.14c-4.91,2.44-9.63,5.22-14.14,8.3-4.93-2.85-9.87-5.7-14.8-8.55-1.67-.97-3.19,1.62-1.51,2.59,3.29,1.9,6.58,3.8,9.87,5.7,1.23.71,2.46,1.46,3.69,2.2-2.97,2.15-5.84,4.42-8.61,6.83-1.44,1.3.67,3.38,2.12,2.12,1.09-.98,2.34-1.61,3.75-1.97.98-.25,1.22-1.16.97-1.9,1.51-1.18,3.04-2.33,4.6-3.43.8.44,1.6.87,2.42,1.26,3.79,1.83,10.05,3.37,12.41-1.39.86-1.72-1.73-3.25-2.59-1.51-1.68,3.38-6.69,1.2-9.42-.29,4.1-2.71,8.36-5.17,12.77-7.36,1.73-.86.21-3.45-1.51-2.59Z"/>
    <path class="cls-1" d="M1325.85,177.11c-2.71.93-7.11,2.54-9.05-.56-.48-.77-.77-1.83-.15-2.6.49-.62,1.29-.95,1.83-1.52.47-.5.84-1.11,1-1.79.7-2.94-2.52-4.89-5-5.17-1.65-.18-3.08.41-4.56,1.07-1.45.64-3.07,1.59-4.71,1.28-1.89-.36-2.7,2.53-.8,2.89,1.93.36,3.64-.1,5.41-.86,1.35-.58,2.86-1.59,4.39-1.42.66.08,2.27.54,2.36,1.37.05.45-.5.77-.81,1.02-.66.52-1.31.98-1.76,1.71-1.58,2.53-.21,5.81,1.99,7.46,3.12,2.35,7.34,1.15,10.68,0,1.82-.62,1.04-3.52-.8-2.89Z"/>
    <path class="cls-1" d="M1336.46,211.4c-20.69-1.83-41.48-2.37-62.24-1.61-1.92.07-1.93,3.07,0,3,19.92-.73,39.87-.25,59.74,1.4-.07.03-.14.06-.22.08-1.87.46-1.08,3.36.8,2.89,2.02-.5,3.33-2.23,3.42-4.27.04-.86-.72-1.43-1.5-1.5Z"/>
    <path class="cls-1" d="M1310.54,239.02c-.83-.63-1.75-1.12-2.62-1.7-.12-.08-.28-.18-.44-.29,1.48-.34,2.81-1.31,3.69-2.63,1.38-2.08,1.18-4.79-.25-6.79-1.48-2.07-3.87-3.3-6.41-3.38-2.93-.1-5.64,1.28-7.85,3.08-1.5,1.22.63,3.33,2.12,2.12,2.54-2.06,6.55-3.33,9.17-.71.96.96,1.51,2.35.93,3.65-.55,1.22-1.87,2.11-3.2,1.71-.75-.22-1.67.27-1.85,1.05-.41,1.83.47,3.24,1.9,4.32,1.26.95,3.09,1.56,3.91,2.98.79,1.35.71,3.24-.42,4.38-1.22,1.22-3.19,1.36-4.62.49-1.65-1.01-3.16,1.59-1.51,2.59,4.15,2.53,9.71-.19,10.06-5.07.16-2.23-.84-4.44-2.6-5.79Z"/>
    <path class="cls-1" d="M1204.64,62.59c.04.13.06.23.06.33-2.19-1.35-3.31-4.23-4.5-6.37-1.29-2.32-2.97-4.33-4.98-6.04,1.6-1.38,3.19-2.77,4.79-4.15,1.62-1.4,3.75-3.34,6.03-2.47,1.81.68,2.59-2.21.8-2.89-3.91-1.48-7.37,1.87-10.07,4.21-1.33,1.16-2.67,2.31-4,3.47-4.73-2.99-10.53-4.12-16.04-3.03-1.89.37-1.09,3.27.8,2.89,4.37-.86,9,.01,12.87,2.2-1.23,1.06-2.46,2.13-3.68,3.19-1.68,1.45-3.35,2.91-5.03,4.36-1.28,1.11-3.24,2.53-2.48,4.49.57,1.46,2.33,1.63,3.33.51.6-.68.66-1.46.33-2.06,0,0,0,0,.01-.01.56-.49,1.12-.97,1.68-1.45.99-.86,1.99-1.72,2.98-2.58,1.81-1.57,3.62-3.14,5.43-4.71,1.13.9,2.15,1.92,3.04,3.07,2.07,2.68,3.07,6.07,5.44,8.54.97,1.01,2.9,2.68,4.39,1.98,1.56-.73,2.24-2.7,1.7-4.28-.62-1.82-3.52-1.04-2.89.8Z"/>
    <path class="cls-1" d="M1234.33,38.31c-2.11,1.34-5.53-.23-5.67-2.82-.11-1.95,1.49-3.77,2.45-5.34,1.05-1.73,1.83-3.63,2.18-5.63.61-3.49.39-8.29-2.39-10.89-2.54-2.37-7.02-1.48-7.46,2.25-.23,1.91,2.78,1.9,3,0,.05-.46.85-.64,1.2-.64.74,0,1.31.59,1.7,1.17.93,1.41,1.2,3.31,1.23,4.96.03,1.99-.38,4-1.23,5.8-.8,1.67-2.01,3.1-2.79,4.78-1.34,2.88-1.07,6.01,1.47,8.12,2.19,1.81,5.37,2.38,7.84.81,1.63-1.03.12-3.63-1.51-2.59Z"/>
    <path class="cls-1" d="M1251.23,76.44c-2.3-.85-4.92-.3-7.3-.12-5.97.46-11.94.93-17.91,1.4-12.02.96-24.05,1.94-36.07,2.94-6.8.57-13.59,1.15-20.39,1.73-1.91.16-1.93,3.17,0,3,22.21-1.91,44.43-3.74,66.66-5.48,3.15-.25,6.3-.49,9.45-.73,1.16-.09,2.42-.33,3.58-.17.47.06.91.21,1.33.4.1.05.26.13.32.23-.01.01-.03.03-.04.08-.52,1.86,2.37,2.66,2.89.8.55-1.96-.77-3.43-2.53-4.08Z"/>
    <path class="cls-1" d="M1215.72,116.03c-.64-1.3-1.82-2.23-2.93-3.11-1.15-.92-2.14-1.96-2.89-3.23-1.55-2.61-2.06-5.75-1.33-8.7.25-1-.73-2.29-1.85-1.85l-7.08,2.83c-1.77.71-1,3.61.8,2.89,1.62-.64,3.23-1.29,4.85-1.93-.23,4.66,1.79,9.26,5.52,12.21.66.52,2.38,1.6,2.33,2.59-.03.56-.94.96-1.35,1.2-.73.44-1.48.84-2.24,1.23-3.06,1.54-6.35,2.56-9.72,3.16-1.9.34-1.09,3.23.8,2.89,3.56-.63,7-1.77,10.24-3.37,2.59-1.28,6.6-3.28,4.86-6.82Z"/>
    <path class="cls-1" d="M1286.86,64.75c-2.93-.22-5.85-.44-8.78-.66-1.43-.11-2.87-.22-4.3-.32-.64-.05-1.29-.1-1.93-.15.01-.27-.04-.54-.21-.77-.61-.82-1.56-1.21-2.52-.7-.75.39-1.26,1.18-1.25,2.04.04,2.49,3.35,2.39,5.05,2.52,4.65.35,9.3.7,13.95,1.05,1.93.14,1.92-2.86,0-3Z"/>
    <path class="cls-1" d="M1336.77,60.28c-5.12-2.02-9.76-5.28-13.42-9.4,3.53-2.29,7.3-4.21,11.24-5.69,1.79-.67,1.02-3.57-.8-2.89-4.35,1.63-8.47,3.72-12.33,6.26-2.93-4-6.43-10.86-12.3-8.28-1.76.78-.24,3.36,1.51,2.59,2.27-1,4.54,1.98,5.67,3.52.93,1.27,1.8,2.56,2.71,3.82-.7.51-1.39,1.03-2.07,1.57-1.26,1-2.49,2.06-3.66,3.16-1.03.97-2.71,2.19-2.65,3.77.06,1.5,1.59,2.43,2.91,1.64.83-.5,1.16-1.5.82-2.29.03-.03.06-.07.09-.1.35-.35.71-.69,1.08-1.03.77-.72,1.56-1.42,2.37-2.09.95-.8,1.94-1.55,2.95-2.28.22.26.43.53.66.78,3.98,4.35,8.94,7.66,14.42,9.82,1.8.71,2.58-2.19.8-2.89Z"/>
    <path class="cls-1" d="M1336.65,74.58c-11.36-1.04-22.72-2.07-34.09-3.11-1.92-.18-1.91,2.83,0,3,11.36,1.04,22.72,2.07,34.09,3.11,1.92.18,1.91-2.83,0-3Z"/>
    <path class="cls-1" d="M1323.38,100.3c2.31-1.88,3.2-5.41,2.04-8.21-1.73-4.18-6.94-5.6-10.99-4.34-1.84.57-1.05,3.47.8,2.89,2.53-.79,6.04-.27,7.33,2.36,1.01,2.06,0,5.05-2.34,5.58-1.3.3-1.41,2.09-.36,2.74,2.59,1.59,5.38,5.34,3.65,8.48-.98,1.79-4.48,3.27-5.99,1.28-1.15-1.52-3.76-.03-2.59,1.51,2.79,3.69,8.42,2.73,10.9-.85,2.62-3.79.63-8.51-2.45-11.44Z"/>
    <path class="cls-1" d="M1390.36,68.04c-4.43-.22-8.86-.45-13.29-.67-.28-4.59-.56-9.17-.84-13.76-.12-1.92-3.12-1.93-3,0,.28,4.54.55,9.07.83,13.61-.65-.03-1.3-.07-1.95-.1-1.93-.1-1.92,2.9,0,3l2.13.11.55,9.04c.12,1.92,3.12,1.93,3,0-.18-2.96-.36-5.93-.54-8.89,4.37.22,8.74.44,13.11.66,1.93.1,1.92-2.9,0-3Z"/>
    <path class="cls-1" d="M1431.74,72.66c-3.81,1.14-7.73,1.71-11.71,1.66-2.02-.03-4.05-.2-6.04-.55-1.46-.26-3.56-.47-4.53-1.75-1.74-2.3.41-6.16,1.85-8.08,1.68-2.23,4.06-3.98,6.63-5.02,2.45-.99,5.09-1.35,7.68-1-.8,1.57-1.61,3.14-2.41,4.71-.88,1.71,1.71,3.23,2.59,1.51l3.36-6.55c.44-.85.08-1.94-.9-2.2-6.87-1.88-14.6.81-19.02,6.36-2.17,2.73-4.13,6.66-3.1,10.23,1.24,4.32,6.57,4.76,10.32,5.15,5.39.55,10.89-.01,16.08-1.56,1.85-.55,1.06-3.45-.8-2.89Z"/>
    <path class="cls-1" d="M62.31,401.96c-11.94.62-23.91.48-35.82-.46-2.94-.23-5.87-.51-8.8-.84-2.07-.23-4.97-.35-5.69-2.74-.67-2.23.25-4.9.71-7.08.61-2.92,1.22-5.84,1.83-8.76,2.49-11.83,5.03-23.66,7.62-35.47,1.28-5.82,2.57-11.65,3.87-17.47,1.25-5.6,2.31-11.3,3.86-16.83.74-2.64,1.82-5.17,3.9-7.03,1.68-1.51,3.83-2.34,6.02-2.78,4.76-.95,9.8-.11,14.49.85,1.88.39,2.69-2.51.8-2.89-8.46-1.73-19.75-3.13-25.45,5.02-1.51,2.15-2.33,4.73-2.96,7.25-.77,3.09-1.43,6.21-2.12,9.31-1.4,6.22-2.79,12.45-4.16,18.67-2.77,12.54-5.48,25.08-8.13,37.65-.67,3.16-1.33,6.32-1.99,9.48-.57,2.72-1.41,5.54-1.46,8.34-.04,2.35.78,4.64,2.83,5.95,2.23,1.42,5.21,1.43,7.75,1.7,14.25,1.5,28.6,1.86,42.91,1.11,1.92-.1,1.93-3.1,0-3Z"/>
    <path class="cls-1" d="M66.47,333.54c-3.49-1.07-6.8-2.61-9.88-4.52,3.35-2.97,6.7-5.95,10.05-8.92,1.45-1.28-.68-3.4-2.12-2.12-3.5,3.11-7,6.21-10.5,9.32-2.48-1.8-4.77-3.86-6.83-6.16-1.29-1.44-3.4.68-2.12,2.12,2.01,2.25,4.24,4.28,6.65,6.08-2.63,2.33-5.25,4.66-7.88,6.99-1.45,1.28.68,3.4,2.12,2.12,2.76-2.45,5.52-4.9,8.28-7.35,3.53,2.29,7.38,4.09,11.42,5.34,1.85.57,2.64-2.33.8-2.89Z"/>
    <path class="cls-1" d="M80.58,302.11c-.06-.05-.09-.07-.1-.08-.01-.01-.04-.03-.09-.07-.12-.1-.25-.2-.37-.31-.18-.17-.36-.35-.52-.54-.03-.04-.1-.15-.14-.21-.01-.02-.02-.04-.03-.06,0-.02,0-.02-.02-.05,0,0-.02-.08-.03-.12,0-.05,0-.11,0-.15,0-.01,0-.02,0-.02.17-.99-.43-1.8-1.45-1.87-1.11-.08-2.21-.16-3.32-.24-.81-.06-1.5.73-1.5,1.5,0,.86.69,1.44,1.5,1.5.65.05,1.29.09,1.94.14.49,1.7,2.15,2.83,3.64,3.94.01,0,0,0,.02.01.03.02.06.05.09.07.1.08.2.16.29.24.2.18.4.36.59.56.04.04.14.17.19.22.04.06.1.16.12.18.05.09.1.17.14.26.02.06.04.12.06.17.02.07.03.19.04.21,0,.06,0,.13,0,.19,0-.02-.02.18-.05.27,0,.04-.02.07-.04.11,0,.01,0,.01-.03.04-.06.08-.1.16-.16.25-.02.02-.1.12-.15.16-.09.1-.2.18-.29.28,0,0-.03.03-.06.05-.04.03-.13.09-.14.1-.31.2-.63.38-.96.54-.29.14-.37.17-.79.3-.37.12-.74.23-1.12.31-.17.04-.35.08-.52.11-.09.02-.59.09-.33.06-.8.1-1.5.61-1.5,1.5,0,.73.69,1.61,1.5,1.5,2.81-.36,6.55-1.46,7.48-4.52.92-3.04-1.81-5-3.9-6.55Z"/>
    <path class="cls-1" d="M75.79,344.09c-12.57,1.54-25.17,2.88-37.79,4.01-1.91.17-1.93,3.17,0,3,12.62-1.13,25.22-2.47,37.79-4.01,1.89-.23,1.91-3.24,0-3Z"/>
    <path class="cls-1" d="M60.01,369.92c2.7-2.42,4.08-6.64,1.66-9.7-2.37-3-7.81-3.31-9.76.31-.91,1.7,1.68,3.22,2.59,1.51.97-1.8,3.86-1.38,4.91.15,1.69,2.44-.81,5.52-2.99,6.5-1.3.59-.71,2.33.36,2.74,2.88,1.1,4.64,4.6,3.82,7.57-.87,3.12-4.42,5.08-7.52,4.37-1.88-.43-2.68,2.46-.8,2.89,4.69,1.07,9.9-1.74,11.21-6.47,1.03-3.72-.56-7.61-3.49-9.88Z"/>
    <path class="cls-1" d="M112.31,338.7h-3.38v-11.91c0-1.93-3-1.93-3,0v11.91h-4.6c-1.93,0-1.93,3,0,3h4.6v4.6c0,1.93,3,1.93,3,0v-4.6h3.38c1.93,0,1.93-3,0-3Z"/>
    <path class="cls-1" d="M150.75,330.56c-3.82-2.55-7.5-5.29-11.07-8.17,2.37-1.95,4.85-3.76,7.45-5.4,1.63-1.03.12-3.63-1.51-2.59-2.89,1.83-5.65,3.86-8.27,6.05-2.27-1.92-4.51-3.88-6.67-5.93-1.4-1.33-3.52.79-2.12,2.12,2.1,2,4.27,3.93,6.48,5.81-2.82,2.54-5.46,5.28-7.88,8.22-.51.62-.61,1.51,0,2.12.53.53,1.6.63,2.12,0,2.48-3.01,5.18-5.82,8.08-8.41,3.82,3.11,7.77,6.04,11.87,8.78,1.61,1.08,3.11-1.52,1.51-2.59Z"/>
    <path class="cls-1" d="M178.24,309.88c-2.93-.28-5.87-.55-8.8-.83.37-2.96.58-5.94.58-8.93,0-2.67.35-6.54-2.45-8.02-2.16-1.14-5.04-.23-6.54,1.58-2.09,2.53-1.65,6.01-1.19,9.02.12.8,1.13,1.24,1.85,1.05.85-.23,1.17-1.04,1.05-1.85-.3-1.91-.79-4.6.54-6.25.68-.85,2.47-1.61,3.24-.61.55.7.44,1.92.47,2.75.04,1.33.05,2.66.02,3.99-.07,2.75-.29,5.49-.68,8.21-.15,1.03.39,1.8,1.45,1.9,3.49.33,6.98.66,10.47.98.81.08,1.5-.74,1.5-1.5,0-.87-.69-1.42-1.5-1.5Z"/>
    <path class="cls-1" d="M170.84,339.88l-43.97,5.58c-1.89.24-1.91,3.24,0,3l43.97-5.58c1.89-.24,1.91-3.24,0-3Z"/>
    <path class="cls-1" d="M146.39,359.74c.01-1.08-.96-1.58-1.9-1.45-1.64.23-3.28-.14-4.72-.93-1.69-.93-3.21,1.66-1.51,2.59,1.67.91,3.4,1.34,5.22,1.36.21,1.94.79,3.81,1.5,5.65.88,2.28,2.07,4.64,2.35,7.09.33,2.82-1.55,8.29-5.27,7.11-1.84-.59-2.63,2.31-.8,2.89,4.94,1.58,8.44-3.52,9-7.82.77-5.85-3.92-10.7-3.87-16.48Z"/>
    <path class="cls-1" d="M208.65,328.92c-4.9.63-9.8,1.26-14.7,1.89-.8.1-1.5.62-1.5,1.5,0,.73.69,1.6,1.5,1.5,4.9-.63,9.8-1.26,14.7-1.89.8-.1,1.5-.62,1.5-1.5,0-.73-.69-1.6-1.5-1.5Z"/>
    <path class="cls-1" d="M248.38,316.51c-3.56,1.37-6.91,3.18-10,5.36-2.94-2.24-6.16-4.13-9.62-5.56-.75-.31-1.65.33-1.85,1.05-.24.86.3,1.53,1.05,1.85,2.83,1.17,5.51,2.7,7.98,4.51-3.68,2.99-6.89,6.56-9.5,10.59-1.05,1.63,1.55,3.13,2.59,1.51,2.51-3.89,5.67-7.34,9.29-10.2,2.84,2.45,5.35,5.3,7.37,8.46,1.04,1.62,3.64.12,2.59-1.51-2.1-3.28-4.65-6.19-7.52-8.74,2.62-1.78,5.44-3.28,8.41-4.42,1.78-.69,1.01-3.59-.8-2.89Z"/>
    <path class="cls-1" d="M251.27,345.23c-9.49.81-18.94,2.02-28.32,3.63-1.9.33-1.09,3.22.8,2.89,9.12-1.56,18.3-2.73,27.52-3.52,1.91-.16,1.93-3.16,0-3Z"/>
    <path class="cls-1" d="M248.35,371.82c-1.92-1.01-3.85-2.01-5.77-3.02,2.64-3.08,5.19-7.13,3.15-11.05-1.62-3.11-6.57-5.26-9.16-2.05-1.2,1.49.91,3.62,2.12,2.12,1.42-1.75,4.02.13,4.6,1.79,1.09,3.13-2.27,6.53-4.17,8.56-.63.67-.58,1.89.3,2.36,1.98,1.04,3.97,2.08,5.95,3.12-1.85,2.26-4.52,3.83-7.44,4.19-.81.1-1.49.62-1.5,1.5,0,.73.7,1.6,1.5,1.5,4.55-.56,8.55-3.03,10.96-6.96.41-.67.17-1.68-.54-2.05Z"/>
    <path class="cls-1" d="M293.38,353.96c-3.3-20.39-8.04-40.56-14.16-60.29-.73-2.36-1.32-4.93-2.54-7.1-1.21-2.17-3.16-3.4-5.59-3.75-2.73-.39-5.55-.38-8.3-.53-3-.16-6.01-.32-9.01-.48-1.93-.1-1.92,2.9,0,3,4.87.26,9.74.52,14.61.78,1.95.1,4.08.13,5.33,1.87,1.2,1.67,1.65,3.93,2.25,5.86,2.87,9.17,5.45,18.43,7.71,27.77,2.29,9.42,4.27,18.91,5.93,28.45,1.36,7.78,3.44,16.69.48,24.36-3.3,8.52-12.79,10.82-20.86,12.31-1.9.35-1.09,3.24.8,2.89,7.75-1.43,16.25-3.59,20.96-10.49,4.89-7.17,3.7-16.59,2.4-24.65Z"/>
    <path class="cls-1" d="M312.23,292.32c-1.09-5.37-1.25-10.86-.54-16.29.17-1.27-1.77-2.02-2.56-1.06-5.68,6.87-13.19,12.04-21.68,14.8-1.83.59-1.05,3.49.8,2.89,7.57-2.46,14.48-6.7,20.07-12.34-.19,4.28.16,8.57,1.02,12.8.38,1.89,3.28,1.09,2.89-.8Z"/>
    <path class="cls-1" d="M306.44,387.36c-.2-.73-1.08-1.34-1.85-1.05-3.96,1.5-7.92,3-11.88,4.5-.76.29-1.28,1.01-1.05,1.85.2.73,1.08,1.34,1.85,1.05,3.96-1.5,7.92-3,11.88-4.5.76-.29,1.28-1.01,1.05-1.85Z"/>
    <path class="cls-1" d="M336.7,391.16c-2.36-.01-4.72-.02-7.08-.03-1.91,0-4.05.27-5.92-.19-.37-.09-1.13-.25-1.3-.66-.24-.6.84-1.54,1.17-1.95,1.25-1.57,2.33-3.27,3.15-5.1,1.4-3.12,2.68-7.08,1.67-10.5-.44-1.48-1.36-2.8-2.8-3.43-1.9-.83-3.96-.21-5.65.83-3.69,2.25-6.39,5.9-7.82,9.94-.65,1.82,2.25,2.61,2.89.8,1.17-3.3,3.45-6.31,6.44-8.15,1.26-.77,3.04-1.37,3.84.27.58,1.18.52,2.65.3,3.91-.66,3.75-2.34,7.11-4.73,10.04-1.06,1.3-1.93,2.83-1.2,4.52.57,1.32,1.91,2.06,3.26,2.39,1.95.48,4.05.29,6.03.3,2.59.01,5.18.02,7.76.03,1.93,0,1.93-2.99,0-3Z"/>
    <path class="cls-1" d="M508.28,437.83c-12.06,1.84-24.5,2.76-36.7,2.07-1.01-.06-2.11-.19-2.55-1.24-.39-.95-.26-2.12-.16-3.11.31-2.97.74-5.94,1.12-8.9.78-6.18,1.56-12.35,2.33-18.53,1.5-11.93,2.84-23.9,4.59-35.8,1.65-11.24,3.92-22.59,8.57-33.02.99-2.23,2.17-4.92,4.63-5.83,1.97-.72,4.14-.18,6.07.39,4.3,1.25,8.67,3.22,13.07,1.27,1.76-.78.24-3.37-1.51-2.59-3.76,1.67-8.36-1.02-12-1.9-1.95-.48-4.04-.72-6.01-.18-2.29.63-4.02,2.25-5.26,4.22-1.48,2.35-2.48,5.09-3.47,7.68-1.08,2.83-2.01,5.71-2.83,8.62-1.6,5.71-2.74,11.54-3.67,17.39-1.98,12.46-3.33,25.03-4.91,37.54-.83,6.59-1.66,13.18-2.49,19.77-.39,3.13-.81,6.26-1.18,9.39-.26,2.2-.27,4.72,1.43,6.39,1.03,1.01,2.45,1.32,3.83,1.43,1.72.14,3.47.13,5.19.15,3.6.05,7.2,0,10.8-.15,7.33-.31,14.64-1.04,21.89-2.15,1.9-.29,1.09-3.18-.8-2.89Z"/>
    <path class="cls-1" d="M502.72,351.8c-.25-.76-1.04-1.28-1.85-1.05-3.09.91-6.1,1.38-9.3,1.44-.78.01-1.54.68-1.5,1.5.04.8.66,1.52,1.5,1.5,3.41-.06,6.82-.58,10.1-1.54.75-.22,1.3-1.06,1.05-1.85Z"/>
    <path class="cls-1" d="M518.83,349.31c.63-.51.53-1.59,0-2.12-.62-.62-1.49-.51-2.12,0-1.51,1.23-2.81,2.71-3.86,4.36-.81-.87-1.54-1.8-1.99-2.91-.6-1.47-.48-2.95.81-3.53.23-.1.73-.22.82-.23.34-.04.62,0,.77.03.37.09.25.06.4.2-.04-.04-.12-.24.04.06-.07-.13.08.33.1.43.12.8,1.13,1.24,1.85,1.05.86-.24,1.17-1.04,1.05-1.85-.34-2.2-2.58-3.14-4.58-2.87-2.09.28-4.1,1.7-4.49,3.87-.56,3.13,1.25,5.92,3.3,8.1.14.15.29.3.44.45-.41.96-.75,1.96-1,2.97-.48,1.96-.67,4.03-.48,6.04.1,1.09.44,1.8,1.38,2.4.69.44,1.55.61,2.35.52,1.71-.17,3.22-1.23,4.17-2.64,1.05-1.56,1.1-3.49.45-5.23-.67-1.8-1.89-3.28-3.21-4.64.97-1.68,2.24-3.19,3.79-4.45ZM515.67,360.33c.19,1.43-1.55,3.51-2.78,2.83-.17-2.22.12-4.42.82-6.48.97,1.07,1.77,2.25,1.96,3.65Z"/>
    <path class="cls-1" d="M666.05,374.73c-18.43,2.14-36.97,3.39-55.52,3.73-18.55.34-37.12-.23-55.62-1.7-8.65-.69-17.28-1.58-25.88-2.67-.23-.18-.52-.29-.89-.3-.55-.01-1.11-.02-1.66-.03-.95-.12-1.91-.24-2.86-.37-.49-.07-.96.04-1.32.31-11.92-.06-23.84.58-35.69,1.93-1.9.22-1.92,3.22,0,3,13.24-1.51,26.56-2.13,39.88-1.88,17.32,2.24,34.73,3.73,52.18,4.39,18.62.7,37.28.49,55.89-.63,10.53-.64,21.03-1.57,31.51-2.78,1.9-.22,1.92-3.22,0-3Z"/>
    <path class="cls-1" d="M563.57,352.59c-3.92-.2-7.84-.18-11.76.04.03-2.71-.23-5.42-.8-8.1-.4-1.89-3.29-1.09-2.89.8.52,2.48.75,5,.71,7.51-2.54.21-5.07.51-7.6.89-.81.12-1.24,1.13-1.05,1.85.23.86,1.05,1.17,1.85,1.05,2.19-.33,4.4-.59,6.6-.78-.17,1.6-.44,3.2-.84,4.77-.47,1.87,2.42,2.67,2.89.8.48-1.91.8-3.84.98-5.79,3.96-.23,7.94-.25,11.91-.04,1.93.1,1.92-2.9,0-3Z"/>
    <path class="cls-1" d="M608.79,362.43c-4.96.32-9.93.17-14.85-.47,5.04-5.25,8.73-11.72,10.68-18.75.2-.72-.25-1.71-1.05-1.85-3.58-.58-6.89,1.29-8.28,4.62-.32.75.34,1.64,1.05,1.85.86.25,1.53-.3,1.85-1.05.5-1.19,1.65-2.08,2.92-2.41-2.24,6.73-6.17,12.78-11.43,17.56-.79.71-.45,2.32.66,2.51,6.1,1.03,12.28,1.39,18.45.99,1.92-.12,1.93-3.12,0-3Z"/>
    <path class="cls-1" d="M643.32,350.2c-1.41-.23-2.82-.38-4.23-.49.22-3.16.43-6.33.65-9.49.13-1.93-2.87-1.92-3,0-.21,3.12-.42,6.23-.64,9.35-1.83-.03-3.66.02-5.49.2-.81.08-1.5.63-1.5,1.5,0,.75.69,1.58,1.5,1.5,1.76-.17,3.52-.24,5.28-.21-.06.87-.12,1.75-.18,2.62-.14,2.07-.09,4.25-.55,6.27-.26,1.13-.74,2.96-2.16,2.99-1.93.03-1.93,3.03,0,3,4.72-.09,5.27-5.76,5.52-9.32.12-1.81.25-3.62.37-5.43,1.22.09,2.43.22,3.63.42.8.13,1.61-.21,1.85-1.05.2-.72-.24-1.71-1.05-1.85Z"/>
    <path class="cls-1" d="M672.16,359c-3.88.25-7.76.49-11.64.74,2.52-2.33,4.37-5.37,5.28-8.75.71-2.65.82-5.44.25-8.12-.14-.68-.27-1.55-.76-2.07-.49-.52-1.3-.87-1.97-1.08-1.46-.46-3.1-.29-4.46.38-3.08,1.52-3.97,5.84-1.92,8.54.49.65,1.29.97,2.05.54.64-.36,1.03-1.41.54-2.05-.86-1.14-1.03-2.81.05-3.89.91-.92,2.26-.94,3.35-.4,1.76,6.73-1.82,14.62-8.35,17.32-.69.29-1.19.85-1.07,1.65.1.69.72,1.35,1.47,1.3,5.72-.36,11.45-.72,17.17-1.09,1.92-.12,1.93-3.12,0-3Z"/>
    <path class="cls-1" d="M584.95,412.01c-.28-.63-.68-1.19-1.19-1.66-.44-.4-1.46-.86-1.72-1.42,0,.01-.31.21.1-.08.28-.2.56-.43.81-.66.56-.5,1-1.14,1.21-1.86.88-2.96-1.92-5.61-4.42-6.59-1.83-.71-3.73-.44-5.61-.13-1.94.32-4.19.93-6.08.09-.75-.33-1.6-.21-2.05.54-.38.64-.2,1.72.54,2.05,3.25,1.44,6.35.35,9.7.03,1.34-.13,2.49.04,3.61.83.63.45,1.57,1.31,1.48,2.17-.04.37-.31.58-.59.82-.53.46-1.06.82-1.41,1.46-.74,1.37-.11,2.82.96,3.78.83.75,1.92,1.24,2.13,2.45.19,1.07-.2,2.22-.81,3.09-1.95,2.81-6.26,2.57-9.26,2.5-1.93-.04-1.93,2.96,0,3,3.55.08,7.55.04,10.43-2.37,2.24-1.87,3.41-5.31,2.18-8.06Z"/>
    <path class="cls-1" d="M705.08,399.58c-.5-5.18-1.03-10.35-1.59-15.53-1.15-10.48-2.43-20.94-3.85-31.38-.7-5.15-1.44-10.31-2.2-15.45-.62-4.15-.99-8.9-4.02-12.11-4.87-5.14-14.77-3.78-17.88,2.63-.84,1.73,1.75,3.25,2.59,1.51,2.25-4.64,9.43-5.84,13.07-2.12,2.71,2.77,2.85,7.52,3.38,11.13.69,4.66,1.36,9.32,2,13.98,1.29,9.44,2.47,18.89,3.53,28.36.53,4.76,1.04,9.52,1.52,14.29.24,2.38.47,4.77.69,7.15.17,1.81.49,3.8-.04,5.58-.62,2.06-2.58,2.71-4.5,3.11-2.53.53-5.12.85-7.69,1.08-5.18.45-10.39.37-15.56-.2-1.92-.21-1.9,2.79,0,3,5.09.56,10.22.64,15.32.22,2.52-.21,5.04-.54,7.53-.98,1.97-.35,3.99-.8,5.58-2.07,3.64-2.9,2.51-8.2,2.12-12.2Z"/>
    <path class="cls-1" d="M615.08,310.49c-4.74-.15-9.54,1.56-13.01,4.81-3.04,2.84-5.53,7.69-10.4,6.89-3.96-.65-7.9-4.57-7.03-8.81.33-1.59-1.89-2.72-2.74-1.16-2.51,4.62-5.32,10.02-10.43,12.19-2.21.94-4.84,1.29-7.14.43-2.66-.99-4-3.64-5.85-5.6-3.45-3.65-8.52-4.54-13.34-4.1-5.81.54-11.45,2.45-17.04,3.99-7.35,2.01-14.7,4.03-22.05,6.04-1.86.51-1.07,3.4.8,2.89,6.71-1.84,13.42-3.68,20.13-5.52,3.36-.92,6.71-1.85,10.07-2.76,2.53-.69,5.11-1.34,7.72-1.61,2.5-.26,5.07-.25,7.47.54,2.61.86,4.25,2.73,5.92,4.81,1.7,2.13,3.68,3.89,6.41,4.5,2.56.58,5.28.24,7.7-.73,4.47-1.79,7.47-5.51,9.91-9.52,2.19,5.8,9.65,9.71,15.38,6.12,2.16-1.35,3.7-3.39,5.4-5.24,1.64-1.8,3.55-3.25,5.84-4.13,4.34-1.67,9.37-1.41,13.35,1.06,4.61,2.86,7.34,8.21,7.13,13.6-.08,1.93,2.92,1.93,3,0,.4-9.76-7.41-18.4-17.2-18.72Z"/>
    <path class="cls-1" d="M597.68,294.76c-2.08.09-4.16.12-6.23.07-1.01-.02-2.01-.06-3.01-.12-.68-.04-1.44-.05-2.07-.34-1.36-.61.14-1.93.75-2.53,1.04-1.02,2.17-1.95,2.84-3.28,2.66-5.29-1.26-12.27-7.44-11.61-3.29.35-6.27,2.56-7.18,5.81-.52,1.86,2.37,2.66,2.89.8.63-2.24,2.91-3.69,5.19-3.65,2.41.03,4.08,2.01,4.37,4.3.13,1.08-.04,2.23-.59,3.18-.66,1.14-1.83,1.92-2.72,2.86-.93,1-1.76,2.21-1.69,3.63.08,1.6,1.23,2.79,2.67,3.34,1.67.63,3.65.54,5.4.59,2.28.07,4.56.05,6.84-.05,1.92-.08,1.93-3.08,0-3Z"/>
    <path class="cls-1" d="M733.93,364.33c-1.62-1.12-3.45-1.9-5.36-2.35l1.51-11.97c.24-1.91-2.76-1.89-3,0-.48,3.84-.97,7.69-1.46,11.53-1.72-.09-3.46.09-5.13.56-1.86.52-1.07,3.41.8,2.89,1.3-.36,2.63-.5,3.96-.45-.67,5.31-1.34,10.63-2.01,15.94-.24,1.91,2.76,1.89,3,0l1.96-15.5c1.49.4,2.92,1.04,4.22,1.94.67.46,1.67.12,2.05-.54.44-.75.13-1.59-.54-2.05Z"/>
    <path class="cls-1" d="M797.29,417.73c-11.27,1.56-22.7,2-34.06,1.34-2.61-.15-5.28-.26-7.87-.65-2.11-.32-4.09-1.13-4.36-3.5-.26-2.25.62-4.57,1.21-6.7.75-2.73,1.48-5.46,2.19-8.2,5.66-21.74,10.13-43.8,13.39-66.03.45-3.09.88-6.19,1.29-9.28.14-1.09.06-3.08.91-3.9.78-.75,2.33-.36,3.27-.2,6.42,1.13,12.83,2.28,19.25,3.42,1.89.34,2.7-2.55.8-2.89-6.17-1.1-12.34-2.2-18.52-3.29-2.24-.4-4.91-.98-6.78.73-1.86,1.7-1.75,4.8-2.05,7.1-1.61,12.04-3.58,24.04-5.91,35.96-2.33,11.98-5.02,23.89-8.05,35.71-.74,2.9-1.51,5.79-2.29,8.67-.68,2.51-1.58,5.05-1.72,7.67-.12,2.32.6,4.62,2.5,6.06,1.91,1.45,4.38,1.65,6.69,1.87,13.63,1.27,27.36.89,40.92-.99,1.9-.26,1.09-3.16-.8-2.89Z"/>
    <path class="cls-1" d="M808.77,334.3c-.12-1.1-1.19-1.91-2.26-1.3-7.88,4.56-15.37,9.73-22.46,15.45-1.5,1.21.63,3.32,2.12,2.12,6.26-5.05,12.9-9.61,19.8-13.74.25,4.29-.1,8.57-1.08,12.77-.44,1.88,2.45,2.68,2.89.8,1.23-5.28,1.59-10.71.98-16.1Z"/>
    <path class="cls-1" d="M963.46,353.87c-21.23,2.05-42.47,3.92-63.72,5.63-21.17,1.7-42.36,3.23-63.56,4.58-7.1.45-14.2.88-21.31,1.3-.19-.47-.63-.81-1.31-.73-10.95,1.16-21.97,1.41-32.96.77-1.93-.11-1.92,2.89,0,3,6.11.36,12.23.43,18.34.23.23.36.63.61,1.21.58,21.29-1.17,42.57-2.51,63.84-4.02,21.19-1.51,42.36-3.18,63.52-5.03,11.99-1.05,23.97-2.15,35.94-3.3,1.9-.18,1.92-3.19,0-3Z"/>
    <path class="cls-1" d="M848.89,340.06c-2.37-.09-4.73.13-7.03.63v-10.24c0-1.93-3-1.93-3,0v11.06c-1.14.38-2.27.83-3.36,1.35-.73.35-.92,1.39-.54,2.05.44.75,1.32.89,2.05.54.6-.29,1.22-.54,1.85-.78v6.5c0,1.93,3,1.93,3,0v-7.42c2.29-.55,4.66-.79,7.03-.7,1.93.08,1.93-2.92,0-3Z"/>
    <path class="cls-1" d="M891.26,323.21c-.14-1.3-1.53-1.96-2.56-1.06-7.81,6.87-14.81,14.57-20.95,22.96-1.14,1.56,1.46,3.06,2.59,1.51,5.38-7.34,11.49-14.13,18.19-20.28.47,5.82.57,11.67.23,17.51-.11,1.93,2.89,1.92,3,0,.39-6.88.23-13.78-.5-20.64Z"/>
    <path class="cls-1" d="M924.51,337.48h-13.41c-1.93,0-1.93,3,0,3h13.41c1.93,0,1.93-3,0-3Z"/>
    <path class="cls-1" d="M967.29,323.44c-.02-1.25-1.66-2.05-2.56-1.06-5.74,6.29-11.49,12.59-17.23,18.88-1.3,1.42.82,3.55,2.12,2.12,4.91-5.38,9.81-10.76,14.72-16.13.06,4.72.13,9.44.19,14.17.03,1.93,3.03,1.93,3,0-.08-5.99-.16-11.99-.24-17.98Z"/>
    <path class="cls-1" d="M878.32,400.11c-.33-1.28-1.44-2.16-2.59-2.68-1.49-.69-3.14-1.07-4.71-1.55-.78-.24-1.56-.48-2.34-.72,2.79-1.92,5.16-4.41,6.98-7.3.66-1.05-.23-2.14-1.3-2.26-5.94-.63-11.92-.83-17.88-.57-1.9.08-4.98.57-4.65,3.2.27,2.11,2.98,3.03,4.22,1.2.34-.5.32-.99.1-1.38.73-.04,1.46-.06,2.19-.08,1.78-.05,3.57-.06,5.35-.03,2.65.05,5.3.18,7.94.41-2,2.49-4.5,4.5-7.38,5.95-1.21.6-.8,2.38.36,2.74,2.67.82,5.33,1.65,8,2.47.53.16,2.58.54,2.77,1.26.16.6-1.54,1.58-1.99,1.88-3.85,2.59-8.66,3.63-13.23,2.75-1.89-.36-2.69,2.53-.8,2.89,6.12,1.17,12.54-.38,17.33-4.4,1.12-.94,2.03-2.25,1.64-3.78Z"/>
    <path class="cls-1" d="M1004.58,380.08c-1.05-4.42-3.55-8.31-5.86-12.15-2.37-3.94-4.32-7.99-5.61-12.41-2.65-9.05-2.89-18.59-2.6-27.94.08-2.62.21-5.23.35-7.84.12-2.28.12-4.77-2.24-5.91-2.27-1.09-5.45-1.04-7.9-.92-2.82.14-5.59.71-8.24,1.67-1.8.66-1.02,3.56.8,2.89,4.11-1.5,9.18-2.33,13.49-1.14,1.06.29,1.18.96,1.17,1.98-.02,1.05-.11,2.11-.16,3.16-.11,2.18-.21,4.36-.27,6.55-.25,8.63,0,17.4,2.06,25.83,1.01,4.14,2.49,8.18,4.48,11.95,1.97,3.72,4.45,7.15,6.22,10.98,1.7,3.67,2.34,7.65,1.4,11.62-.91,3.82-2.97,7.31-5.62,10.18-6.64,7.21-16.49,10.09-25.58,12.82-1.85.55-1.06,3.45.8,2.89,8.77-2.62,17.97-5.41,24.93-11.64,6.24-5.58,10.39-14.11,8.39-22.55Z"/>
    <path class="cls-1" d="M967.13,304.3c-5.05-3.67-11.46-4.4-17.53-4.45-7.07-.06-14.17.37-21.21,1.04-14.36,1.37-28.61,4.04-42.48,8.01-1.9.54-3.79,1.12-5.69,1.71-1.89.58-3.86,1.21-5.86,1.13-1.57-.06-2.96-.59-3.91-1.89-.73-1.01-1-2.2-.3-3.28.94-1.43-1.19-3.04-2.36-1.82-6.26,6.56-14.06,14.6-24.04,12.9-2.04-.35-4.05-1.08-5.7-2.34-1.72-1.31-2.46-3.11-3.73-4.77-1.53-1.99-3.82-2.42-6.2-2.16-2.81.3-5.61.79-8.37,1.34-6.45,1.29-12.78,3.16-18.91,5.55-1.78.69-1.01,3.6.8,2.89,5.55-2.16,11.25-3.9,17.07-5.17,2.93-.64,5.89-1.18,8.86-1.55,1.05-.13,2.29-.35,3.31.05,1.16.45,1.63,1.78,2.25,2.77,4.96,7.89,15.93,7.88,23.38,3.94,4.02-2.13,7.41-5.19,10.6-8.41.3.86.78,1.68,1.39,2.38,2.15,2.47,5.45,2.85,8.52,2.35,3.68-.6,7.26-2.05,10.85-3.06,3.67-1.03,7.37-1.97,11.08-2.82,14.89-3.4,30.11-5.33,45.38-5.73,7.21-.19,15.18-.46,21.3,3.98,1.56,1.14,3.06-1.47,1.51-2.59Z"/>
    <g>
      <path class="cls-1" d="M870.35,281.84s-.01,0-.02-.01c0,0,.02.03.06.06,0,0,0,0,0,0-.02-.01-.03-.03-.04-.04Z"/>
      <polygon class="cls-1" points="870.41 281.9 870.41 281.9 870.4 281.89 870.4 281.89 870.41 281.9"/>
      <path class="cls-1" d="M873.97,288.99s-.17-.09-.23-.13c-.02-.02-.05-.05-.09-.09,0-.02-.12-.17-.16-.24-.02-.06-.05-.15-.06-.17-.03-.13-.07-.27-.1-.4,0-.01,0-.01,0-.02,0-.05-.01-.09-.01-.14-.02-.36-.03-.71-.02-1.07.04-1.37.31-2.74.25-4.11-.07-1.55-.65-3.03-2.2-3.61-2.52-.95-4.58,1.34-6.29,2.84-2.42,2.12-4.83,4.23-7.25,6.35-.61.53-.55,1.58,0,2.12.6.6,1.51.54,2.12,0,1.99-1.74,3.98-3.49,5.97-5.23.98-.86,1.95-1.73,2.94-2.58.32-.27.69-.57,1.09-.69.05-.02.34-.03.19-.05.04,0,.1.02.17.03,0,0,.03.01.04.02,0,0,0-.01,0,0,0,0,.01.01.02.02.02,0,.02.01.04.02,0,0,0,.01,0,.02,0,0,0,0,0,0,0,0,0-.01,0-.02,0,0,.01.02.02.03,0,0,.01.01.02.02,0,0,0,0-.02-.01.03.07.05.16,0,0,0,0,0,0,0,0,.04.11.07.22.1.33.01.04.02.09.02.13,0,.13.02.26.02.39,0,.3,0,.6-.02.91-.07,1.3-.29,2.59-.23,3.89.08,1.61.62,3.26,2.16,4.03.72.36,1.62.19,2.05-.54.39-.66.19-1.69-.54-2.05Z"/>
    </g>
    <path class="cls-1" d="M72.87,512.42c-2.63-3.67-7.22-3.6-11.29-3.16-1.08.12-5.24,1.15-5.22-.69,0-.97.59-2.02.98-2.88.45-1,.95-1.98,1.48-2.94,2.15-3.87,4.92-7.32,8.19-10.29,1.43-1.3-.69-3.42-2.12-2.12-3.25,2.95-6.05,6.39-8.26,10.18-1.03,1.77-1.94,3.63-2.69,5.54-.7,1.79-.98,3.97.56,5.43,1.52,1.43,3.84,1.13,5.72.93,2.22-.23,4.53-.64,6.75-.26,1.75.3,3.16,1.16,3.93,2.8.49,1.03.75,2.58-.33,3.35-1.56,1.11-.06,3.71,1.51,2.59,2.86-2.04,2.71-5.79.79-8.47Z"/>
    <path class="cls-1" d="M80.57,524.63c-11.78.66-23.58.72-35.36.18-1.93-.09-1.93,2.91,0,3,11.78.54,23.59.48,35.36-.18,1.92-.11,1.93-3.11,0-3Z"/>
    <path class="cls-1" d="M67.6,552.29c1.62-2.71.98-6.7-1.81-8.45-3.34-2.09-7.94-.14-9.14,3.47-.61,1.84,2.29,2.62,2.89.8.59-1.78,3.14-2.78,4.74-1.68,1.78,1.23,1.48,3.97-.07,5.21-.73.59-.5,1.95.3,2.36,3.03,1.52,8.87,5.49,4.54,8.91-3.9,3.07-9.16,4.82-14.04,5.37-1.9.21-1.92,3.22,0,3,3.27-.37,6.43-1.14,9.47-2.42,2.71-1.14,5.93-2.62,7.82-4.95,3.67-4.54-.67-9.12-4.7-11.62Z"/>
    <path class="cls-1" d="M117.19,524.05c-2.37.2-4.72.54-7.03,1.04v-10.49c0-1.93-3-1.93-3,0v11.23c-1.36.37-2.7.79-4.03,1.27-.76.28-1.27,1.02-1.05,1.85.2.73,1.08,1.33,1.85,1.05,1.07-.39,2.14-.74,3.23-1.06v14.93c0,1.93,3,1.93,3,0v-15.71c2.31-.53,4.66-.91,7.03-1.1.81-.07,1.5-.64,1.5-1.5,0-.76-.69-1.57-1.5-1.5Z"/>
    <path class="cls-1" d="M151.76,513.98c-7.49,6.26-14.98,12.51-22.46,18.76-1.48,1.24.65,3.35,2.12,2.12,6.62-5.53,13.23-11.06,19.85-16.58-.07,4.46-.14,8.92-.21,13.38-.03,1.93,2.97,1.93,3,0,.09-5.54.18-11.08.27-16.62.02-1.39-1.61-1.85-2.56-1.06Z"/>
    <path class="cls-1" d="M190.6,508.16c-.23-.84-1.04-1.19-1.85-1.05-4.87.87-9.73,1.75-14.6,2.62-.8.14-1.25,1.12-1.05,1.85.23.84,1.04,1.19,1.85,1.05,4.87-.87,9.73-1.75,14.6-2.62.8-.14,1.25-1.12,1.05-1.85Z"/>
    <path class="cls-1" d="M186.7,517.97h-9.76c-.78,0-1.54.69-1.5,1.5.04.81.66,1.5,1.5,1.5h9.76c.78,0,1.54-.69,1.5-1.5-.04-.81-.66-1.5-1.5-1.5Z"/>
    <path class="cls-1" d="M1316.99,395.08c-.04.83-.07,1.67-.11,2.5-9.07.3-18.14.59-27.22.89,1.16-.77,2.27-1.6,3.31-2.47,5.12-4.28,9.68-9.95,11.07-16.62,1.19-5.69-.25-12.05-4.38-16.27-4.29-4.39-11.04-5.2-16.35-2.2-6.36,3.59-8.39,11.98-4.92,18.28.93,1.69,3.52.18,2.59-1.51-2.5-4.55-1.33-10.78,3.09-13.72,4.12-2.74,9.65-2.45,13.24,1.04,3.47,3.37,4.81,8.7,3.88,13.39-1.1,5.56-4.6,10.25-8.69,14.03-2.75,2.55-6.17,5.06-9.87,6.28-2.7.09-5.4.18-8.1.26-1.67.05-2.06,2.48-.4,2.95,3.03.86,6.04.65,8.9-.22,11.75-.38,23.51-.77,35.26-1.15.84-.03,1.46-.67,1.5-1.5l.17-3.96c.08-1.93-2.92-1.93-3,0Z"/>
    <path class="cls-1" d="M1362.21,363.02c-1.35-3.43-4.13-6.07-7.15-8.08-6.28-4.18-15.75-7.34-22.28-2-2.99,2.45-4.24,6.14-3.26,9.89.57,2.17,1.68,4.18,2.63,6.19.94,2,1.86,4.01,2.73,6.04,1.76,4.1,3.32,8.32,4.49,12.63,1.06,5.65,1.77,11.38,2.09,17.12.11,1.92,2.91,1.94,3,0,.28-6.09-.62-12.14-2.23-18-1.92-9.99-4.95-19.76-9.05-29.11-.08-.17-.17-.3-.28-.42,1.08-1.89,3.14-3.25,5.19-3.82,3.75-1.04,7.81.23,11.23,1.78,4.99,2.26,12.33,7.18,10.2,13.68-1.91,5.84-10.28,6.92-15.44,7.33-1.91.15-1.93,3.15,0,3,5.98-.47,13.4-1.66,17.1-6.98,1.86-2.67,2.19-6.24,1.01-9.25Z"/>
    <path class="cls-1" d="M1860.53,453.98c-120.24-16.53-241.66-23.13-362.99-21.78-122.06,1.36-243.96,10.61-365.11,25.3-120.57,14.62-240.23,35.18-359.63,57.24-119.65,22.11-239.19,45.16-359.68,62.32-121.39,17.29-243.96,28.52-366.68,26.35-15-.27-30-.75-44.99-1.41-1.93-.08-1.93,2.92,0,3,120.99,5.32,242.08-2.95,362.1-18.24,119.6-15.24,238.2-37.21,356.69-59.23,119.71-22.25,239.48-44.22,360.2-60.39,121.53-16.29,243.83-27.41,366.43-30.93,121.73-3.49,243.77.56,364.77,14.56,16.05,1.86,32.08,3.9,48.09,6.1,1.89.26,2.7-2.63.8-2.89Z"/>
    <path class="cls-1" d="M65.01,652.5c-3.41-1.03-6.94.24-9.49,2.59-2.81,2.58-3.97,6.3-4.4,9.99-.5,4.28-.19,8.7.08,12.98.28,4.47.75,8.93,1.39,13.37.66,4.52,1.51,9.01,2.55,13.46.95,4.07,1.99,8.13,2.65,12.26,1.25,7.72.79,15.96-4.57,22.11-2.57,2.95-5.81,5.19-9.32,6.89-1.73.84-3.53,1.53-5.37,2.1-.95.3-1.9.56-2.87.79-.48.12-.96.23-1.44.33-.19.04-.39.06-.57.11-.05-.02-.09-.02-.14-.03.47-1.08-.3-2.61-1.66-2.07-1.58.63-2.2,2.42-1.2,3.89,1.2,1.74,3.54,1.19,5.26.79,3.69-.85,7.3-2.14,10.65-3.91,6.7-3.54,12.15-9.27,14-16.76,2.15-8.7-.3-17.74-2.3-26.22-2.21-9.39-3.66-18.92-4.17-28.55-.26-4.9-.8-10.31.78-15.04,1.26-3.78,5.04-7.47,9.32-6.18,1.85.56,2.64-2.33.8-2.89Z"/>
    <path class="cls-1" d="M104.54,631.05l-25.62,3.62c-1.72.24-1.22,2.62.28,2.88-.01.07-.02.14-.03.21l-.12,5.16c-.04,1.62-.15,3.26-.11,4.88.04,1.58.79,3.35,2.61,3.4,1.75.05,3.03-1.7,2.22-3.29-.33-.65-1.18-.88-1.83-.64,0-.87.04-1.73.06-2.6.06-2.3.11-4.61.17-6.91,0-.2-.03-.38-.08-.53,7.75-1.09,15.49-2.19,23.24-3.28,1.9-.27,1.09-3.16-.8-2.89Z"/>
    <path class="cls-1" d="M93.41,636.68c-1-1.65-3.59-.15-2.59,1.51,2.27,3.76,2.8,8.32,1.5,12.51-.58,1.85,2.32,2.64,2.89.8,1.53-4.92.86-10.41-1.8-14.82Z"/>
    <path class="cls-1" d="M113.53,653.37c-12.43-.66-24.92.62-36.96,3.74-1.87.48-1.08,3.38.8,2.89,11.8-3.06,23.99-4.28,36.17-3.64,1.93.1,1.92-2.9,0-3Z"/>
    <path class="cls-1" d="M104.99,678.91c-2.95.04-5.91.15-8.86.12-.96,0-1.62-.13-1.67-1.18-.05-1.22.41-2.46.66-3.63.55-2.51.79-5.14-.49-7.47-1.07-1.95-3.29-3.42-5.57-2.82-2.53.67-4.22,3.43-2.99,5.88.87,1.72,3.46.21,2.59-1.51-.3-.59.59-1.29,1.09-1.44.82-.25,1.58.36,2.04,1,1.67,2.35.39,5.48-.1,8-.24,1.22-.37,2.51.08,3.69.57,1.49,1.88,2.26,3.42,2.44,1.48.17,3.02.03,4.52.01,1.76-.03,3.52-.05,5.28-.08,1.93-.03,1.93-3.03,0-3Z"/>
    <path class="cls-1" d="M77.48,737.39c-.13-.02-.27,0-.4,0-.21-.6-.54-1.17-.98-1.67-1.5-1.69-3.78-2.05-5.78-1.07-4.05,1.98-4.78,7.74-3.59,11.61,1.35,4.36,5.37,7.64,10.07,7.19,2.09-.2,4.17-1.06,5.5-2.74,1.11-1.39,1.65-3.12,1.64-4.89-.02-3.76-2.5-7.85-6.46-8.43ZM80.65,747.61c-.09.27-.42.92-.58,1.11-.43.54-.96.95-1.58,1.25-2.68,1.3-6.06.16-7.73-2.19-1.71-2.4-2.17-6.02-.75-8.66.6-1.11,1.84-2.37,3.02-1.97.49.17.94.59,1.21,1.12.21.42.22.66-.02.92-1.31,1.41.8,3.54,2.12,2.12.28-.3.48-.63.64-.97.46.09.86.22,1.15.38.59.31.81.49,1.28,1.02.27.29.58.76.84,1.27.25.49.39.89.53,1.54.22,1,.21,2.01-.14,3.06Z"/>
    <path class="cls-1" d="M158.15,729.24c-.14-.57-.27-1.14-.41-1.71-.38-1.61-2.55-1.25-2.89.06-9.11-2.85-16.16-10.51-19.68-19.29-4.83-12.06-3.36-25.71.02-37.94.9-3.26,1.99-6.68,4.22-9.29,1.92-2.26,4.89-4.07,7.96-3.66.81.11,1.6-.19,1.85-1.05.2-.7-.25-1.74-1.05-1.85-6.75-.91-11.77,4.18-14.18,9.98-1.33,3.2-2.17,6.61-2.92,9.99-.81,3.62-1.4,7.29-1.72,10.98-1.12,12.92,1.69,26.3,10.69,36.04,4.35,4.7,9.98,8.22,16.27,9.58,1.13.24,2.12-.7,1.85-1.85Z"/>
    <path class="cls-1" d="M203.02,692.61c-1.72-2.77-3.92-5.98-7.47-6.33-1.33-.13-2.7.2-3.82.89-.64-2.32-1.88-4.45-4.35-4.95-1.79-.36-3.71.33-4.85,1.58-2.2-5.19-7.22-8.96-12.91-9.24-1.93-.1-1.92,2.9,0,3,5.55.28,10.62,5.15,10.98,10.74.08,1.18.06,2.78-.84,3.69-1.2,1.21-3.16-.07-4.33-.7-2.47-1.33-4.96-2.2-7.81-1.96-1.75.15-3.53.66-5.17,1.47-2.28-3.45-5.75-6.34-8.79-8.64-.51-.39-1.4-.21-1.82.23l-6.42,6.75c-1.33,1.4.79,3.52,2.12,2.12,1.84-1.94,3.68-3.87,5.53-5.81,2.41,1.87,5.11,4.2,6.89,6.92-2.15,1.7-3.73,4.03-4.09,6.82-.38,2.9,1.48,6.06,4.71,5.93,3.21-.14,4.32-4.02,4.36-6.66.03-1.79-.37-3.47-1.05-5.05,1.66-.81,3.5-1.21,5.36-1.1,2.73.15,4.71,1.88,7.19,2.76,2.71.97,5.46-.03,6.59-2.74.49-1.17.66-2.47.62-3.77.1-.03.19-.07.28-.12.77-.45.86-1.31.54-2.05-.12-.27.32-.72.75-.95.61-.33,1.38-.47,2-.11,1.82,1.04,2.03,3.92,2.18,5.76.16,1.9,2.96,1.96,3,0,.03-1.56,2.22-2.09,3.44-1.73,2.17.65,3.5,2.97,4.61,4.76,1.02,1.64,3.61.13,2.59-1.51ZM161.15,701.56c-.88,1.27-2.2.05-2.36-1.09-.28-1.94,1.04-3.96,2.54-5.35.32.9.53,1.84.57,2.81.05,1.15-.07,2.65-.75,3.63Z"/>
    <path class="cls-1" d="M225.87,690.98c-2.81-.74-5.43-1.99-7.76-3.66,2.25-1.64,4.68-3.04,7.24-4.14.74-.32.91-1.41.54-2.05-.45-.77-1.3-.86-2.05-.54-2.91,1.25-5.63,2.88-8.12,4.79-.8-.75-1.57-1.54-2.27-2.39-.51-.63-1.59-.53-2.12,0-.62.62-.52,1.49,0,2.12.64.78,1.33,1.5,2.06,2.2-1.87,1.68-3.59,3.55-5.13,5.57-.49.64-.1,1.68.54,2.05.77.45,1.56.11,2.05-.54,1.42-1.87,3.04-3.58,4.8-5.12,2.8,2.13,6.01,3.72,9.42,4.61,1.87.49,2.67-2.4.8-2.89Z"/>
    <path class="cls-1" d="M273.31,678.21c-4.99.64-9.99,1.23-14.98,1.89-.88-3.69-1.77-7.39-2.65-11.08-.45-1.88-3.34-1.08-2.89.8.85,3.56,1.7,7.12,2.55,10.69-.11.02-.22.03-.33.04-2.22.31-4.69,1.05-5.73,3.24-.9,1.89-.54,4.34,1.39,5.42,1.69.94,3.2-1.65,1.51-2.59-1.15-.64.17-2.14.88-2.49.89-.44,1.91-.65,2.96-.79.46,1.92.92,3.83,1.37,5.75.3,1.24.46,2.68,1.24,3.73.69.93,2,1.5,3.08.84,1.72-1.05,1.01-4.44-1.08-3.95-.24-.99-.47-1.98-.71-2.97-.3-1.24-.59-2.47-.89-3.71.05,0,.1-.01.15-.02,4.71-.6,9.42-1.2,14.13-1.8.81-.1,1.49-.62,1.5-1.5,0-.73-.7-1.6-1.5-1.5Z"/>
    <path class="cls-1" d="M342.17,683.56c-.8-4.43-4.64-7.91-8.6-9.65-2.26-.99-4.69-1.49-7.14-1.03-2.32.44-4.24,1.9-5.92,3.49-.49.47-.98.96-1.48,1.45-2.31-3.13-7.4-5.27-10.55-1.97-1.47,1.54-1.33,3.86-.26,5.57,1.18,1.9,3.26,2.94,5.48,2.75,1.52-.13,2.9-.72,4.17-1.53.37,2.41-.61,4.8-2.94,6.14-3.1,1.78-7.44,1.28-10.18-.97-.68-.56-1.27-1.22-1.76-1.96.16-.11.33-.21.48-.33.65-.48.98-1.3.54-2.05-.37-.64-1.4-1.02-2.05-.54-.08.06-.17.12-.25.18-.77-2.57-.55-5.44,1.02-7.65,2.42-3.41,7.56-4.29,10.9-1.8,1.55,1.16,3.05-1.45,1.51-2.59-3.52-2.63-8.67-2.35-12.21.1-3.91,2.7-5.33,7.52-4.28,12.06.1.44.24.88.38,1.31-3,1.15-6.47,1.16-9.21-.6-.8-.51-1.52-1.2-2.01-2.01-.41-.68-.69-1.57-.76-2.26-.18-1.82.26-3.52,1.27-5.05,1.04-1.56,2.54-2.42,4.42-2.23.81.08,1.5-.75,1.5-1.5,0-.88-.69-1.42-1.5-1.5-5.16-.51-8.67,4.75-8.72,9.41-.06,5.78,5.16,9.4,10.55,9.52,1.96.05,3.96-.32,5.8-1.06,1.64,2.53,4.15,4.43,7.17,5.18,4.06,1.02,8.83.07,11.56-3.29,1.96-2.41,2.31-5.67,1.38-8.55.05-.05.1-.09.15-.14,1.89-1.79,3.74-4.11,6.42-4.65,2.9-.59,6,.85,8.26,2.57,2.06,1.57,3.92,3.91,4.04,6.59.1,2.22-.94,4.93-3.27,5.59-2.09.6-4.46-.7-4.76-2.88-.27-1.9-3.16-1.09-2.89.8.54,3.89,5.2,6.08,8.74,4.89,3.96-1.33,5.72-5.94,5.02-9.8ZM310.47,679.21c-.56-1.84,1.88-2.17,3.19-1.84,1.33.33,2.38,1.29,3.11,2.42-.6.44-1.24.82-1.95,1.08-1.69.63-3.75.28-4.35-1.66Z"/>
    <path class="cls-1" d="M368.13,684.83c-.15-.02-.35-.07-.4-.08-.55-.16-1.04-.46-1.46-.84-1.16-1.06-2.27-2.19-3.38-3.32,1.89-1.86,4.01-3.49,6.34-4.83,1.67-.96.16-3.55-1.51-2.59-2.53,1.45-4.86,3.25-6.95,5.29-3.09-3.06-6.17-6.12-9.26-9.18-1.37-1.36-3.49.76-2.12,2.12,3.11,3.08,6.22,6.17,9.33,9.25-2.21,2.59-4.06,5.49-5.4,8.63-.32.74-.22,1.61.54,2.05.63.37,1.73.21,2.05-.54,1.25-2.92,2.93-5.62,4.95-8.02.15.15.31.3.46.45,1.6,1.59,3.1,3.52,5.29,4.3,1.73.62,3.91.24,4.37-1.81.41-1.84-2.36-2.65-2.86-.9Z"/>
    <path class="cls-1" d="M380.32,656.73c-3.31-4.75-7.15-9.11-10.99-13.43-.87-.98-2.58-.19-2.56,1.06l.13,8.04c.03,1.93,3.03,1.93,3,0-.02-1.33-.04-2.66-.07-3.99,9.69,11.19,19.78,24.99,14.87,40.4-.61,1.92-1.5,3.74-2.63,5.41-.5.74-1.08,1.63-1.8,2.18-.27.21-.65.25-.91.43.19-.13,0-.06-.17,0-.51-1.65-3.19-.85-2.84.98.37,1.93,2.43,2.37,4.06,1.83,1.98-.65,3.23-2.4,4.34-4.06,2.45-3.66,3.7-8.02,4.04-12.39.76-9.62-3.08-18.72-8.49-26.47Z"/>
    <path class="cls-1" d="M442.78,677.97c-4.05-.06-6.71-3.22-8.62-6.58,2.39-3.87,5.15-7.49,8.28-10.81,1.33-1.4-.79-3.53-2.12-2.12-2.87,3.04-5.46,6.33-7.74,9.83-.03-.06-.06-.12-.08-.17-.6-1.29-1.19-2.59-1.85-3.85-.6-1.16-1.3-2.45-2.66-2.82-2.97-.81-4.22,3.95-1,4.34.34.04.66-.09.91-.31,0,.01.02.03.02.04.53,1,1.01,2.02,1.48,3.05.42.91.85,1.82,1.3,2.73-.1.17-.19.34-.29.51-.54.05-1.04.37-1.24,1.04-.66,2.16-3.19,2.82-5.22,2.54-2.79-.39-4.63-2.61-5.69-5.08-1.38-3.2-1.74-6.84-2.16-10.26-.5-4.02-.83-8.06-1.02-12.1-.02-.37-.02-.73-.04-1.1,0-4.25.02-8.5.03-12.75,0-1.94-2.92-1.92-3,0-.18,4.14-.18,8.28-.03,12.41,0,3.27-.02,6.54-.02,9.81-.01,5.26.63,11.53-2.02,16.33-1.1,1.99-2.97,3.66-5.32,3.86-2.14.17-4.33-.74-5.86-2.22-1.66-1.61-2.51-3.92-1.72-6.17.75-2.12,2.78-3.98,5.06-4.24,2.29-.26,3.91,1.32,4.26,3.49.29,1.79-.3,3.97-2.21,4.53-1.85.54-1.06,3.43.8,2.89,5.24-1.53,5.85-9.15,1.94-12.42-5.37-4.49-13.26,1.48-13.16,7.63.1,6.07,6.73,10.62,12.47,9.27,5.2-1.22,7.38-6.21,8.23-11.12,1.35,5.11,4,9.92,9.89,10.26,1.37.08,2.74-.17,3.95-.71.61.77,1.87,1.01,2.41-.11.53-1.09,1.09-2.17,1.68-3.23.07.1.13.21.2.31,2.32,3.41,5.86,6.24,10.15,6.3,1.93.03,1.93-2.97,0-3Z"/>
    <path class="cls-1" d="M562.38,650.28c-7.31.87-14.68,1.04-22.02.5-1.93-.14-1.92,2.86,0,3,7.34.54,14.71.37,22.02-.5.81-.1,1.49-.62,1.5-1.5,0-.74-.7-1.6-1.5-1.5Z"/>
    <path class="cls-1" d="M587.87,658.57c-.11,3.05-3.21,5.19-6.09,5.18-3.44-.01-5.96-3.13-6.74-6.22-.91-3.58.52-7.33,2.8-10.09,2.53-3.06,6.3-5.76,10.44-5.37,1.92.18,1.91-2.82,0-3-4.16-.39-8.07,1.81-11,4.59-2.79,2.63-4.89,6.11-5.4,9.95-.91,6.84,4.64,14.72,12.16,12.86,3.68-.91,6.69-4.03,6.82-7.9.07-1.93-2.93-1.93-3,0Z"/>
    <path class="cls-1" d="M625.12,647.3c-2.77-1.94-6.33-2.25-9.65-2.01-.63-1.36-1.6-2.54-3.01-3.36-2.57-1.5-6.95-1.3-8.54,1.39-.79.07-1.58.29-2.34.62-3.28,1.41-5.63,4.68-6.14,8.2-1.1,7.58,7.33,13.25,14.15,10.2,3.73-1.67,5.94-5.67,6.61-9.56.25-1.46.31-3.04.1-4.56,3.26-.18,6.66.3,8.49,2.95.89,1.29,1.38,2.96,1.19,4.53-.08.65-.29,1.34-.7,1.86-.14.18-.3.33-.48.47-.13-.42-.43-.79-.95-.97-1.61-.56-3.08,1.13-2.7,2.69.46,1.9,2.68,2.06,4.19,1.42,2.58-1.09,3.8-3.86,3.66-6.55-.16-2.85-1.53-5.66-3.89-7.31ZM611.23,644.7c.4.28.74.63,1.02,1.02-1.09.2-2.19.4-3.29.48-.21-.81-.77-1.52-1.5-2.02,1.19-.55,2.73-.19,3.76.52ZM613.44,649.27c.23,3.45-1.04,7.57-3.94,9.68-2.44,1.77-5.78,1.5-8.24-.1-2.91-1.9-3.68-5.52-2.14-8.57.74-1.47,1.9-2.75,3.4-3.48.29-.14.61-.27.93-.37.36,1.24,1.41,2.17,2.73,2.55,1.87.54,3.78.09,5.64-.22.48-.08.99-.16,1.52-.24.04.25.07.5.09.75Z"/>
    <path class="cls-1" d="M652.9,650.13c-.23-.82-1.05-1.22-1.85-1.05-1.93.41-3.89.65-5.85.75-.38-2.38-.68-4.78-.87-7.2-.15-1.91-3.15-1.93-3,0,.19,2.43.47,4.84.85,7.24-1.42-.04-2.84-.14-4.25-.33-.8-.11-1.5.77-1.5,1.5,0,.9.69,1.39,1.5,1.5,1.59.21,3.18.31,4.77.33,1.12,5.93,2.8,11.74,5.06,17.35.71,1.77,3.61,1,2.89-.8-2.16-5.39-3.82-10.96-4.93-16.64,2.06-.13,4.1-.4,6.13-.83.79-.17,1.25-1.1,1.05-1.85Z"/>
    <path class="cls-1" d="M722.28,654.75c-.4-1.83-3.12-1.13-2.91.63-.14.04-.28.05-.44.06-.58.03-1.24-.15-1.71-.51-1.35-1.04-2.07-2.67-3.57-3.61-1.51-.94-3.29-.96-4.7.17-.51.41-.9.91-1.28,1.44-.51-3.09-2.14-6.43-5.34-6.07-1.78.2-3.42,1.37-4.51,2.75-.23.29-.49.69-.78,1.11,0-.09-.01-.17-.02-.26-.29-1.9-3.18-1.09-2.89.8.06.38-.59.73-.84.83-.65.26-1.32.1-1.96-.09-1.28-.38-2.46-1.05-3.77-1.37-2.28-.56-4.72-.43-6.95.29-.11.04-.22.08-.33.12-1.52-6.43-8.93-9.2-14.46-11.11-.75-.26-1.66.3-1.85,1.05-.53,2.16-1.74,4.04-3.58,5.32-1.57,1.1-.07,3.7,1.51,2.59,2.04-1.42,3.57-3.33,4.46-5.59,4.15,1.46,9.2,3.49,10.79,7.77.15.4.25.84.32,1.3-2.98,1.82-5.28,4.71-6.06,8.17-.22.97.44,1.86,1.45,1.9,4.62.18,7.32-4.07,7.64-8.28,1.25-.53,2.59-.85,3.96-.87,2.77-.04,5.02,1.7,7.7,1.91.16.32.46.59.93.7,1.69.4,3.17-.14,4.45-1.26,1.22-1.06,1.93-2.55,3.08-3.67.47-.46,1.07-.9,1.72-1.07.73-.19.9.08,1.29.7,1.03,1.64,1.37,3.48,1.18,5.39-.07.76.75,1.56,1.5,1.5,2.2-.19,2.85-1.82,4.15-3.3,1.5-1.71,3.34,1.45,4.27,2.47,1.21,1.34,3.1,1.97,4.88,1.72,1.89-.27,3.09-1.7,2.67-3.62ZM675.37,658.65c.42-.73.93-1.4,1.51-2-.36.8-.86,1.5-1.51,2Z"/>
    <path class="cls-1" d="M687.92,631.38c-1.93,0-1.93,3,0,3s1.93-3,0-3Z"/>
    <path class="cls-1" d="M44.03,873.96c-7.5.42-15.02.32-22.5-.37-1.17-.11-2.64-.17-3.63-.91-1.2-.91-.86-2.69-.64-3.97.64-3.76,1.33-7.51,1.99-11.26,2.62-14.85,5.25-29.69,7.87-44.54l1.12-6.36c.1-.56.11-2.17.6-2.54.49-.36,2.02.07,2.58.13,4.18.45,8.35.9,12.53,1.35,1.92.21,1.9-2.8,0-3-4.02-.43-8.03-.86-12.05-1.29-1.65-.18-3.68-.68-5.06.53-1.3,1.14-1.34,3.17-1.62,4.75-1.46,8.24-2.91,16.48-4.37,24.72-1.46,8.24-2.91,16.48-4.37,24.72-.72,4.06-1.47,8.11-2.15,12.18-.55,3.25-.15,6.45,3.28,7.78,1.68.65,3.59.69,5.37.84,2.28.18,4.56.32,6.84.4,4.73.17,9.47.11,14.19-.16,1.92-.11,1.93-3.11,0-3Z"/>
    <path class="cls-1" d="M44.01,833.73c-4.05.52-8.1,1.03-12.15,1.55-.8.1-1.5.62-1.5,1.5,0,.73.69,1.6,1.5,1.5,4.05-.52,8.1-1.03,12.15-1.55.8-.1,1.5-.62,1.5-1.5,0-.73-.69-1.6-1.5-1.5Z"/>
    <path class="cls-1" d="M76.02,836.62c-.23-.84-1.04-1.19-1.85-1.05-3.65.65-7.4,1-11.11.87-1.67-.06-4.93-.43-5.35-2.49-.27-1.35.77-2.93,1.4-4.06.69-1.24,1.46-2.45,2.4-3.52,1.4-1.61,3.25-3.1,5.41-3.04-.01.84-.3,1.66-.88,2.31-1.27,1.44.84,3.57,2.12,2.12,1.51-1.71,2.09-3.92,1.55-6.15-.12-.49-.56-.93-1.05-1.05-5.81-1.39-10.15,3.92-12.52,8.52-1.32,2.57-2.32,5.57-.05,7.92,1.72,1.78,4.48,2.33,6.85,2.43,4.01.16,8.08-.27,12.02-.98.8-.14,1.25-1.12,1.05-1.85Z"/>
    <path class="cls-1" d="M105.03,831.74c-.92-2.95-3.56-5.14-6.45-6.04-3.8-1.2-7.91-.24-11.66.67-.81.2-1.22,1.07-1.05,1.85.56,2.45,1.32,5.37.22,7.79-.78,1.71-2.7,3.34-4.62,2.32-1.66-.89-2.35-3.08-2.13-4.85.08-.63.24-1.23.45-1.82.65.39,1.56.37,2.07-.47,1-1.65,1.45-3.53,1.24-5.45-.17-1.51-1.89-2-2.8-.76-2.01,2.75-4.19,5.97-3.99,9.54.16,2.84,1.78,5.82,4.58,6.8,2.94,1.04,5.92-.67,7.45-3.18,1.71-2.8,1.38-6.11.75-9.21,4.3-.98,9.72-1.73,12.46,2.41.97,1.47,1.13,3.32-.2,4.61-.96.93-2.65,1.63-3.78.6-1.42-1.3-3.55.81-2.12,2.12,2.01,1.84,4.89,1.71,7.06.19,2.32-1.63,3.37-4.39,2.51-7.13Z"/>
    <path class="cls-1" d="M134.2,824.77c-2.87-2.19-7.09-2.45-9.85-.22-1.59-.79-3.57-1-5.12-.09-.71.42-.74,1.22-.85,1.95-.1.69-.19,1.37-.27,2.06-.16,1.35-.26,2.72-.2,4.08.2,4.54,2.59,9.64,7.43,10.73,4.81,1.09,9.25-2.84,11.04-7,1.66-3.87,1.37-8.79-2.19-11.5ZM134.37,832.36c-.25,2.85-2.04,5.64-4.44,7.15-1.29.81-2.74,1.22-4.23.76-1.25-.38-2.33-1.3-3.09-2.34-2.3-3.14-1.85-7.31-1.3-10.97.57-.08,1.15,0,1.67.24.13.32.35.6.63.77.46.27.96.25,1.38.05.59-.14,1.09-.62,1.23-1.18,1.31-1.1,3.41-1.06,5.03-.35,2.31,1.02,3.35,3.38,3.13,5.89Z"/>
    <path class="cls-1" d="M161,828.29h1.31c1.93,0,1.93-3,0-3h-1.94c-.31-1.48-.62-2.96-.93-4.44-.32-1.52-.52-3.13-.98-4.62-.35-1.14-1.22-2.24-2.53-2.11-2.33.22-2.09,3.78-.15,3.88.09.41.17.83.26,1.24.24,1.12.47,2.24.71,3.36l.56,2.68h-5.98c-1.93,0-1.93,3,0,3h6.61c.04.19.08.38.12.57.91,4.33,1.81,8.65,2.72,12.98.4,1.89,3.29,1.09,2.89-.8-.89-4.25-1.78-8.5-2.67-12.75Z"/>
    <path class="cls-1" d="M225.45,830.94c-.3.51-.88.77-1.48.69-.79-.11-1.11-.86-1.4-1.51-.75-1.67-1.45-3.35-3.35-3.98-2.53-.83-4.66.92-6.14,3.04-.64-1.6-1.27-3.2-1.91-4.8-.29-.73-1.01-1.32-1.85-1.05-2.74.89-4.88,2.97-5.9,5.56-.5-.92-1.96-1.31-2.61-.12-1.72,3.14-6.99.4-9.46.08-.16-.02-.32-.03-.48-.04-.51-.88-1.19-1.69-1.96-2.37-1.58-1.4-3.38-2.56-5.09-3.78-2.09-1.49-4.17-2.98-6.26-4.46-.43-.31-1.07-.24-1.51,0-2.82,1.54-4.2,4.84-3.43,7.94.47,1.87,3.36,1.08,2.89-.8-.38-1.52.17-3.03,1.3-4.01,3.15,2.22,6.41,4.35,9.41,6.76.44.35.94.78,1.38,1.25-1.98.77-3.57,2.37-3.46,4.73.07,1.69,1.24,2.81,2.93,2.84,1.49.03,2.84-.87,3.7-2.03.71-.95,1.01-1.96,1.01-2.96,1.18.26,2.35.71,3.44.97,2.65.61,5.86.39,7.64-1.79-.05.37-.08.74-.09,1.12-.02,1.93,2.98,1.93,3,0,.02-2.23,1.26-4.3,3.14-5.41.83,2.1,1.67,4.19,2.5,6.29.56,1.41,2.33,1.42,2.89,0,.57-1.43,1.61-3.23,3.06-3.93,1.54-.74,2.08,1.29,2.55,2.35.7,1.59,1.86,2.86,3.65,3.09,1.79.23,3.54-.59,4.47-2.14,1-1.66-1.59-3.17-2.59-1.51ZM187.08,833.89s-.05,0-.06,0c.03-.01.08-.05.13-.17.13-.31.21-.58.43-.86.32-.41.76-.72,1.25-.92-.09.89-.83,1.91-1.75,1.93Z"/>
    <path class="cls-1" d="M196.46,819.19c-.4,0-.71.13-.94.33,0-.02,0-.04,0-.05-.02-.4-.15-.77-.44-1.06l-2.44-2.44c-.27-.27-.68-.44-1.06-.44s-.81.16-1.06.44c-.26.29-.46.66-.44,1.06.02.4.15.77.44,1.06.81.81,1.63,1.63,2.44,2.44.27.27.68.44,1.06.44.34,0,.74-.15,1-.39-.05.78.43,1.61,1.44,1.61,1.93,0,1.93-3,0-3Z"/>
    <path class="cls-1" d="M253.2,826.29c-1.06-3.91-5.16-6.84-9.18-6.32-.61-.36-1.29-.61-1.99-.71-2.25-.33-4.26.75-5.59,2.53-2.57,3.45-1.88,8.32.66,11.56,2.64,3.38,7.03,4.56,10.95,2.78,3.67-1.66,6.23-5.8,5.14-9.84ZM248.01,832.7c-2.2,1.63-5.14,1.76-7.33.04-2.12-1.66-3.36-4.61-2.69-7.27.34-1.34,1.21-2.91,2.68-3.24.4-.09.82-.07,1.21.04.2.51.63.9,1.23.91.1.17.19.35.23.56.16.79,1.1,1.25,1.85,1.05.78-.21,1.14-.95,1.05-1.7,1.53.41,2.89,1.53,3.66,2.96,1.28,2.38.18,5.13-1.89,6.66Z"/>
    <path class="cls-1" d="M293.31,848.42c-.66-4.36-3.03-8.45-4.72-12.48-1.71-4.08-3.32-8.2-4.84-12.35-1.54-4.23-2.98-8.5-4.32-12.8-.68-2.19-1.33-4.38-1.96-6.59-.53-1.85-.93-3.77-1.64-5.57-.68-1.73-1.7-3.42-3.42-4.27-2.04-1.01-4.32-.63-6.42-.06-5.02,1.37-10.01,2.85-15.02,4.28-1.85.53-1.07,3.42.8,2.89,4.09-1.16,8.17-2.33,12.26-3.49,1.79-.51,3.77-1.34,5.66-1.27,1.63.07,2.57,1.16,3.19,2.57.7,1.59,1.04,3.36,1.51,5.03.56,1.98,1.13,3.95,1.73,5.91,1.2,3.93,2.49,7.83,3.86,11.7,1.34,3.8,2.77,7.57,4.28,11.3,1.53,3.8,3.28,7.51,4.8,11.31,1.28,3.19,2.2,6.81.32,9.95-1.26,2.12-3.47,3.51-5.7,4.45-2.86,1.2-6,1.81-9.08,2.16-4.48.51-8.99.82-13.49,1.22-1.91.17-1.93,3.17,0,3,4.39-.39,8.79-.71,13.17-1.19,3.11-.34,6.23-.86,9.18-1.92,2.68-.96,5.37-2.34,7.26-4.52,2.25-2.6,3.08-5.89,2.57-9.28Z"/>
    <path class="cls-1" d="M233.79,499.37l-3.65.7c-.38-3.63-.86-7.24-1.5-10.8-.5-2.77-2.4-4.56-5.29-4.16-1.15.16-2.23.57-3.33.92-.96.3-2.23.78-3.21.31-1.73-.83-3.26,1.76-1.51,2.59,2.19,1.05,4.34.37,6.52-.34.8-.26,1.91-.76,2.77-.54,1.13.29,1.15,1.92,1.29,2.86.5,3.24.9,6.49,1.25,9.74-1.48.29-2.96.57-4.45.86-.98.19-1.33,1.41-.9,2.2,1.98,3.61,4.25,7.03,6.78,10.27.8,1.03,2.63.16,2.56-1.06-.18-3.28-.4-6.57-.7-9.86,1.39-.27,2.77-.53,4.16-.8,1.89-.36,1.09-3.26-.8-2.89ZM227.79,507.83c-.83-1.24-1.62-2.51-2.37-3.8.67-.13,1.34-.26,2.01-.39.13,1.39.26,2.79.36,4.18Z"/>
    <path class="cls-1" d="M239.35,523.91c-.2-.73-1.08-1.34-1.85-1.05-5.72,2.16-11.79,2.98-17.88,2.4-.81-.08-1.5.74-1.5,1.5,0,.87.69,1.42,1.5,1.5,6.32.59,12.74-.27,18.67-2.51.76-.29,1.28-1.01,1.05-1.85Z"/>
    <path class="cls-1" d="M238.05,546.76c1.32-5.89-5.44-11.92-11.19-9-1.72.88-.2,3.46,1.51,2.59,3.31-1.68,8.19,2.64,6.68,6.14-.34.8-.19,1.53.54,2.05,3.32,2.38,1.51,9.16-2.55,9.56-1.9.19-1.92,3.19,0,3,6.69-.66,9.54-9.79,5.01-14.34Z"/>
    <path class="cls-1" d="M234,794.38c-13.62-5.6-28.7-7.53-43.3-5.66-7.32.94-14.47,2.79-21.31,5.57-6.62,2.7-13.61,6.45-20.97,6.07-5.72-.3-12.69-3.84-13.38-10.14-.18-1.62-2.41-2.11-2.95-.4-3.36,10.78-14.19,18.66-25.48,18.58-6.69-.05-13-2.84-19.08-5.35-5.64-2.33-11.3-4.46-17.46-4.74-6.12-.28-12.54,1.34-16.67,6.12-1.26,1.45.86,3.59,2.12,2.12,3.74-4.32,9.41-5.54,14.91-5.22,6.25.36,12.01,2.85,17.72,5.21,6.2,2.56,12.7,5.1,19.54,4.85,5.66-.2,11.23-2.16,15.86-5.4,4.18-2.93,7.58-6.82,9.81-11.36,1.89,3.69,5.49,6.33,9.56,7.7,6.84,2.3,13.97.3,20.42-2.29,3.59-1.44,7.11-3.06,10.77-4.35,3.64-1.29,7.38-2.31,11.17-3.07,7.52-1.51,15.25-1.93,22.9-1.34,8.6.67,17.06,2.71,25.03,5.99,1.78.73,2.56-2.17.8-2.89Z"/>
    <path class="cls-1" d="M141.33,774.02c-1.1-3.51-4.33-6.4-8.13-6.33-1.93.03-1.93,3.03,0,3,.69-.01.87,0,1.57.23.47.15.95.4,1.48.79.03.03.14.11.16.13.1.08.19.17.29.26.23.21.44.44.64.68.09.11.24.31.4.58.18.29.35.6.49.91.03.07.11.26.11.26.04.12.08.24.12.37.08.27.14.54.2.82,0,.05.02.08.02.1,0,.03,0,.06,0,.11,0,.15.02.3.02.46,0,.15,0,.31,0,.46,0,.09-.01.17-.02.26,0,.02,0,.06-.02.1-.25,1.13-.61,1.84-1.43,2.62-.1.1-.21.19-.32.29-.03.03-.05.04-.07.06-.02.01-.04.03-.08.06-.24.17-.48.32-.73.46-.19.1-.38.2-.58.28-.06.02-.24.09-.25.09-.18.06-.37.12-.56.17-.26.07-.51.12-.77.17-.07,0-.24.03-.26.04-.14.01-.29.02-.43.03-.24,0-.48,0-.72,0-.11,0-.23-.02-.34-.03,0,0-.35-.06-.4-.07-1.13-.24-1.84-.62-2.59-1.4-.1-.11-.2-.22-.3-.33-.03-.03-.04-.05-.05-.06-.01-.02-.04-.06-.07-.11-.16-.25-.32-.5-.45-.76,0,0-.1-.22-.12-.26-.04-.11-.09-.23-.13-.34-.09-.28-.17-.57-.23-.86-.1-.49-.15-1.1-.1-1.84.03-.48.01-.33.11-.79.06-.29.14-.58.24-.87.34-1.03,1.14-2.16,2.01-2.75.67-.46.97-1.32.54-2.05-.39-.66-1.38-1-2.05-.54-5.51,3.77-5.07,13.13,1.44,15.58,2.78,1.04,6.2.45,8.56-1.32,2.68-2.02,3.83-5.37,2.82-8.61Z"/>
    <path class="cls-1" d="M1180.9,577.65c-1.38-.87-2.76-1.74-4.15-2.61-.5-.31-.99-.29-1.38-.08,4.4-11.27,5.05-23.78,2.42-35.56-2.69-12.06-8.91-23.48-18.04-31.87-9.74-8.95-24.48-15.7-37.1-8.42-1.17.67-2.23,1.47-3.23,2.36.27-2.92.49-5.85.63-8.79.09-1.93-2.91-1.93-3,0-.2,4.25-.55,8.5-1.05,12.72-.29.44-.3.88-.15,1.24-.55,4.46-1.27,8.9-2.16,13.31-.91,4.52-2,9-3.26,13.44-1.22,4.3-2.81,8.5-3.9,12.84-1.78,7.07-1.15,16.28,6.4,19.76,3.66,1.69,7.76,1.76,11.72,1.78,4.56.03,9.12-.15,13.66-.52,10.34-.85,20.58-2.72,30.55-5.58,1.85-.53,1.07-3.43-.8-2.89-8.48,2.43-17.16,4.16-25.93,5.11-4.29.46-8.61.74-12.92.85-3.97.09-8.19.34-12.1-.5-3.55-.77-6.38-2.82-7.65-6.31-1.31-3.62-.91-7.46.03-11.12,1.07-4.18,2.6-8.24,3.78-12.38,1.18-4.13,2.2-8.3,3.08-12.5,1.07-5.1,1.91-10.24,2.54-15.41,3.32-4.76,9.12-7.29,14.82-7.49,6.86-.25,13.4,2.69,18.9,6.57,9.58,6.74,16.61,16.84,20.39,27.86,3.8,11.08,4.5,23.25,1.5,34.6-.91,3.44-2.16,6.75-3.7,9.93-6.28.21-12.57.13-18.84-.26-4.72-.3-9.43-.77-14.11-1.42-4.26-.6-8.5-1.45-12.8-1.78-4.66-.37-9.33.04-13.57,2.12-1.73.85-.21,3.44,1.51,2.59,7.52-3.68,16.47-1.09,24.3,0,9.05,1.25,18.17,1.9,27.31,1.88,1.53,0,3.06-.03,4.59-.07-3.4,6.04-7.88,11.49-13.1,16.08-18.49,16.23-47.53,21.62-68.9,7.66-10.43-6.81-16.99-18-19.71-29.99-2.95-12.97-1.23-26.39,3.19-38.83,2.41-6.77,5.59-13.24,9.23-19.43,3.45-5.88,7.2-11.74,11.7-16.89,4.05-4.64,9.01-8.93,14.97-10.83,5.09-1.62,11.02-1.57,15.85.86,2.32,1.16,4.31,2.82,5.75,4.99,1.06,1.6,3.66.1,2.59-1.51-3.3-4.96-8.72-7.62-14.54-8.27-6.14-.69-12.22,1.06-17.38,4.37-5.86,3.77-10.44,9.16-14.44,14.79-4.34,6.11-8.26,12.58-11.58,19.3-6.41,12.99-10.65,27.47-9.69,42.07.85,12.94,5.53,25.92,14.61,35.38,9.79,10.21,24.05,15.03,38.01,14.98,12.65-.04,25.15-4.15,35.6-11.22,8.9-6.02,16.35-14.13,21.33-23.63,2.5-.11,4.99-.26,7.48-.47,1.46-.12,2.07-1.97.76-2.8ZM1174.61,576.83c.1.3.29.58.63.79.07.05.15.09.22.14-.43.02-.86.05-1.29.07.15-.33.3-.67.44-1Z"/>
    <g>
      <path class="cls-1" d="M1116.05,476.99s.06.05.09.08c0,0,0,0,0,0-.1-.09-.12-.1-.09-.08Z"/>
      <path class="cls-1" d="M1120.68,473.89s0-.03.01-.05c0,0,0,0,0,0-.01.05-.02.06-.02.06Z"/>
      <path class="cls-1" d="M1123.43,469.59c-.38-.41-.87-.87-1.41-1.02-.28-.07-.57-.08-.86-.06-.5-.36-1.05-.63-1.65-.8-1.86-.51-3.77.26-5.18,1.47-1.39,1.19-2.22,2.92-2.44,4.71-.22,1.77.43,3.55,1.64,4.85,1.19,1.27,2.87,1.98,4.58,2.17,1.73.19,3.47-.32,4.81-1.43,1.37-1.12,2.06-2.83,2.24-4.55.2-1.92-.45-3.93-1.74-5.35ZM1120.88,477.31s-.09.07-.14.1c-.11.07-.23.14-.34.2-.13.07-.38.15-.1.06-.16.05-.32.11-.48.16-.13.03-.26.07-.39.09-.04,0-.09.01-.13.02-.01,0-.01,0-.03,0-.31.01-.61.02-.91,0-.04,0-.08,0-.12-.01-.12-.04-.26-.05-.39-.08-.27-.06-.54-.15-.8-.26-.05-.02-.14-.06-.19-.09-.12-.06-.24-.13-.35-.19-.13-.08-.25-.16-.37-.24,0,0,0,0,.02.02,0,0-.02-.01-.03-.02,0,0,0,0,0,0-.03-.02-.06-.05-.08-.07-.02-.02-.04-.03-.06-.05-.11-.1-.22-.21-.32-.32-.02-.03-.12-.13-.17-.19-.04-.06-.13-.18-.15-.22-.09-.14-.15-.31-.25-.45,0,0,0,0,0,0-.02-.04-.03-.08-.05-.12-.05-.13-.09-.27-.12-.41-.02-.08-.02-.16-.05-.23,0-.15-.02-.29-.02-.44,0-.14.01-.28.02-.42,0-.02,0-.02,0-.03,0-.06.02-.11.03-.16.06-.32.17-.62.27-.93-.09.27.01-.03.07-.14.06-.13.13-.25.2-.38.08-.14.17-.27.26-.41,0,0,0-.01.01-.02.04-.04.11-.14.13-.16.19-.22.39-.41.6-.6.02-.02.02-.02.04-.03.05-.03.09-.07.14-.1.13-.09.27-.17.41-.25.05-.03.28-.13.3-.15.09-.03.18-.07.28-.1.13-.04.27-.08.41-.1.05-.01.11-.02.16-.03.03,0,.06,0,.1,0,.05,0,.11,0,.16,0,.01,0,.03,0,.04.01-.19.54-.25,1.14-.13,1.73.15.77,1.11,1.28,1.85,1.05.19-.06.34-.15.48-.26,0,0,0,0,0,0,0,.07.01.14.01.21,0,.17,0,.33-.01.49,0,.01,0,.03,0,.04,0,0,0-.01,0-.02.05-.16.02-.06,0,.03,0,.03-.01.05-.01.05,0,.02,0,.03-.01.04-.03.13-.08.24-.11.37-.06.1-.11.2-.17.29-.41.67-.17,1.68.54,2.05.15.08.32.12.48.15,0,0,0,.01,0,.01-.05.06-.13.15-.16.17-.11.12-.24.22-.36.33Z"/>
    </g>
    <path class="cls-1" d="M319.63,820.41h-17.07c-1.93,0-1.93,3,0,3h17.07c1.93,0,1.93-3,0-3Z"/>
    <path class="cls-1" d="M386.7,861.79c-9.45.39-18.99.33-28.42-.49-3.09-.27-7.05-.85-8.75-3.82-1.01-1.76-1.03-3.9-1.1-5.87-.07-2.31-.13-4.63-.19-6.94-.47-19.27-.53-38.54-.18-57.81.02-1.32.05-2.65.08-3.97.02-1.02-.05-2.13.22-3.13.31-1.13,1.08-1.4,2.18-1.49,1.26-.1,2.53-.11,3.79-.12,5.39-.08,10.79.26,16.13,1.01.81.11,1.6-.2,1.85-1.05.2-.7-.25-1.73-1.05-1.85-5.13-.72-10.28-1.13-15.46-1.13-2.25,0-4.79-.2-6.99.38-1.93.5-3.12,2.05-3.46,3.96-.41,2.32-.25,4.79-.29,7.13-.05,2.65-.09,5.29-.12,7.94-.07,5.21-.1,10.42-.11,15.63-.01,10.42.1,20.84.33,31.26.06,2.65.13,5.29.2,7.94.06,2.21.03,4.48.48,6.66.84,4.06,3.92,6.55,7.81,7.55,2.14.55,4.36.71,6.55.86,2.88.2,5.77.34,8.66.43,5.94.19,11.89.15,17.83-.09,1.92-.08,1.93-3.08,0-3Z"/>
    <path class="cls-1" d="M375.71,817.88c-4.78.61-9.6.31-14.26-.94-1.87-.5-2.66,2.39-.8,2.89,4.9,1.31,10.03,1.68,15.06,1.04.8-.1,1.5-.62,1.5-1.5,0-.73-.69-1.6-1.5-1.5Z"/>
    <path class="cls-1" d="M431.32,816.44c-3.28-4.71-9.67-6.08-15.46-5.63-.97-1.5-2.44-2.71-4.32-2.38-1.93.34-3.61,2.52-3.09,4.5.25.94,1.14,1.87,2.16,1.9.75.02,1.63-.43,2.37-.59.38-.09.77-.16,1.15-.22.76,2,1.09,4.44.81,6.43-.3,2.1-1.77,4.5-4.1,4.66-1.68.11-3.38-1.88-2.38-3.44.9-1.41-1.24-3.13-2.36-1.82-3.97,4.67-11.36,7.17-16.66,3.13-4.47-3.4-5.81-10.54-.58-13.91,2.43-1.56,5.51-1.96,7.99-.32,1.62,1.06,3.12-1.53,1.51-2.59-5.94-3.91-14.71.46-15.8,7.32-1.27,7.98,6.01,14.96,13.8,14.5,3.34-.19,6.55-1.46,9.19-3.48.29.74.73,1.43,1.31,2,1.78,1.77,4.38,2.02,6.6.93,5.04-2.48,5.21-8.87,3.71-13.68,2.61-.05,5.3.32,7.69,1.36,2.16.94,5.21,3.04,4.85,5.79-.21,1.63-2.67,4.15-4.32,2.69-1.44-1.27-3.57.84-2.12,2.12,2.34,2.07,5.6,1.36,7.62-.82,2.24-2.42,2.32-5.77.45-8.45Z"/>
    <path class="cls-1" d="M450.02,820.04c-.39-.67-1.28-.92-1.97-.58-.05-2.03-.1-4.06-.16-6.08-.02-.78-.68-1.54-1.5-1.5-.8.04-1.52.66-1.5,1.5.08,3.2.17,6.4.25,9.59.01.51.27,1.05.74,1.3,1.22.64,2.63.35,3.58-.63.93-.96,1.24-2.41.55-3.6Z"/>
    <path class="cls-1" d="M462.71,808.25c-7.37-1.4-14.87-1.82-22.35-1.17-1.91.17-1.93,3.17,0,3,5.82-.5,11.67-.37,17.45.41-.05.23-.07.48-.02.73.84,4.14,1.67,8.28,2.51,12.43.16.79,1.1,1.25,1.85,1.05.83-.23,1.21-1.05,1.05-1.85-.8-3.97-1.6-7.93-2.4-11.9.37.07.75.12,1.12.19,1.89.36,2.7-2.53.8-2.89Z"/>
    <path class="cls-1" d="M469.67,832.93c-10.13,1.2-20.34,1.46-30.52.76-1.93-.13-1.92,2.87,0,3,10.18.7,20.39.45,30.52-.76,1.89-.23,1.92-3.23,0-3Z"/>
    <path class="cls-1" d="M467.19,863.09c-4.7.04-9.4.08-14.1.12,2.11-4.73,2.97-9.99,2.33-15.15-.3-2.47-.68-6.01-2.94-7.55-2.09-1.43-4.93-.28-5.25,2.24-.1.81.76,1.49,1.5,1.5.9,0,1.4-.7,1.5-1.5-.06.49-.03,0,.24.13.24.11.4.14.6.37.55.65.72,1.7.91,2.5.48,2.04.68,4.13.63,6.22-.09,4.2-1.21,8.32-3.26,11.99-.55.98.14,2.27,1.3,2.26,5.51-.05,11.01-.09,16.52-.14,1.93-.02,1.93-3.02,0-3Z"/>
    <path class="cls-1" d="M497.67,817.88c-2.66.3-5.34.37-8.01.23.38-4.74.89-9.47,1.53-14.18.11-.81-.2-1.6-1.05-1.85-.7-.2-1.74.25-1.85,1.05-.67,4.89-1.2,9.8-1.6,14.72-1.12-.13-2.24-.3-3.36-.52-.79-.15-1.62.22-1.85,1.05-.2.74.25,1.69,1.05,1.85,1.3.25,2.61.45,3.92.61-.4,5.63-.63,11.27-.67,16.92-.01,1.93,2.99,1.93,3,0,.04-5.56.25-11.12.64-16.67,2.74.16,5.49.1,8.24-.21.8-.09,1.5-.63,1.5-1.5,0-.74-.69-1.59-1.5-1.5Z"/>
    <path class="cls-1" d="M573.55,820.36c-.76.39-1.44-.73-1.75-1.28-.57-1-.74-2.05-.92-3.17-.33-2.03-1.09-4.44-2.88-5.65-2.09-1.42-4.31-.35-5.9,1.25-1.69,1.7-3.36,3.43-5.03,5.16-.4-1.27-.8-2.55-1.2-3.82-.29-.91-1.35-1.41-2.2-.9l-8.63,5.23c.84-2,.83-4.39.45-6.49-.64-3.55-2.49-6.94-5.1-9.43-1.33-1.27-2.77-2.28-4.68-1.71-1.6.48-2.61,2.29-1.16,3.58.96.85,2.22.19,2.53-.72.16.1.29.17.48.33.68.57,1.32,1.2,1.89,1.89,1.05,1.26,1.9,2.74,2.46,4.28.82,2.28,1.85,6.81-.66,8.52-1.24.85-2.99-.71-4.23-1.07-1.69-.49-3.47-.46-5.19-.11-.37.08-.74.18-1.1.28-.03-.78-.16-1.57-.41-2.35-1.95-6.08-8.19-8.54-11.77-13.37-.73-.99-2.37-.98-2.74.36-.62,2.25-1.24,4.51-1.87,6.76-.51,1.86,2.38,2.66,2.89.8l1.14-4.14c2.74,2.68,6.07,4.79,8.22,7.98.99,1.47,1.8,3.33,1.53,5.13-2.1,1.04-4.06,2.42-5.89,3.8-1.01.76-.96,2.33.36,2.74,2.56.81,5.18-.33,6.81-2.36.51-.64.9-1.33,1.18-2.04,1.16-.46,2.36-.77,3.59-.84.91-.05,1.78.04,2.64.32.92.3,1.73.86,2.65,1.16,1.46.47,2.99.16,4.16-.79.29.8,1.18,1.39,2.13.82,2.74-1.66,5.49-3.33,8.23-4.99.46,1.47.93,2.93,1.39,4.4.33,1.05,1.7,1.5,2.51.66,2.21-2.27,4.41-4.57,6.63-6.82.54-.55,1.32-1.51,2.18-1.06.74.39,1.1,1.54,1.32,2.27.65,2.14.65,4.28,1.98,6.19,1.3,1.87,3.34,2.9,5.49,1.78,1.72-.89.2-3.48-1.51-2.59Z"/>
    <path class="cls-1" d="M612.29,799.43c-7.31.51-14.62,1.02-21.93,1.54-1.83.13-1.92,2.88-.23,2.99-.27.36-.37.84-.27,1.3.17.72.21,1.34.23,2.18.01.82-.02,1.63-.02,2.45,0,1.6.11,3.36.89,4.8,1.13,2.1,3.76,3.34,6.09,2.97,1.38-.22,2.44-1.25,2.82-2.58.22-.75-.26-1.67-1.05-1.85-.8-.18-1.61.24-1.85,1.05-.01.04-.03.09-.04.13-.02.04-.05.08-.07.12-.01.02-.01.02-.02.03-.01,0-.02.02-.05.03-.04.02-.07.04-.11.06-.03,0-.05.02-.08.03-.06.02-.11.03-.17.04-.16.03-.12.03.13-.01-.17.08-.47,0-.65,0-.03,0-.06-.01-.1-.02-.13-.03-.26-.06-.39-.1-.09-.03-.19-.06-.28-.1.18.06-.16-.07-.23-.11-.22-.11-.42-.24-.62-.38-.04-.04-.09-.07-.13-.11-.1-.09-.2-.19-.3-.3-.03-.04-.07-.07-.1-.11-.07-.11-.15-.22-.21-.34-.02-.04-.04-.07-.05-.11-.05-.17-.11-.33-.16-.5-.23-.83-.26-1.54-.27-2.5-.01-1.88.12-3.75-.31-5.6-.06-.25-.2-.47-.37-.64,4.3-.3,8.59-.6,12.89-.9-.1.2-.16.42-.13.65.44,4.1.89,8.21,1.33,12.31.09.81.63,1.5,1.5,1.5.74,0,1.59-.69,1.5-1.5-.44-4.1-.89-8.21-1.33-12.31-.03-.3-.13-.59-.28-.83,1.48-.1,2.95-.21,4.43-.31,1.92-.13,1.93-3.14,0-3Z"/>
    <path class="cls-1" d="M616.03,823.35c-8.54-.74-17.11-.87-25.67-.4-1.92.11-1.93,3.11,0,3,8.56-.47,17.13-.34,25.67.4,1.92.17,1.91-2.84,0-3Z"/>
    <path class="cls-1" d="M613.58,850.4c-4.25.34-8.5.68-12.74,1.01,3.84-4.84,5.41-11.35,4.15-17.46-.14-.7-.81-1.03-1.45-1.1-2.52-.28-5.86-.26-7.17,2.37-.99,1.99-.38,5.1,2.13,5.54.8.14,1.62-.21,1.85-1.05.2-.72-.25-1.71-1.05-1.85-.32-.06-.34-.07-.39-.41-.06-.35.03-.8.27-1.08.65-.77,1.95-.78,3.09-.67.9,6.12-1.58,12.46-6.31,16.45-.97.82-.2,2.66,1.06,2.56,5.52-.44,11.05-.88,16.57-1.32,1.91-.15,1.93-3.15,0-3Z"/>
    <path class="cls-1" d="M1165.27,522.04c-1.81-2.63-3.61-5.26-5.42-7.89-.86-1.26-2.67-.75-2.8.76-1.07,12.82-2.86,25.56-5.36,38.18-.37,1.89,2.52,2.69,2.89.8,2.27-11.48,3.96-23.07,5.08-34.72,1,1.46,2.01,2.92,3.01,4.39,1.09,1.58,3.69.08,2.59-1.51Z"/>
    <path class="cls-1" d="M663.55,833.3c-1.61-2.99-3.36-5.9-4.88-8.93-1.62-3.23-3.12-6.52-4.5-9.87-2.69-6.53-4.96-13.23-7.01-19.99-2.32-7.64-4.35-15.37-6.38-23.1-.22-.85-1.05-1.17-1.85-1.05-6.61,1.03-12.99,3.1-18.99,6.08-1.73.86-.21,3.45,1.51,2.59,5.3-2.63,10.95-4.46,16.77-5.51,3.32,12.67,6.71,25.35,11.39,37.59,2.4,6.28,5.13,12.44,8.33,18.35,2.36,4.34,8.18,11.67,4.07,16.56-1.83,2.18-4.98,2.95-7.7,3.15-3.94.29-7.9-.15-11.75.97-1.85.54-1.06,3.44.8,2.89,6.17-1.8,13.16.57,18.83-3.22,2.46-1.65,3.98-4.18,4.17-7.15.21-3.3-1.28-6.54-2.81-9.37Z"/>
    <path class="cls-1" d="M711.49,793.63c-5.38-1.66-11.24-1.59-16.57.24-1.82.62-1.04,3.52.8,2.89,4.86-1.67,10.06-1.76,14.97-.24,1.85.57,2.64-2.32.8-2.89Z"/>
    <path class="cls-1" d="M715.58,802.2c-5.23,1.09-10.45,2.19-15.68,3.28-1.89.4-1.09,3.29.8,2.89,5.23-1.09,10.45-2.19,15.68-3.28,1.89-.4,1.09-3.29-.8-2.89Z"/>
    <path class="cls-1" d="M582.97,780.33c-5.39-11.95-18.58-18.9-31.46-17.11-13.69,1.9-25.91,11.93-40.2,9.4-8.44-1.49-15.88-6.13-23.02-10.61-1.05-.66-2.15.23-2.26,1.3-.37,3.57-2.81,6.58-5.74,8.48-3.65,2.36-7.96,3.01-12.23,2.95-4.76-.07-9.5-.89-14.21-1.52-4.93-.66-9.85-1.32-14.78-1.98-9.55-1.28-19.09-2.71-28.66-3.83-6.77-.79-13.71-1.09-20.45.12-7.15,1.29-13.85,4.74-17.58,11.2-.55.95.14,2.32,1.3,2.26,2.31-.12,4.63-.23,6.94-.35,1.92-.1,1.93-3.1,0-3-1.33.07-2.65.13-3.98.2,7.78-9.58,23.32-8.71,34.44-7.35,9.75,1.19,19.49,2.61,29.22,3.92,5.01.67,10.02,1.35,15.02,2.02,4.75.64,9.55,1.45,14.36,1.31,4.68-.13,9.37-1.23,13.17-4.08,2.73-2.05,4.77-4.74,5.69-7.93,5.69,3.54,11.56,6.96,18.02,8.87,6.89,2.05,13.84,1.71,20.68-.34,6.53-1.96,12.68-5,19.24-6.87,6.36-1.81,12.79-2.06,19.02.37,6.57,2.56,11.99,7.7,14.88,14.12.79,1.76,3.38.23,2.59-1.51Z"/>
    <path class="cls-1" d="M473.77,750.43c-4.12-2.11-5.81-7.68-3.59-11.64.95-1.69-1.64-3.2-2.59-1.51-3.02,5.37-.86,12.91,4.67,15.74.72.37,1.63.19,2.05-.54.39-.67.19-1.68-.54-2.05Z"/>
    <path class="cls-1" d="M487.92,730.17h-21.95c-1.93,0-1.93,3,0,3h13.84c-.22.26-.35.6-.39.97-.42,4.6.61,9.27,2.86,13.3.94,1.69,3.53.18,2.59-1.51-2.01-3.6-2.83-7.69-2.45-11.79.03-.37-.12-.71-.37-.97h5.86c1.93,0,1.93-3,0-3Z"/>
    <path class="cls-1" d="M418.99,903.64c-14.52,10.74-30.46,19.52-47.21,26.28-16.74,6.75-34.23,11.57-52,14.66-18.18,3.16-36.73,4.57-55.18,4.19-19.48-.4-39.17-3.12-57.3-10.56-15.43-6.32-29.75-16.19-40-29.46-1.28-1.66-2.49-3.38-3.64-5.14-1.05-1.61-3.65-.11-2.59,1.51,9.36,14.34,23.06,25.37,38.37,32.83,17.44,8.49,36.72,12.29,55.98,13.45,19.03,1.15,38.27.07,57.13-2.65,18.3-2.64,36.37-7.07,53.72-13.5,17.17-6.37,33.65-14.67,48.73-25.08,1.86-1.28,3.7-2.6,5.52-3.95,1.54-1.14.04-3.74-1.51-2.59Z"/>
    <path class="cls-1" d="M179.41,903.02c-7.84-3.15-16.26-4.79-24.71-4.8-3.51,0-8.12-.29-10.41,2.93-1.11,1.56-1.49,3.55-1.95,5.37-.54,2.18-1.04,4.37-1.49,6.58-1,4.93-1.76,9.91-2.31,14.91-.21,1.92,2.79,1.9,3,0,.44-4.02,1.03-8.01,1.78-11.98.72-3.82,1.46-7.74,2.64-11.46.53-1.68,1.41-2.68,3.17-3.04,1.79-.36,3.74-.3,5.56-.3,3.83,0,7.66.35,11.42,1.05,4.28.8,8.45,2.03,12.49,3.65,1.79.72,2.57-2.18.8-2.89Z"/>
    <path class="cls-1" d="M430.34,900.21c-.78-1.31-2.15-2.05-3.56-2.49-3.39-1.06-7.13-1.47-10.65-1.74-3.71-.28-7.43-.22-11.13.15-1.9.19-1.92,3.19,0,3,6.5-.66,13.07-.34,19.45,1.09,1.09.24,2.65.46,3.3,1.49.7,1.13.36,2.81.26,4.05-.27,3.41-.55,6.83-.82,10.24-.15,1.92,2.85,1.91,3,0,.3-3.78.66-7.56.91-11.34.1-1.51.04-3.13-.75-4.47Z"/>
    <path class="cls-1" d="M769.95,784.21c-.23-.83-1.05-1.2-1.85-1.05-5.72,1.08-11.43,2.16-17.15,3.24-.8.15-1.25,1.11-1.05,1.85.23.83,1.05,1.2,1.85,1.05,5.72-1.08,11.43-2.16,17.15-3.24.8-.15,1.25-1.11,1.05-1.85Z"/>
    <path class="cls-1" d="M810.23,777.65c-.5-3.76-2.37-7.84-6.53-8.44-1.34-.2-2.77,0-3.98.52-.61-2.08-2.69-3.77-4.83-4.24-3.7-.81-6.83,1.9-8.41,5.02-1.92,3.78-2.52,8.33-2.51,12.53,0,4.37.75,8.88,2.61,12.86,1.51,3.23,3.95,6.21,7.35,7.51,3.67,1.4,7.6.25,10.55-2.17,3.29-2.7,4.95-6.75,5.56-10.87.61-4.11.74-8.59.19-12.72ZM807.29,788.21c-.29,3.29-1.14,6.76-3.33,9.33-1.79,2.09-4.42,3.74-7.27,3.47-2.78-.27-4.97-2.29-6.4-4.55-3.57-5.64-4.01-13.35-2.7-19.74.58-2.85,1.56-6.43,4.32-7.93,1.94-1.05,5.86.36,4.78,3.02-.19.47-.12.88.09,1.18-.1.37-.16.75-.16,1.17-.04,1.93,2.96,1.93,3,0,.04-1.92,2.65-2.28,4.09-1.9,2.56.68,3.38,3.86,3.62,6.16.34,3.21.26,6.59-.03,9.8Z"/>
    <path class="cls-1" d="M855.86,775.55l-5.45,1.3c-.1-4.51-.29-9.01-.58-13.51-.12-1.92-3.13-1.93-3,0,.31,4.73.5,9.48.59,14.22-3.19.76-6.38,1.52-9.57,2.28-.86.2-1.48,1.44-.9,2.2,1.06,1.38,2.11,2.76,3.17,4.14.49.64,1.29.98,2.05.54.63-.37,1.03-1.41.54-2.05-.63-.82-1.25-1.64-1.88-2.46,2.21-.53,4.42-1.05,6.63-1.58.02,2.13.04,4.26.02,6.39-.01,1.32-.04,2.63-.07,3.95,0,.23-.03.49-.05.74-2.01.2-2.02,4.28.59,4.11,1.48-.1,2.21-1.47,2.37-2.78.23-1.89.13-3.86.15-5.76.03-2.45.01-4.9-.02-7.35,2.06-.49,4.13-.98,6.19-1.47,1.88-.45,1.08-3.34-.8-2.89Z"/>
    <path class="cls-1" d="M898.85,764.61c-.03-1.49-2.02-2.03-2.8-.76-5.87,9.64-13.96,17.81-23.55,23.77-1.64,1.02-.13,3.61,1.51,2.59,8.63-5.36,16.09-12.44,21.92-20.73.13,7.31.25,14.63.38,21.94.03,1.93,3.03,1.93,3,0-.16-8.94-.31-17.87-.47-26.81Z"/>
    <path class="cls-1" d="M953.06,773.66c-6.76-1.5-13.75-1.43-20.47.24-1.87.46-1.08,3.36.8,2.89,6.19-1.53,12.65-1.62,18.88-.24,1.88.42,2.68-2.47.8-2.89Z"/>
    <path class="cls-1" d="M756.69,829.18c-5.72,2.98-12.42,2.61-18.62,1.75-1.49-.21-3-.39-4.47-.7-.47-.1-1.15-.2-1.45-.62-.36-.5-.15-1.44-.09-2.01.39-3.72.86-7.44,1.3-11.16,1.72-14.78,3.43-29.55,5.15-44.33.23-1.97.46-3.95.69-5.92.2-1.68.3-3.41.75-5.04.3-1.07.91-2.61,2.19-2.76.42-.05,1.94.17,1.82.87-.3,1.89,2.59,2.7,2.89.8.45-2.81-2-4.8-4.71-4.66-3.25.17-4.84,3.33-5.36,6.17-.73,4.04-1,8.2-1.48,12.27-.5,4.28-1,8.57-1.49,12.85-1.02,8.76-2.04,17.52-3.05,26.28-.51,4.38-1.02,8.76-1.53,13.14-.19,1.66-.59,3.53.36,5.05.9,1.42,2.55,1.86,4.1,2.11,8.14,1.33,16.9,2.46,24.51-1.51,1.71-.89.2-3.48-1.51-2.59Z"/>
    <path class="cls-1" d="M927.69,794.62c-2.06-3.5-4.23-6.89-5.93-10.58-1.74-3.78-3.1-7.74-4.1-11.78-.98-3.98-1.35-8-1.97-12.04-.53-3.47-1.69-6.85-4.3-9.32-4.77-4.53-12.78-5.55-18.23-1.65-1.56,1.11-.06,3.72,1.51,2.59,4.15-2.97,10.11-2.55,14.02.67,2.43,2,3.46,4.82,3.99,7.85.63,3.65.88,7.34,1.68,10.97,1.59,7.28,4.4,14.31,8.23,20.7,3.35,5.58,7.84,11.77,4.09,18.31-4.11,7.17-12.92,8.64-20.45,9.11-1.92.12-1.93,3.12,0,3,7.56-.47,15.85-1.83,21.08-7.88,2.23-2.58,3.74-5.77,3.85-9.22.12-3.86-1.57-7.48-3.48-10.73Z"/>
    <path class="cls-1" d="M990.31,748.25c-1.74.16-3.12-2.19-4.5-3.01-1.81-1.07-4.04-.87-5.51.68-1.6,1.68-2.02,4.11-2.27,6.33-.35,3.03-.69,6.07-1.07,9.1-1.51,12.11-3.49,24.23-7.08,35.92-2.02,6.59-4.58,13-7.8,19.1-.5.94.1,2.33,1.3,2.26l20.89-1.31c1.92-.12,1.93-3.12,0-3-6.13.38-12.26.77-18.38,1.15,4.78-9.66,8.02-20,10.27-30.53,1.25-5.83,2.21-11.73,3.03-17.63.4-2.87.76-5.74,1.11-8.62.32-2.64.4-5.42,1-8.01.42-1.81,1.42-4.08,3.47-2.52,1.74,1.32,3.1,3.34,5.55,3.11,1.91-.18,1.92-3.18,0-3Z"/>
    <g>
      <path class="cls-1" d="M998.9,773.25c-1.76-1-3.84-1.14-5.67-.26-.71.34-.95,1.41-.54,2.05.46.72,1.26.89,2.01.55,0,0-.01,0-.02,0,.08,0,.18-.07.27-.09.15-.05.3-.08.45-.11.07,0,.14,0,.21-.01.16,0,.32,0,.48.01.01,0,.02,0,.04,0,.04,0,.08.01.12.02.17.03.34.08.51.13.08.02.15.05.23.08,0,0,0,0,.01,0,.13.06.27.13.4.2.14.08.28.17.41.26,0,0,0,0,0,0-.02-.02-.03-.03-.05-.05.03.03.06.05.09.08.04.03.06.04.05.04.02.01.03.03.05.04.13.11.26.24.38.36.05.06.1.11.15.17.09.13.17.26.25.39.04.06.07.13.1.19,0-.02,0-.02-.01-.05,0,.02.01.04.02.06,0,0,0,0,0,0,.03.06.04.1.04.13.03.08.06.17.08.26.02.09.04.18.06.27,0,0,0,.01,0,.02.1.76.65,1.48,1.49,1.44.75-.03,1.58-.66,1.5-1.5-.19-2.01-1.35-3.73-3.11-4.73Z"/>
      <path class="cls-1" d="M997.8,776.1s.07.06.09.07c-.02-.01-.03-.03-.05-.04-.01,0-.02-.02-.04-.03Z"/>
      <path class="cls-1" d="M998.81,777.33c.04.16.06.19.05.15-.02-.04-.03-.09-.04-.14,0,0,0,0,0-.01Z"/>
    </g>
    <path class="cls-1" d="M1025.84,772.25c-.02-1.33-1.61-1.93-2.56-1.06-4.47,4.09-8.49,8.63-12.07,13.52-.48.65-.11,1.67.54,2.05.76.44,1.57.12,2.05-.54,2.74-3.75,5.8-7.25,9.1-10.51.05,3.2.11,6.41.16,9.61.03,1.93,3.03,1.93,3,0-.07-4.36-.15-8.71-.22-13.07Z"/>
    <path class="cls-1" d="M1057.42,771.51c-1.55.12-3.09.29-4.62.53.03-2.48.06-4.96.09-7.44.02-1.93-2.98-1.93-3,0-.03,2.66-.06,5.33-.09,7.99-3.25.67-6.45,1.61-9.55,2.84-1.09.43-1.43,1.59-.66,2.51,2.94,3.53,6.83,6.13,11.18,7.59.94.32,1.89-.52,1.9-1.45.03-3,.07-6.01.1-9.01,1.54-.25,3.09-.44,4.65-.56,1.91-.14,1.93-3.14,0-3ZM1049.69,781.89c-2.39-1.07-4.55-2.56-6.42-4.39,2.13-.74,4.3-1.36,6.49-1.84-.02,2.08-.05,4.16-.07,6.24Z"/>
    <path class="cls-1" d="M1093.09,764.06c-1.21-2.16-3.84-4.2-6.24-2.39-.65.49-.97,1.29-.54,2.05.36.64,1.41,1.02,2.05.54,1.04-.79,1.9.81,2.33,1.68.79,1.63.77,3.55.77,5.32,0,3.66-.78,7.9-3.99,10.13-2.45,1.71-6.07,2.17-8.04-.51-1.84-2.5-1.17-6.19-.32-8.92.54-1.73,1.25-3.76,2.5-5.12.43-.47,1.12-1.08,1.79-.79.18.08.83.62.65.8-1.34,1.39.77,3.51,2.12,2.12,1.75-1.81.66-4.54-1.4-5.57-2.53-1.26-4.96.57-6.3,2.66-2.42,3.76-3.95,9.22-2.83,13.64,1.23,4.85,6.27,7.25,10.89,5.52,5.34-1.99,7.6-7.24,7.89-12.62.15-2.86.1-5.99-1.33-8.55Z"/>
    <path class="cls-1" d="M1125.51,788.45c-5.38-14.67-7.73-30.4-6.83-46,.1-1.76.46-3.77-.46-5.39-.94-1.66-2.78-2.04-4.53-2.12-4.68-.22-9.39.16-14,.91-1.9.31-1.09,3.2.8,2.89,3.72-.61,7.49-.89,11.26-.85,1.05.01,3.54-.34,3.99.94.46,1.32-.03,3.2-.09,4.55-.34,7.02-.03,14.06.9,21.02.91,6.87,2.41,13.65,4.52,20.25,1.03,3.22,2.3,6.34,3.46,9.51,1.14,3.11,2.02,6.66-.44,9.38-4.62,5.11-12.99,5.72-19.02,3.18-.75-.32-1.64.34-1.85,1.05-.25.86.3,1.53,1.05,1.85,6.21,2.62,13.77,1.97,19.38-1.82,2.92-1.97,5.04-4.76,5.06-8.4.02-3.83-1.88-7.42-3.17-10.93Z"/>
    <path class="cls-1" d="M1153.77,755.78h-12.2c-1.93,0-1.93,3,0,3h12.2c1.93,0,1.93-3,0-3Z"/>
    <path class="cls-1" d="M1153.77,766.75h-10.98c-1.93,0-1.93,3,0,3h10.98c1.93,0,1.93-3,0-3Z"/>
    <path class="cls-1" d="M1205.21,754.35c-.23-.87-1.05-1.16-1.85-1.05-1.37.19-2.75.24-4.13.17-.01-4.27-.15-8.54-.45-12.81-.13-1.92-3.13-1.93-3,0,.29,4.15.43,8.31.45,12.47-1.36-.24-2.7-.59-4.01-1.05-.92-.33-1.91.52-1.9,1.45.05,4.77,2.46,9.16,6.4,11.83,1,.68,2.2-.24,2.26-1.3.13-2.54.2-5.08.23-7.63,1.64.06,3.29-.02,4.94-.25.81-.11,1.23-1.14,1.05-1.85ZM1196.11,760.85c-1.29-1.49-2.15-3.3-2.54-5.24.88.23,1.76.41,2.65.55-.02,1.56-.06,3.13-.11,4.69Z"/>
    <path class="cls-1" d="M1239.81,742.2c-2.58,4.79-7.62,7.33-12.19,9.88-4.67,2.61-9.52,5.49-12.09,10.39-.89,1.71,1.69,3.23,2.59,1.51,2.52-4.82,7.53-7.38,12.1-9.92,2.28-1.27,4.61-2.61,6.7-4.21-1.04,3.6-1.7,7.3-1.92,11.07-.11,1.93,2.89,1.92,3,0,.35-5.96,1.84-11.82,4.4-17.21.82-1.72-1.66-3.24-2.59-1.51Z"/>
    <path class="cls-1" d="M1265.66,749.62c-3.71-2.06-8.7-1.32-11.57,1.85-.54.6-.59,1.53,0,2.12.55.55,1.58.6,2.12,0,.26-.29.55-.56.85-.81.06-.04.29-.2.34-.24.17-.11.35-.21.53-.31.18-.1.36-.19.55-.27.01,0,0,0,.01,0,.02,0,.02,0,.07-.02.09-.03.17-.06.26-.09.41-.14.83-.25,1.26-.32.01,0,.09-.01.14-.02.07,0,.21-.02.21-.02.2-.02.41-.03.61-.03.2,0,.41,0,.61.02.09,0,.18.02.27.02.03,0,.04,0,.06,0,0,0,0,0,.02,0,.4.08.8.16,1.19.29.07.02.39.15.4.15.19.09.37.18.55.28.71.39,1.64.17,2.05-.54.4-.69.17-1.66-.54-2.05Z"/>
    <g>
      <path class="cls-1" d="M1284.22,749.21s0,0,0,.01t0,0s0,0,0-.01c0,0,0,0,0,0Z"/>
      <path class="cls-1" d="M1291.46,746.27c-.4-.62-1.38-1.04-2.05-.54-.09.07-.18.13-.27.18-.02.01-.04.02-.07.04-.07.02-.24.08-.27.09-.05.01-.11.02-.16.03,0,0,0,0,0,0-.47.03-.93.01-1.39-.04-.11-.01-.21-.03-.32-.04-.02,0-.04,0-.06,0-.32-.04-.64-.09-.97-.12-.56-.05-1.1-.01-1.66.07-1.06.15-2.18.74-2.71,1.72-.52.96-.44,2.18.12,3.11.72,1.21,2.12,1.7,3.39,1.04.7-.36.96-1.4.54-2.05-.31-.48-.8-.71-1.31-.71.02,0,.03-.02.05-.03.03-.01.04-.02.05-.03.09-.03.18-.06.28-.08.07-.02.44-.03.2-.05-.26-.01.16,0,.21,0,.11,0,.21,0,.32,0,.25,0,.49.02.74.05.1.01.44.06.01,0,.21.03.41.06.62.08.26.04.53.07.79.09,1.15.1,2.44-.03,3.39-.74.32-.24.58-.49.69-.9.1-.36.05-.84-.15-1.16Z"/>
      <polygon class="cls-1" points="1284.22 749.22 1284.22 749.23 1284.22 749.22 1284.22 749.22"/>
    </g>
    <path class="cls-1" d="M1318.45,735.23c-6.13,7.97-14.08,14.42-23.07,18.9-1.73.86-.21,3.45,1.51,2.59,7.81-3.9,14.75-9.26,20.56-15.72-.67,5.39-.84,10.83-.49,16.27.12,1.92,3.13,1.93,3,0-.45-6.99-.06-14,1.22-20.88.33-1.74-1.71-2.5-2.74-1.16Z"/>
    <path class="cls-1" d="M1280.63,724.69c-2.42.67-2.87,3.74-3.56,5.79-.93,2.77-1.75,5.59-2.44,8.43-1.37,5.59-2.29,11.29-2.77,17.03-.54,6.53-.47,13.09.19,19.61.19,1.9,3.19,1.92,3,0-.88-8.67-.73-17.47.55-26.09.63-4.27,1.53-8.49,2.67-12.65.5-1.8,1.05-3.59,1.65-5.36,1.68,1,4.05,1.02,5.43-.47,2.85-3.06-1.35-7.21-4.72-6.28ZM1282.91,729.08c-.73.34-1.86-.17-1.87-.98.06-.16.13-.31.22-.39.27-.26.69-.18,1.03-.05.53.2,1.49,1.01.62,1.42Z"/>
    <path class="cls-1" d="M1338.18,762.05c-.41-8.89-1.75-17.76-3.98-26.37-1.29-4.96-2.88-9.84-4.75-14.61-.7-1.78-3.6-1-2.89.8,3,7.66,5.28,15.6,6.75,23.7,1.43,7.86,2.39,16.16,1.98,24.16-.14,2.59-.76,6.42-3.81,6.99-1.9.35-1.09,3.24.8,2.89,7.3-1.36,6.15-12.3,5.91-17.56Z"/>
    <path class="cls-1" d="M1365.63,739.9c-4.16-2.26-9.49-1.58-12.97,1.63-.6.55-.56,1.56,0,2.12.59.59,1.52.55,2.12,0,.58-.53,1.27-.98,2.1-1.38.2-.09.04-.02.16-.07.1-.04.2-.08.3-.11.2-.07.41-.14.62-.2.23-.07.47-.12.71-.17.11-.02.21-.04.32-.06.05,0,.11-.02.16-.03-.1.01-.1.01,0,0,.46-.06.92-.08,1.38-.07.22,0,.43.02.65.03.09,0,.17.02.26.03.02,0,.2.03.22.04.97.17,1.7.43,2.45.84.71.39,1.63.18,2.05-.54.4-.68.18-1.66-.54-2.05Z"/>
    <path class="cls-1" d="M1369.1,748.02c-5.2,1.38-10.62,1.81-15.97,1.24.29-.85.58-1.7.87-2.55.63-1.83-2.27-2.62-2.89-.8-.48,1.4-.96,2.8-1.43,4.2-.24.7.28,1.73,1.05,1.85,6.41.94,12.9.61,19.18-1.05,1.86-.49,1.07-3.39-.8-2.89Z"/>
    <path class="cls-1" d="M1406.52,753.67c-4.68-1.58-9.36-3.16-14.04-4.74,1.12-2.47,3.3-4.33,5.1-6.33,1.96-2.17,3.32-4.56,3.61-7.51.24-2.5-.6-5.25-2.89-6.55-1.68-.95-3.6-.85-5.45-.64-1.73.2-3.47.41-5.08,1.1-3.2,1.36-5.61,5.17-3.61,8.49,1,1.65,3.59.14,2.59-1.51-.74-1.23-.04-2.73,1-3.57,1.33-1.06,3.26-1.29,4.9-1.49,1.5-.18,3.5-.57,4.69.62.76.76.93,1.92.9,2.96-.09,2.94-1.87,5.06-3.8,7.08-2.21,2.33-4.49,4.68-5.33,7.88-.21.82.27,1.58,1.05,1.85,5.19,1.75,10.38,3.5,15.57,5.26,1.83.62,2.62-2.28.8-2.89Z"/>
    <path class="cls-1" d="M1506.65,579.21c-.27,6.86-8.35,9.91-14.22,9.56-4.13-.25-8.09-2.2-11.65-4.19-3.22-1.8-6.32-3.8-9.56-5.57,9.28-6.94,17.17-16.2,21.94-26.77,1.05-2.33,1.79-4.96,1.34-7.53-.48-2.7-2.62-4.55-5.34-4.77-5.57-.43-11.25,3.72-13.9,8.35-3.41,5.95-2.54,13.44,1.63,18.76,1.19,1.52,3.3-.62,2.12-2.12-3.07-3.92-3.81-9.65-1.67-14.17,1.91-4.03,6.06-7.41,10.6-7.82,6.06-.56,3.04,7.06,1.59,9.9-2.37,4.62-5.25,8.98-8.6,12.95-3.88,4.59-8.35,8.68-13.28,12.12-.85.59-1.09,2.05,0,2.59,6.93,3.43,13.13,8.52,20.69,10.57,5.83,1.58,12.49.47,17.16-3.48,2.51-2.12,4.02-5.11,4.15-8.4.08-1.93-2.92-1.93-3,0Z"/>
    <path class="cls-1" d="M1579.45,543.2c-3.52-4.3-8.85-6.79-13.85-8.92-10.8-4.59-22.96-7.13-34.57-4.36-2.35.56-4.99,1.28-6.56,3.26-1.94,2.44-.95,5.39-.01,8.02,1.11,3.13,2.32,6.23,3.59,9.3-.17.29-.24.66-.12,1.08,4.18,15.83,10.82,30.97,19.63,44.76.67,1.05,2.41.94,2.74-.36,1.37-5.41-.63-10.67-3.23-15.37-2.71-4.91-5.77-9.61-8.4-14.57-2.7-5.08-5.18-10.29-7.42-15.59-1.07-2.54-2.08-5.1-3.04-7.68-.47-1.28-.96-2.56-1.38-3.86-.4-1.22-.91-2.74-.03-3.88,1.33-1.7,4.34-2.1,6.3-2.5,2.71-.55,5.48-.78,8.24-.77,5.45.03,10.83,1.05,16.03,2.66,5.06,1.57,10.15,3.62,14.67,6.4,4.09,2.53,7.83,6.38,7.89,11.48.07,6.21-6.63,8.95-11.45,11.09-5.79,2.58-12.03,4.24-18.33,4.95-1.9.21-1.92,3.21,0,3,6.12-.69,12.12-2.15,17.82-4.5,2.73-1.12,5.4-2.39,7.95-3.89,2.25-1.32,4.44-2.95,5.71-5.29,2.56-4.7,1.03-10.54-2.2-14.49ZM1541.16,576.54c2.58,4.28,5.97,9.12,6.52,14.26-4.16-6.97-7.77-14.24-10.79-21.76,1.37,2.53,2.79,5.04,4.27,7.5Z"/>
  </g>
</svg>