<?xml version="1.0" encoding="UTF-8"?>
<svg id="Layer_2" data-name="Layer 2" xmlns="http://www.w3.org/2000/svg" viewBox="0 0 1326.68 380.51">
  <defs>
    <style>
      .cls-1 {
        fill: #000;
        stroke-width: 0px;
      }
    </style>
  </defs>
  <g id="Layer_2-2" data-name="Layer 2">
    <path class="cls-1" d="M67.4,83.02c-.72-7.11-2.03-14.18-3.88-21.08-2.05-7.66-4.8-15.12-8.15-22.31-.53-1.13-1.99-.8-2.59,0-1.8,2.4-4.9,3.46-7.82,3.34-3.28-.14-6.22-1.99-8.15-4.59-1.87-2.53-3.07-5.83-2.83-9,.18-2.36,1.35-5.71,4.09-6.08.81-.11,1.49-.61,1.5-1.5,0-.73-.7-1.61-1.5-1.5-6.72.89-8.06,8.98-6.4,14.4,1.96,6.39,7.64,11.74,14.64,11.25,2.75-.2,5.28-1.19,7.3-2.93,4.72,10.57,8.06,21.74,9.89,33.17.46,2.87.88,5.78,1.05,8.68.16,2.62.05,5.41-1.44,7.67-2.7,4.11-9.18,5.63-13.77,4.85-2.61-.44-5.04-1.73-6.32-4.13-1.09-2.04-1.3-4.8.29-6.65,1.25-1.46-.86-3.59-2.12-2.12-3.64,4.25-1.96,10.76,2.42,13.81,4.88,3.4,11.94,2.65,17.03.12,2.63-1.31,4.85-3.39,5.97-6.14,1.2-2.93,1.1-6.18.79-9.28Z"/>
    <path class="cls-1" d="M71.13,12.37l-1.22-6.1c-.15-.77-1.11-1.28-1.85-1.05-.82.26-1.21,1.02-1.05,1.85.41,2.03.81,4.07,1.22,6.1.15.77,1.11,1.28,1.85,1.05.82-.26,1.21-1.02,1.05-1.85Z"/>
    <path class="cls-1" d="M111.15,32h-10.98c-1.93,0-1.93,3,0,3h10.98c1.93,0,1.93-3,0-3Z"/>
    <path class="cls-1" d="M136.49,28.51c2.4-2.72,2.85-7.1.54-10.07-2.86-3.68-8.9-3.78-11.99-.36-1.29,1.43.83,3.56,2.12,2.12,1.89-2.09,5.68-2.27,7.5.06,1.81,2.32.74,5.97-1.75,7.29-1.13.6-.87,2.44.36,2.74,3.43.84,4.49,5.28,3.23,8.24-1.73,4.05-6.79,5.65-10.8,6-1.91.17-1.93,3.17,0,3,5.48-.49,11.82-2.81,13.8-8.48,1.28-3.66.13-8.31-3.01-10.55Z"/>
    <path class="cls-1" d="M179.99,39.79c-4.8-3.62-10.11-6.53-15.72-8.65,3.29-1.81,6.9-3.07,10.67-3.66,1.9-.3,1.09-3.19-.8-2.89-4.86.76-9.49,2.6-13.58,5.28-2.45-.76-4.95-1.37-7.49-1.83-1.89-.34-2.7,2.55-.8,2.89,1.76.31,3.49.73,5.2,1.19-3.5,2.86-6.46,6.37-8.63,10.35-.92,1.7,1.67,3.21,2.59,1.51,2.35-4.32,5.66-7.99,9.58-10.8,6.26,2.1,12.15,5.18,17.46,9.18,1.54,1.16,3.04-1.44,1.51-2.59Z"/>
    <path class="cls-1" d="M199.16,13.46c-.24-.86-1.04-1.16-1.85-1.05-3.46.49-6.98.33-10.38-.38,1.92-2.47,3.5-5.46,2.16-8.5-1.3-2.97-5.25-4.85-7.92-2.43-1.43,1.3.69,3.41,2.12,2.12.43-.39,1.02-.34,1.68.03.75.42,1.36,1.14,1.55,1.97.57,2.38-1.86,4.97-3.36,6.64-.75.83-.46,2.18.66,2.51,4.66,1.34,9.5,1.62,14.29.94.8-.11,1.24-1.14,1.05-1.85Z"/>
    <path class="cls-1" d="M233.88,40.39c-3.45.66-6.94,1.08-10.44,1.29-.33-6.16-1.03-12.29-2.1-18.37-.33-1.9-3.23-1.09-2.89.8,1.03,5.86,1.69,11.77,2,17.71-1.88.05-3.76.04-5.65-.04-1.93-.08-1.93,2.92,0,3,1.93.08,3.85.09,5.78.03.06,1.92.1,3.84.09,5.77-.01,1.93,2.99,1.93,3,0,.01-1.97-.03-3.94-.09-5.9,3.72-.23,7.43-.69,11.1-1.39,1.89-.36,1.09-3.25-.8-2.89Z"/>
    <path class="cls-1" d="M266.22,41c-1.4,1.26-3.06,2.18-4.88,2.68-.84.23-1.69.38-2.56.41-.8.04-1.95.15-2.68-.21-1.35-.67.06-4.08.46-5.11.76-1.93,1.81-3.72,2.65-5.61,1.5-3.39,2.41-7.12.73-10.62-1.3-2.72-4.45-4.92-7.53-3.86-2.98,1.03-5.21,5.01-3.08,7.8,1.15,1.52,3.76.02,2.59-1.51-.72-.95-.38-2.02.45-2.82.91-.87,2.07-.92,3.13-.28,2.95,1.78,2.61,5.71,1.62,8.5-1.25,3.51-3.55,6.61-4.27,10.31-.3,1.56-.52,3.4.47,4.77,1.01,1.4,2.87,1.61,4.46,1.66,3.9.12,7.68-1.39,10.55-3.98,1.44-1.3-.69-3.41-2.12-2.12Z"/>
    <path class="cls-1" d="M302.22,44.93c-5.56-4.39-11.12-8.77-16.68-13.16,2.68-3.08,5.81-5.75,9.33-7.89,1.65-1,.14-3.6-1.51-2.59-3.82,2.32-7.25,5.25-10.17,8.62-1.63-1.29-3.26-2.57-4.89-3.86-1.5-1.18-3.64.93-2.12,2.12,1.71,1.35,3.43,2.7,5.14,4.06-1.8,2.4-3.37,4.98-4.62,7.72-.34.74-.21,1.62.54,2.05.65.38,1.71.2,2.05-.54,1.2-2.62,2.68-5.09,4.39-7.38,5.48,4.32,10.95,8.64,16.43,12.96,1.5,1.18,3.64-.93,2.12-2.12Z"/>
    <path class="cls-1" d="M342.14,34c-4.97-1.05-10.08-1.3-15.12-.66-.8.1-1.5.62-1.5,1.5,0,.73.69,1.6,1.5,1.5,4.78-.6,9.61-.43,14.32.56.79.17,1.62-.23,1.85-1.05.2-.75-.25-1.68-1.05-1.85Z"/>
    <path class="cls-1" d="M362.53,27.8c-.01-1.53-2-1.99-2.8-.76-5.32,8.26-12.69,15.04-21.35,19.7-1.7.92-.19,3.51,1.51,2.59,7.69-4.14,14.39-9.93,19.66-16.87.04,5.63.09,11.26.13,16.89.02,1.93,3.02,1.93,3,0-.06-7.18-.11-14.37-.17-21.55Z"/>
    <path class="cls-1" d="M394.32,27.07c-.22-.82-1.05-1.22-1.85-1.05l-12.14,2.69c-.79.17-1.25,1.09-1.05,1.85.22.82,1.05,1.22,1.85,1.05,4.05-.9,8.09-1.79,12.14-2.69.79-.17,1.25-1.09,1.05-1.85Z"/>
    <path class="cls-1" d="M394.28,40.36c-.19-.7-1.09-1.36-1.85-1.05-4.12,1.74-8.52,2.59-12.99,2.48-1.93-.05-1.93,2.95,0,3,4.71.11,9.44-.76,13.79-2.59.75-.31,1.28-.99,1.05-1.85Z"/>
    <path class="cls-1" d="M445.72,36.55c-.31-4.41-2.19-9.01-6.46-10.91-2.21-.98-4.7-1.19-6.88-.48-2.22-1.04-4.99-.66-7.28.64-3.74,2.13-6.31,6.14-7.76,10.1-1.49,4.06-1.78,8.74-.25,12.83,2.77,7.36,11.53,12.16,18.96,8.53,7.18-3.5,10.18-13.26,9.66-20.71ZM437.37,52.67c-4.61,4.49-11.5,3.18-15.45-1.5-4.46-5.28-3.16-13.14.39-18.52,1.3-1.96,3.9-4.85,6.62-5.19-.14.17-.29.35-.42.54-1.11,1.58,1.49,3.08,2.59,1.51.27-.39.61-.68.97-.93,1.08,1.28,1.51,3.44-.13,4.22-1.75.82-.22,3.41,1.51,2.59,2.94-1.38,3.08-5.13,1.64-7.68.94,0,1.9.21,2.73.56,2.9,1.2,4.32,4.18,4.78,7.13.89,5.78-.96,13.11-5.22,17.27Z"/>
    <path class="cls-1" d="M592.73,50.87c-1.52-7.14-4.99-13.68-8.39-20.07-.83-1.55-3.09-.45-2.74,1.16,1.5,6.86-3.26,14.52-10.04,16.3-6.66,1.75-12.91-3.52-14.33-9.86-.38-1.7-.37-3.48.11-5.15.22-.77.51-1.64,1.07-2.23.24-.25.55-.49.87-.62.1-.04.25-.05.34-.12,0,0,0,0,0,0,.81,1.51,3.44.73,2.79-1.01-.83-2.24-3.19-2.4-5.04-1.24-1.87,1.17-2.78,3.35-3.17,5.45-.79,4.24.52,8.61,3.11,12.01,2.68,3.52,6.72,6.02,11.22,6.13,4.6.11,9.01-2.24,11.95-5.68,2.04-2.39,3.46-5.25,4.05-8.28,3.72,7.39,6.87,15.33,5.75,23.67-.55,4.12-2.15,8.25-5.03,11.31-3.32,3.52-8.02,5.05-12.72,5.57-2.68.29-5.49.46-8.18.26-1.12-.08-2.54-.32-3.27-1.28-.37-.49-.8-1.69-.17-2.17,1.52-1.15.03-3.75-1.51-2.59-1.98,1.49-2.27,4.1-.97,6.19,1.46,2.34,4.37,2.84,6.91,2.9,5.75.12,11.93-.36,17.12-3.05,9.9-5.14,12.42-17.48,10.27-27.59Z"/>
    <path class="cls-1" d="M632.46.69c-.66-.4-1.69-.18-2.05.54-3.53,6.98-5.98,14.49-7.12,22.23-.97,6.59-1.58,13.93.64,20.34,1.14,3.29,3.06,6.15,5.99,8.08,1.62,1.07,3.12-1.53,1.51-2.59-6.37-4.21-6.26-13.54-5.77-20.27.59-8.02,2.62-15.92,5.9-23.26.33,1.26,2.46,1.58,2.91.02.57-1.99-.25-4.02-2.01-5.09Z"/>
    <path class="cls-1" d="M652.7,22.65c-.81-.02-1.27.5-1.4,1.1-2.22-.21-4.69.62-6.31,2.13-3.4,3.18-3.53,8.75-1.5,12.68,2.21,4.28,7.03,6.21,11.64,4.98,4.52-1.21,8.28-5.22,8.18-10.06-.12-5.63-4.93-10.71-10.6-10.84ZM655.8,40.12c-2.92,1.38-6.44,1-8.64-1.46-2.07-2.31-2.69-6.15-1.28-8.95.79-1.57,2.03-2.58,3.75-2.94,1.33-.28,2.93-.03,3.37,1.21.64,1.81,3.54,1.03,2.89-.8-.11-.31-.24-.6-.39-.86,2.28,1.07,4.03,3.28,4.62,5.75.82,3.46-1.24,6.59-4.32,8.06Z"/>
    <path class="cls-1" d="M713.56,24.46c-4.07.39-8.13.77-12.2,1.16-.81.08-1.5.63-1.5,1.5,0,.75.69,1.58,1.5,1.5,4.07-.39,8.13-.77,12.2-1.16.81-.08,1.5-.63,1.5-1.5,0-.75-.69-1.58-1.5-1.5Z"/>
    <path class="cls-1" d="M720,38.53c-.23-.85-1.04-1.18-1.85-1.05-5.53.91-11.18,1.05-16.76.49-.81-.08-1.5.75-1.5,1.5,0,.88.69,1.42,1.5,1.5,5.86.58,11.74.35,17.55-.6.8-.13,1.25-1.12,1.05-1.85Z"/>
    <path class="cls-1" d="M665.64,5.57c-.77-1.77-3.35-.24-2.59,1.51,6.24,14.39,6.99,30.84,2.46,45.79-.17.08-.34.19-.5.37-1.51,1.64-2.08,3.84-1.45,6,.45,1.53,2.36,1.31,2.89,0,6.92-17.13,6.53-36.75-.81-53.67Z"/>
    <path class="cls-1" d="M751.79,31.64c-1.18-2.42-3.87-3.42-6.27-4.2-1.25-.41-3.71-.83-4.36-2.21,3.59-2.24,7.52-5.76,5.78-10.42-1.44-3.86-7.44-4.54-8.88-.3-.62,1.83,2.27,2.62,2.89.8.34-.99,1.96-.88,2.62-.32,1.24,1.04.74,3.18.01,4.35-1.05,1.69-2.86,2.66-4.5,3.67-1.4.86-1.28,2.48-.53,3.8,1.23,2.17,3.99,2.82,6.18,3.54,2.27.74,5.35,1.86,4.48,4.87-1.35,4.67-7.29,4.16-11.06,3.81-1.92-.17-1.91,2.83,0,3,3.74.34,8.03.59,11.16-1.89,2.44-1.93,3.94-5.52,2.49-8.48Z"/>
    <path class="cls-1" d="M751.74,63.04c.11-.89.09-1.8-.11-2.7-.38-1.74-2.83-1.21-2.95.4-.06.81-.03,1.6.05,2.38-.51,2.49-2.82,4.69-5.43,4.51-3.19-.22-5.54-3.8-4.72-6.81.51-1.87-2.39-2.66-2.89-.8-1.33,4.9,2.47,10.36,7.61,10.61,2.6.12,4.91-1.15,6.47-3.06.36,1.07.78,2.13,1.2,3.18,1.17,2.89,2.42,5.96,2.15,9.14-.2,2.38-1.43,4.43-3.89,4.87-1.59.29-3.51-.14-3.9-1.9-.42-1.88-3.31-1.09-2.89.8.61,2.76,3.28,4.21,5.96,4.18,2.85-.03,5.48-1.52,6.73-4.11,3.48-7.2-2.61-13.71-3.4-20.71Z"/>
    <path class="cls-1" d="M652.34,70.25c-2.63.89-5.16,2.01-7.6,3.3-1.47-1.52-2.85-3.11-4.15-4.79-.5-.64-1.6-.52-2.12,0-.63.63-.5,1.48,0,2.12,1.13,1.46,2.33,2.85,3.59,4.18-3.78,2.3-7.28,5.06-10.36,8.27-1.34,1.39.78,3.52,2.12,2.12,3.08-3.21,6.6-5.96,10.41-8.21,2.22,2.11,4.61,4.05,7.14,5.8.67.46,1.67.12,2.05-.54.44-.75.13-1.59-.54-2.05-2.07-1.43-4.03-3.02-5.88-4.73,1.98-1,4.03-1.88,6.14-2.6,1.82-.62,1.04-3.52-.8-2.89Z"/>
    <path class="cls-1" d="M61.48,209.55c-2.83-5.54-7.12-10.19-11.31-14.73-.91-.98-2.53-.19-2.56,1.06-.11,5.41-6.83,9.85-11.77,7.19-4.52-2.43-5.51-9.48-1.89-13.07,1.37-1.36-.75-3.48-2.12-2.12-3.93,3.9-3.98,10.55-.74,14.9,3.64,4.89,10.36,5.12,15.03,1.55,1.79-1.37,3.16-3.19,3.89-5.26,5.1,5.57,10.33,11.84,11.35,19.45.96,7.09-2.04,15.18-9.55,17.08-2.38.6-4.88.57-7.31.36-1.29-.11-2.56-.28-3.84-.48-.35-.05-.96-.03-1.27-.24h0c.43-.78.26-1.89-.85-2.16-2.42-.58-2.98,1.95-1.85,3.6,1.4,2.06,4.52,1.93,6.75,2.18,5.34.58,10.97.15,15.22-3.46,3.42-2.9,5.19-7.28,5.71-11.64.6-4.95-.64-9.8-2.89-14.2Z"/>
    <path class="cls-1" d="M68.97,163.96c-.09-.81-.63-1.5-1.5-1.5-.74,0-1.59.69-1.5,1.5.41,3.66.81,7.32,1.22,10.98.09.81.63,1.5,1.5,1.5.74,0,1.59-.69,1.5-1.5-.41-3.66-.81-7.32-1.22-10.98Z"/>
    <path class="cls-1" d="M101.42,193.3c-4.07.38-8.14.75-12.2,1.13-.81.07-1.5.64-1.5,1.5,0,.75.69,1.58,1.5,1.5,4.07-.38,8.14-.75,12.2-1.13.81-.07,1.5-.64,1.5-1.5,0-.75-.69-1.58-1.5-1.5Z"/>
    <path class="cls-1" d="M100.17,202.73h-10.98c-1.93,0-1.93,3,0,3h10.98c1.93,0,1.93-3,0-3Z"/>
    <path class="cls-1" d="M134.26,188.9c2.23-3.94,3.07-9.14-.11-12.75-2.75-3.12-8.44-4.1-11.28-.58-1.2,1.49.91,3.62,2.12,2.12,1.87-2.31,5.57-1.41,7.2.77,2.44,3.27.42,7.95-1.72,10.76-.72.95.27,2.24,1.3,2.26,3.13.05,6.06,2.75,6.09,5.95.03,3.19-2.84,5.97-5.97,6.07-1.93.06-1.93,3.06,0,3,4.74-.15,9.01-4.22,8.97-9.07-.03-3.97-2.93-7.39-6.59-8.54Z"/>
    <path class="cls-1" d="M176.3,187.19c-4.21,2.33-8.31,4.87-12.28,7.58-.48-.29-.95-.58-1.43-.87-4.14-2.51-8.28-5.02-12.42-7.53-1.66-1-3.16,1.59-1.51,2.59l12.68,7.69c-3.85,2.75-7.59,5.67-11.18,8.76-1.47,1.26.66,3.38,2.12,2.12,3.79-3.26,7.74-6.33,11.83-9.19,1.64,1,3.28,2.01,4.94,2.99,1.93,1.14,4.22,2.14,6.44,1.24,1.77-.71.99-3.62-.8-2.89-2.07.84-4.3-1.04-5.99-2.07-.62-.38-1.24-.75-1.86-1.13,3.56-2.38,7.22-4.62,10.98-6.7,1.69-.93.18-3.53-1.51-2.59Z"/>
    <path class="cls-1" d="M203.83,173.42c-3.45.04-6.9.08-10.35.12-.76,0-1.52.03-2.28.02-.28,0-.59,0-.86-.11-.06-.02-.41-.27-.26-.13-.14-.14-.05-.02-.1-.2.06.21,0-.22,0-.31.01-.16.18-.71.3-1.04.72-1.96,1.94-3.79,1.95-5.95,0-2.21-1.55-3.82-3.7-4.13-2.19-.31-4.69.78-5.16,3.12-.38,1.88,2.51,2.69,2.89.8.11-.54.3-.73.88-.9.53-.15,1.16-.1,1.58.13.18.1.32.2.41.38.07.14.12.6.08.91-.08.82-.44,1.64-.77,2.38-.72,1.62-1.82,3.49-1.37,5.33.66,2.72,3.61,2.72,5.86,2.7,3.64-.04,7.27-.08,10.91-.13,1.93-.02,1.93-3.02,0-3Z"/>
    <path class="cls-1" d="M231.88,188.11l-12.17,1.43c-.8.09-1.5.62-1.5,1.5,0,.74.69,1.59,1.5,1.5l12.17-1.43c.8-.09,1.5-.62,1.5-1.5,0-.74-.69-1.59-1.5-1.5Z"/>
    <path class="cls-1" d="M269.67,194.09c-5.13.46-10.29.33-15.37-.42,4.76-3.56,8.95-8.01,11.93-13.12,1.71-2.93,2.42-6.42.12-9.24-1.85-2.28-5.05-3.39-7.93-3.1-4.1.42-7.44,3.02-10.56,5.5-1.51,1.2.63,3.31,2.12,2.12,2.7-2.15,5.93-4.8,9.59-4.67,2.94.1,5.95,2.26,5.14,5.48-.45,1.78-1.64,3.39-2.68,4.86-1.12,1.6-2.36,3.11-3.69,4.54-2.57,2.76-5.46,5.16-8.64,7.19-1.01.65-.97,2.47.36,2.74,6.46,1.31,13.05,1.71,19.61,1.11,1.91-.17,1.93-3.17,0-3Z"/>
    <path class="cls-1" d="M304.45,175.14c-3.22,2.01-6.24,4.3-9.05,6.83-2.79-2.22-5.96-3.98-9.35-5.15-1.83-.63-2.61,2.26-.8,2.89,2.89,1,5.56,2.48,7.95,4.33-2.54,2.5-4.89,5.21-7,8.1-.48.65-.11,1.67.54,2.05.76.44,1.57.12,2.05-.54,2-2.74,4.24-5.3,6.67-7.66,2.52,2.42,4.6,5.29,6.1,8.47.35.73,1.4.92,2.05.54.75-.44.88-1.32.54-2.05-1.6-3.39-3.82-6.43-6.49-9,2.59-2.29,5.36-4.38,8.3-6.22,1.63-1.02.13-3.62-1.51-2.59Z"/>
    <path class="cls-1" d="M341.6,179.19c-2.75.25-5.5.51-8.26.76.03-4.51.05-9.02.08-13.52.01-1.93-2.99-1.93-3,0-.03,4.6-.05,9.2-.08,13.8-2.35.22-4.7.43-7.05.65-1.15.11-1.84,1.19-1.3,2.26,1.98,3.86,5.15,7.02,9.03,8.96,1,.5,2.25-.11,2.26-1.3.01-2.62.03-5.23.04-7.85,2.76-.25,5.52-.51,8.27-.76,1.91-.18,1.92-3.18,0-3ZM330.3,188.17c-1.77-1.23-3.27-2.75-4.49-4.52,1.51-.14,3.01-.28,4.52-.42,0,1.65-.02,3.29-.03,4.94Z"/>
    <path class="cls-1" d="M369.47,170.31c-.02-1.22-1.24-1.76-2.26-1.3-7.17,3.26-13.67,7.91-19.11,13.62-1.33,1.4.79,3.52,2.12,2.12,4.71-4.96,10.22-9.02,16.31-12.09.19,6.53.66,13.05,1.45,19.54.1.81.62,1.49,1.5,1.5.73,0,1.6-.7,1.5-1.5-.89-7.27-1.4-14.58-1.52-21.9Z"/>
    <path class="cls-1" d="M579.81,144.44c-6.45-1.79-12.27,3.31-14.29,9.08-1.19,3.39-1.36,7.07-1.34,10.62.02,3.74.14,7.5.48,11.22.34,3.71.92,7.42,1.99,10.99,1.05,3.51,2.67,6.75,4.44,9.95,1.65,2.98,3.38,5.99,4.17,9.34.76,3.23.31,6.52-1.23,9.45-3.55,6.8-10.75,10.13-17.54,12.95-.53-1.9.16-4.07,1.9-5.15,1.64-1.02.13-3.61-1.51-2.59-3.47,2.15-4.67,6.95-2.48,10.44.32.51,1.08.94,1.69.69,6.4-2.63,13.17-5.4,17.77-10.81,4.33-5.09,5.91-11.49,3.65-17.89-1.15-3.25-2.91-6.21-4.55-9.22-1.68-3.09-3.04-6.26-3.91-9.68-1.79-7.04-2.07-14.63-1.87-21.87.1-3.82.62-8.02,3.07-11.12,2.06-2.6,5.4-4.45,8.75-3.52,1.86.52,2.66-2.38.8-2.89Z"/>
    <path class="cls-1" d="M534.86,163.7c-.7-.17-1.59.19-1.81.93-3.88-.92-8.52.32-11.31,2.96-1.25,1.18-2.43,4.06.01,4.75,1.61.45,3.36-1.43,2.46-2.82.83-.61,1.62-1.18,1.88-1.31,1.12-.54,2.37-.85,3.61-.91,1.2-.06,2.46.13,3.59.6.28.69.7,1.33,1.29,1.89.44.41.94.48,1.39.36,1.62,2.75.2,7.18-2.79,8.22-.68-.03-1.38.05-2.06.27-1.66.53-1.28,2.81.4,2.95.71.06,1.39,0,2.02-.15,1.09.2,2.06.9,2.73,1.87,1.1,1.58,1.04,3.5.21,5.18-.53,1.09-1.28,2-2.17,2.76-.48-.72-1.5-1.09-2.27-.28-.67.7-1.33,1.4-2,2.11-.15.16-.25.34-.32.53-1.31.36-2.66.53-3.96.52-1.93-.01-1.93,2.99,0,3,2.12.01,4.35-.39,6.41-1.2,3.38.47,6.86-1.16,9.04-3.78,2.73-3.28,3.47-7.72,3.46-11.87-.01-6.56-2.61-14.87-9.8-16.57ZM539.51,189.41c-.15.24-.32.46-.5.68.29-.56.55-1.16.74-1.79.78-2.6.21-5.31-1.55-7.38-.42-.49-.9-.93-1.43-1.3,2.25-2.18,3.3-5.78,2.59-8.88,1.55,2.62,2.2,5.98,2.28,8.84.09,3.35-.27,6.96-2.14,9.83Z"/>
    <path class="cls-1" d="M610.22,185.06c-.22-.18-.44-.36-.66-.54-.71-.58-1.43-1.17-2.14-1.75-.81-.67-1.63-1.33-2.44-2,1.84-1.18,3.76-2.26,5.75-3.19.73-.34.92-1.4.54-2.05-.44-.75-1.32-.88-2.05-.54-2.33,1.09-4.54,2.37-6.66,3.79l-7.43-6.09c-.63-.51-1.51-.61-2.12,0-.53.53-.63,1.61,0,2.12,2.35,1.92,4.69,3.85,7.04,5.77-3.85,2.95-7.29,6.42-10.18,10.34-.48.65-.11,1.67.54,2.05.76.45,1.57.12,2.05-.54,2.8-3.8,6.19-7.12,9.97-9.91,1.14.93,2.27,1.86,3.41,2.79,1.05.86,2.08,1.73,3.14,2.57.99.77,2.44,1.27,3.5.3,1.73-1.59-.5-4.27-2.26-3.13Z"/>
    <path class="cls-1" d="M635.21,166.89c-3.78.66-7.65.73-11.45.22,1.31-3.6,2.32-7.84,0-11.14-1.94-2.75-6.03-4.62-9.04-2.36-.65.49-.97,1.29-.54,2.05.37.64,1.41,1.02,2.05.54,1.89-1.42,4.39.08,5.34,1.95,1.54,3-.19,6.92-1.31,9.76-.28.71.31,1.71,1.05,1.85,4.89.88,9.81.89,14.7.04,1.9-.33,1.09-3.22-.8-2.89Z"/>
    <path class="cls-1" d="M673.33,178.52c-6.49-.53-12.99-1.06-19.48-1.59-1.92-.16-1.91,2.84,0,3,6.49.53,12.99,1.06,19.48,1.59,1.92.16,1.91-2.84,0-3Z"/>
    <path class="cls-1" d="M712.71,188.67c-7,.93-14.06.44-20.85-1.43,4.42-4.33,10.34-8.1,10.27-14.94-.03-2.93-1.46-5.57-4.2-6.75-2.22-.95-5.04-.94-6.98.66-1.14.94-1.96,2.4-1.32,3.83.76,1.7,2.58,2.77,4.43,2.63,1.91-.14,1.93-3.14,0-3-.31.02-.6.03-.89-.09-.19-.08-.58-.57-.71-.61,0,0,0-.01.01-.02.15-.13.26-.35.43-.48.62-.5,1.48-.61,2.25-.56,2.28.14,3.83,1.77,3.97,4.04.41,6.74-7.33,10.56-11.09,14.98-.74.87-.46,2.14.66,2.51,7.72,2.52,15.96,3.3,24.01,2.23.81-.11,1.49-.61,1.5-1.5,0-.73-.7-1.61-1.5-1.5Z"/>
    <path class="cls-1" d="M738.42,144.98c-3.67.29-5.89,3.88-7.28,6.88-3.38,7.31-3.96,15.52-3.29,23.45.73,8.57,2.88,16.93,4.14,25.43.99,6.63,1.53,13.71-1.11,20.06-1.19,2.87-3.12,5.46-5.94,6.88-1.63.82-3.67,1.3-5.44.72-1.59-.52-2.97-2.35-2.04-4.01.94-1.69-1.65-3.2-2.59-1.51-1.71,3.07,0,6.81,3.11,8.13,3.14,1.34,6.91.39,9.67-1.43,5.11-3.37,7.22-9.57,7.92-15.38.94-7.79-.84-15.8-2.29-23.42-1.57-8.27-3.16-16.61-2.54-25.07.33-4.51,1.34-9.05,3.36-13.12.82-1.65,1.89-3.66,3.69-4.41,1.22-.51,3.65.22,3.11,1.91-.59,1.84,2.31,2.63,2.89.8,1.03-3.23-2.26-6.16-5.37-5.92Z"/>
    <path class="cls-1" d="M760.02,181.34c2.88-2.34,5.94-4.47,9.18-6.34,1.67-.96.16-3.56-1.51-2.59-3.56,2.05-6.93,4.41-10.09,7.03-2.91-2.28-5.82-4.57-8.73-6.85-.64-.5-1.49-.61-2.12,0-.53.51-.64,1.62,0,2.12,2.85,2.24,5.71,4.48,8.56,6.71-2.77,2.49-5.36,5.19-7.72,8.08-.51.63-.61,1.5,0,2.12.52.53,1.61.63,2.12,0,2.44-3,5.12-5.77,8-8.32,3.19,2.5,6.38,5.01,9.57,7.51.64.5,1.49.61,2.12,0,.53-.51.64-1.62,0-2.12-3.13-2.45-6.25-4.9-9.38-7.36Z"/>
    <path class="cls-1" d="M803.88,176.38c-1.18-.13-2.37-.18-3.56-.18-.12-2.06-.25-4.12-.44-6.18-.07-.81-.64-1.5-1.5-1.5-.75,0-1.57.69-1.5,1.5.19,2.09.33,4.19.45,6.29-3.56.29-7.07,1.13-10.37,2.49-.93.38-1.62,1.7-.66,2.51,3.83,3.23,7.86,6.23,12.06,8.97.98.64,2.24-.21,2.26-1.3.04-3.26,0-6.51-.13-9.77,1.13,0,2.27.05,3.4.18.81.09,1.5-.75,1.5-1.5,0-.88-.69-1.41-1.5-1.5ZM797.61,186.15c-2.49-1.71-4.91-3.51-7.26-5.4,2.33-.74,4.72-1.23,7.14-1.44.09,2.28.12,4.56.13,6.84Z"/>
    <path class="cls-1" d="M837.62,151.38c-6.17-.75-11.22,4.29-13.36,9.6-2.84,7.05-.85,14.86.92,21.91.98,3.92,1.97,7.84,2.95,11.76.96,3.83,2.01,7.7,2.22,11.66.21,3.85-.4,7.63-2.6,10.86-1.55,2.27-3.83,4.05-6.51,4.57-.02-.55-.04-1.1-.06-1.65-.07-1.92-3.07-1.93-3,0,.04,1.11.08,2.21.12,3.32.03.8.66,1.52,1.5,1.5,5.9-.12,10.44-4.66,12.43-9.94,2.55-6.79.47-14.38-1.22-21.11-.91-3.61-1.81-7.21-2.72-10.82-.93-3.71-1.97-7.45-2.32-11.28-.55-5.89.74-12.8,6.19-16.13,2.56-1.57,5.53-1.75,8.15-.24,2.42,1.39,4.33,4.03,3.6,6.92-.47,1.87,2.42,2.67,2.89.8,1.46-5.82-3.66-11.04-9.2-11.72Z"/>
    <path class="cls-1" d="M866.26,179.14c0-1.4-1.59-1.85-2.56-1.06-5.23,4.27-10.94,7.93-16.97,10.97-1.72.87-.21,3.46,1.51,2.59,5.3-2.67,10.32-5.84,15.03-9.44.01,2.47.03,4.93.04,7.4.01,1.93,3.01,1.93,3,0-.02-3.49-.04-6.97-.06-10.46Z"/>
    <path class="cls-1" d="M917.31,180.25c-7.72.78-15.49.92-23.23.43-1.93-.12-1.92,2.88,0,3,7.75.49,15.51.35,23.23-.43,1.9-.19,1.92-3.19,0-3Z"/>
    <path class="cls-1" d="M935.85,179.55c-4.45-4.93-10.48-8.33-17-9.59-1.89-.36-2.69,2.53-.8,2.89,5.49,1.06,10.48,3.68,14.45,7.57-5.26,3.8-10.53,7.61-15.79,11.41-1.55,1.12-.05,3.72,1.51,2.59,5.77-4.17,11.55-8.34,17.32-12.52.8-.58,1-1.59.3-2.36Z"/>
    <path class="cls-1" d="M966.7,166.83c1.93-2.87,1.83-7.1-.92-9.5-.12-.1-.25-.19-.37-.28,1.31-1.84,2.58-3.72,3.62-5.69,1.69-3.18,2.63-6.81.83-10.15-.92-1.7-3.51-.19-2.59,1.51,1.8,3.32-.72,7.24-2.58,9.96-.72,1.05-1.45,2.1-2.17,3.14-3.15-.52-6.68,1.01-7.96,4.05-.32.75-.22,1.6.54,2.05.63.38,1.74.21,2.05-.54.57-1.35,1.9-2.35,3.35-2.64-1.07,1.53-2.14,3.06-3.2,4.59-2.46,3.54-5,7.04-7.39,10.63-1.77,2.65-3.46,6.43-1.27,9.34,1.15,1.52,3.75.03,2.59-1.51-2.17-2.89,1.88-7.2,3.45-9.46,2.49-3.58,4.97-7.15,7.46-10.73.5-.72,1.02-1.44,1.54-2.16,2.08,1.65,1.7,5.37-.47,6.75-1.3.83-.71,2.68.76,2.8,3.36.26,4.67,4.84,3.29,7.46-.89,1.7-2.49,2.91-4.24,3.62-.93.37-1.93.63-2.92.76-.16.02-.34.04-.51.06-.15-1.93-3.84-2.41-4.24.06-.25,1.51,1.12,2.58,2.45,2.85,1.42.29,3.03.01,4.41-.33,5.41-1.33,10.17-6.38,8.14-12.22-.67-1.93-1.94-3.52-3.64-4.44Z"/>
    <path class="cls-1" d="M1000.95,177.3c-2.5-1.89-5.17-3.54-7.97-4.95,2.09-1.74,4.35-3.29,6.75-4.59,1.7-.92.18-3.51-1.51-2.59-2.97,1.61-5.72,3.56-8.22,5.8-2.12-.91-4.29-1.68-6.51-2.31-1.86-.52-2.66,2.37-.8,2.89,1.68.47,3.33,1.04,4.94,1.69-1.72,1.79-3.31,3.71-4.72,5.77-.46.67-.13,1.66.54,2.05.74.43,1.59.13,2.05-.54,1.49-2.17,3.19-4.17,5.06-6,3.12,1.48,6.09,3.27,8.86,5.37.65.49,1.68.1,2.05-.54.45-.77.11-1.56-.54-2.05Z"/>
    <path class="cls-1" d="M1022.12,160.15c-.44-.02-.89-.04-1.33-.06.07-1.21-.03-2.44-.32-3.62-.53-2.1-1.64-4.04-3.22-5.53-.51-.48-1.86-1.32-1.87-2.09,0-.44.47-.84.73-1.15.38-.46.74-.94,1.03-1.45,2.12-3.74,1.64-8.75-1.27-11.94-3.24-3.56-9.04-4.14-13.02-1.54-1.61,1.05-.11,3.65,1.51,2.59,1.44-.94,3.18-1.33,4.86-1.16-2.77.2-6.47,1.31-5.72,4.68.42,1.88,3.31,1.09,2.89-.8-.06-.28,1.37-.68,1.64-.74.81-.17,1.66-.19,2.48-.17,1.28.03,3.38.19,4.11,1.44,1.29,2.22-2.85,4.68-4.09,5.91-.23.22-.45.46-.66.7-2.27-.78-4.83-.56-6.5,1.39-1.24,1.46.87,3.59,2.12,2.12.79-.92,1.9-1.1,2.98-.84,0,0,0,.01,0,.02-.12.66-.1,1.42.13,2.06.42,1.12,1.61,1.12,2.56,1.6.43.22.83.48,1.22.77.41,2.79-.86,6.09-1.7,8.47-.34.96.54,1.86,1.45,1.9.93.04,1.87.08,2.8.12-1.72,3.03-5.41,4.94-8.88,4.27-1.92-.37-2.58,2.19-.8,2.89,3.96,1.56,8.55.59,11.79-2.1,1.55-1.29,2.6-2.98,3.2-4.84.63.03,1.26.05,1.88.08,1.93.08,1.93-2.92,0-3ZM1014.25,145.14c-.15.24-.32.48-.5.7-.33.4-.61.81-.84,1.23-.14-.14-.29-.27-.44-.39.54-.57,1.21-1.09,1.78-1.54ZM1015.16,155.87c.57,1.26.83,2.64.71,4.01-.56-.02-1.12-.05-1.69-.07.4-1.26.76-2.6.98-3.93Z"/>
    <path class="cls-1" d="M1013.3,192.01c-1.12-.09-2.24-.17-3.37-.26-.29-.02-.53.03-.74.13-16.83-.52-33.65-1.03-50.48-1.55-1.93-.06-1.93,2.94,0,3,18.19.56,36.39,1.12,54.58,1.68,1.95.06,1.9-2.85,0-3Z"/>
    <path class="cls-1" d="M993.4,215.13c-1.12-2.11-3.3-3.14-4.9-4.75,2.01-1.84,3.2-4.42,3.19-7.22,0-.83-.69-1.48-1.5-1.5l-9.52-.23c-1.93-.05-1.93,2.95,0,3,2.62.06,5.24.13,7.86.19-.37,1.73-1.38,3.26-2.92,4.24-.64.41-1.02,1.37-.54,2.05,1.32,1.89,3.29,2.93,4.87,4.55,1.5,1.54,1.57,3.65.62,5.51-2.48,4.86-8.65,4.79-13.37,4.75-1.93-.02-1.93,2.98,0,3,5.84.06,12.91-.35,15.96-6.23,1.18-2.29,1.49-5.04.25-7.37Z"/>
    <path class="cls-1" d="M1011.38,210.54c-5.49,6.63-12.23,12-19.33,16.81-7.53,5.1-15.37,9.75-23.09,14.55-1.64,1.02-.13,3.61,1.51,2.59,7.85-4.87,15.81-9.59,23.45-14.79,7.17-4.88,14.03-10.33,19.58-17.04,1.22-1.48-.89-3.61-2.12-2.12Z"/>
    <path class="cls-1" d="M1054.4,180.77c-1.83-2.29-4.82-2.67-7.56-2.53-1.4.07-2.79.25-4.18.33-.49.03-.99.04-1.48.04-.32-2.71-4.66-1.72-4.02.92.55,2.31,3.58,2.15,5.4,2.05,1.9-.11,3.79-.41,5.69-.37,1.63.03,2.99.37,4.03,1.68.51.63,1.59.53,2.12,0,.63-.63.51-1.49,0-2.12Z"/>
    <path class="cls-1" d="M1099.8,155.03c-6.05,5.55-11.94,11.35-17.57,17.38.72-1.07,1.37-2.18,1.87-3.34,1.49-3.45,1.14-7.81-2.48-9.78-3.18-1.73-6.99.25-7.21,3.93-.24,3.97,3.99,5.82,7.11,4.26-.22.56-.49,1.11-.77,1.6-3.4,5.96-9.14,10.74-15.18,13.84-1.54.79-.46,3.17,1.16,2.74,1.41-.37,2.86-.54,4.31-.5-1.23,1.5-2.44,3-3.63,4.53-1.05,1.35-1.9,3.57-.13,4.76,1.26.85,3.31.44,3.61-1.21.17-.9-.4-1.55-1.08-1.78.32-.42.67-.83,1-1.24.58-.72,1.17-1.44,1.76-2.15.65-.79,1.32-1.57,1.99-2.36,2.32.69,4.15,2.06,6.29,3.16,2,1.03,4.19,1.5,6.26.42,1.85-.96,3.12-3.03,2.4-5.11-.63-1.81-3.53-1.03-2.89.8.6,1.72-2,2.12-3.13,1.77-1.96-.6-3.57-2.08-5.42-2.94-.47-.22-.94-.41-1.42-.58,2.61-3.03,5.27-6.01,8-8.93,5.53-5.94,11.3-11.65,17.28-17.14,1.43-1.31-.7-3.43-2.12-2.12ZM1080.26,164.82c-.92.71-2.56.21-2.83-.92-.27-1.11.55-2.34,1.73-2.3,1.26.04,2.35,1.31,2.69,2.43.06.21.1.42.13.63-.51-.25-1.16-.27-1.72.16ZM1072.38,182.26c1.23-.88,2.4-1.85,3.53-2.85-.86.99-1.72,1.99-2.56,2.99-.32-.05-.64-.1-.97-.14Z"/>
    <path class="cls-1" d="M1122.68,167.75c-3.34,1.59-6.54,3.44-9.62,5.49-2.37-1.45-4.86-2.72-7.46-3.76-.75-.3-1.65.33-1.85,1.05-.23.86.29,1.54,1.05,1.85,1.93.77,3.79,1.7,5.58,2.74-3.87,2.82-7.49,5.97-10.78,9.45-.15.08-.3.19-.44.35-.67.78-1.34,1.56-2.01,2.34-1.25,1.46.86,3.59,2.12,2.12,4.1-4.76,8.76-8.95,13.86-12.55,2.82,1.92,5.43,4.15,7.76,6.65,1.32,1.42,3.44-.71,2.12-2.12-2.2-2.36-4.63-4.46-7.23-6.31,2.7-1.74,5.49-3.32,8.4-4.71,1.74-.83.22-3.42-1.51-2.59Z"/>
    <path class="cls-1" d="M1133.23,161.95c-.92-1.32-2.22-1.86-3.8-1.93-1.36-.06-2.74.3-4.09.12-3.03-.41-.91-3.92.35-5.16,1.13-1.12,2.55-1.92,3.75-2.97,1.15-1.02,2.2-2.24,2.7-3.71.98-2.9-.79-5.81-3.75-6.4-1.4-.28-2.92-.11-4.13.68-1.74,1.14-2.04,3.23-2.61,5.08-.57,1.85,2.32,2.64,2.89.8.25-.82.51-1.64.76-2.46.16-.52.26-.73.69-.97.63-.35,1.52-.36,2.29-.05.68.27,1.12.76,1.14,1.59.02,1.2-.9,2.2-1.71,2.97-1.06,1-2.28,1.78-3.42,2.69-1.09.87-2.03,2.03-2.66,3.28-1.23,2.46-1.24,5.7,1.55,7.08,1.38.68,2.92.62,4.41.51.87-.06,2.53-.4,3.06.37,1.1,1.57,3.7.08,2.59-1.51Z"/>
    <path class="cls-1" d="M1118.41,198.92c-15.84-.53-31.69-1.07-47.53-1.6-1.93-.06-1.93,2.94,0,3,14.75.5,29.49.99,44.24,1.49-.81.88-.48,2.64,1,2.52,2.14-.18,3.72-1.73,3.79-3.91.03-.83-.71-1.47-1.5-1.5Z"/>
    <path class="cls-1" d="M1104.77,235.54c-4.89,2.57-10.3,3.8-15.77,3.71,3.48-4.82,6.97-9.63,10.45-14.45,1.13-1.57-1.47-3.07-2.59-1.51-2.56,3.54-5.12,7.09-7.69,10.63.39-.67.76-1.33,1.05-1.96,1.16-2.5,1.86-5.59.1-8.01-2.97-4.09-10.66-3.16-11.97,1.92-.48,1.87,2.41,2.67,2.89.8.84-3.24,6.79-3.03,7.14.41.24,2.33-1.39,4.58-2.43,6.53-1.19,2.25-2.08,4.54-1.71,7.09-3.33,4.61-6.66,9.21-10,13.82-1.13,1.57,1.47,3.07,2.59,1.51,3.35-4.63,6.69-9.25,10.04-13.88,6.7.52,13.44-.89,19.39-4.03,1.71-.9.19-3.49-1.51-2.59Z"/>
    <path class="cls-1" d="M1165.15,178.76c-.8-.12-1.61-.23-2.41-.35.62-2.16,1.24-4.32,1.85-6.49.53-1.86-2.36-2.65-2.89-.8-.65,2.28-1.31,4.57-1.96,6.85-1.86-.27-3.72-.53-5.58-.8-.11-.03-.22-.05-.33-.07-.28-.03-.56-.07-.84-.1-.73-.09-1.39.64-1.47,1.3-.08.66.33,1.54,1.07,1.65,2.11.3,4.21.6,6.32.91-.78,2.71-1.55,5.42-2.32,8.14-.53,1.86,2.36,2.65,2.89.8.81-2.83,1.62-5.67,2.43-8.5.81.12,1.63.23,2.44.35.8.11,1.61-.2,1.85-1.05.19-.7-.24-1.73-1.05-1.85Z"/>
    <path class="cls-1" d="M1206.03,173.18c-3.62,2.53-7.23,5.07-10.85,7.6-3.53-2.74-7.26-5.22-11.16-7.4-1.69-.94-3.2,1.65-1.51,2.59,3.52,1.97,6.89,4.19,10.09,6.62-3.57,2.5-7.14,5-10.7,7.5-1.57,1.1-.07,3.7,1.51,2.59l11.65-8.16c3.2,2.61,6.23,5.44,9.04,8.49,1.31,1.42,3.43-.7,2.12-2.12-2.68-2.91-5.57-5.63-8.61-8.15,3.31-2.32,6.63-4.64,9.94-6.96,1.57-1.1.07-3.7-1.51-2.59Z"/>
    <path class="cls-1" d="M1250.7,169.44c-3.85-1.2-7.92-1.4-11.88-.68-.8.14-1.25,1.11-1.05,1.85.23.84,1.05,1.19,1.85,1.05,3.43-.62,6.96-.36,10.29.68.77.24,1.64-.28,1.85-1.05.22-.8-.27-1.6-1.05-1.85Z"/>
    <path class="cls-1" d="M1248.51,180.95c-2.81-1.76-6.1-2.74-9.41-2.82.52-1.33,1.03-2.66,1.55-3.99.29-.76-.32-1.65-1.05-1.85-.85-.23-1.55.29-1.85,1.05-.77,1.99-1.54,3.97-2.31,5.96-.33.86.53,1.99,1.45,1.9,3.58-.36,7.05.43,10.1,2.34.69.43,1.65.15,2.05-.54.42-.72.15-1.62-.54-2.05Z"/>
    <path class="cls-1" d="M1292.56,197.36c-1.04-7.14-4.33-13.84-4.16-21.16.03-1.22-1.72-2.09-2.56-1.06-2.99,3.68-6.99,8.64-12.37,7.41-1.89-.43-3.86-1.84-3.59-4,.2-1.64,1.61-3.6,3.45-3.06,1.85.55,2.65-2.34.8-2.89-3.08-.91-5.84,1.3-6.86,4.11-1.1,3.04.24,6.16,2.98,7.77,2.77,1.64,6.35,1.57,9.24.3,2.41-1.06,4.36-2.81,6.11-4.74.5,4.43,1.88,8.72,3,13.04,1.19,4.6,1.99,9.52.67,14.19-1.24,4.39-4.56,7.46-8.99,8.46-4.32.98-8.93.18-13.15-.93-2.54-.67-5.31-1.36-7.58-2.73-1.99-1.19-3.78-3.73-2.22-5.97,1.11-1.59-1.49-3.09-2.59-1.51-1.51,2.17-1.18,5.12.24,7.26,1.55,2.33,4.16,3.54,6.72,4.43,4.88,1.7,10.16,3.04,15.36,2.85,5.06-.18,9.86-2.08,12.88-6.29,3.17-4.42,3.39-10.28,2.63-15.47Z"/>
    <path class="cls-1" d="M1324.79,160c-2.75,1.14-5.59,2-8.49,2.62v-.88c1.27-2.46,2.53-4.92,3.8-7.38.61-1.18-.39-2.49-1.69-2.2-1.8.4-3.54.98-5.2,1.73,1.28-1.73,2.55-3.46,3.83-5.2,1.15-1.56-1.46-3.05-2.59-1.51-2.84,3.85-5.69,7.71-8.53,11.56-1.06,1.44,1.15,2.88,2.36,1.82,1.54-1.36,3.22-2.49,5.02-3.4v3.86c-.5.98-1.01,1.95-1.51,2.93-.62,1.2.32,2.25,1.51,2.21v.27c0,.78.69,1.54,1.5,1.5.81-.04,1.5-.66,1.5-1.5v-.75c2.25-.44,4.46-1.04,6.62-1.79-1.24,3.91-2.97,7.63-5.19,11.11-1.04,1.63,1.56,3.14,2.59,1.51,2.87-4.52,5-9.48,6.31-14.68.25-1-.73-2.31-1.85-1.85Z"/>
    <path class="cls-1" d="M22.15,150.76c-6.35.44-11.12,5.04-13.89,10.49-3.39,6.67-4.03,14.5-3.66,21.87.43,8.34,2.23,16.54,3.78,24.72,1.61,8.47,2.68,16.97,2.74,25.6.03,4.53.08,9.35-1.67,13.61-1.36,3.33-4.27,6.5-8.02,6.92-1.9.21-1.92,3.21,0,3,7.5-.83,11.37-7.9,12.28-14.73.55-4.12.47-8.34.33-12.48-.15-4.3-.53-8.59-1.11-12.85-1.13-8.34-3.14-16.53-4.39-24.85-1.21-8-1.74-16.46.42-24.35,1.7-6.21,6.07-13.45,13.19-13.94,1.92-.13,1.93-3.13,0-3Z"/>
    <path class="cls-1" d="M131.49,146.98c-3.6-.74-7.43-.13-10.46,2.01-2.86,2.02-4.84,4.97-6.28,8.11-3.26,7.13-4.38,15.03-4.1,22.82.29,8.24,2.23,16.15,4.17,24.13,1.82,7.51,3.55,15.7,1.06,23.27-2.1,6.38-7.31,12.61-14.48,12.84-1.93.06-1.93,3.06,0,3,6.3-.2,11.52-4.15,14.76-9.38,3.86-6.22,4.46-13.47,3.52-20.6-1.08-8.17-3.81-16-5.11-24.13-1.25-7.78-1.46-15.91.45-23.61,1.83-7.37,6.33-17.51,15.69-15.58,1.88.39,2.69-2.5.8-2.89Z"/>
    <path class="cls-1" d="M464.79,183.39c-14.59-1.3-29.24-1.76-43.89-1.37-1.93.05-1.93,3.05,0,3,14.64-.39,29.3.06,43.89,1.37,1.92.17,1.91-2.83,0-3Z"/>
    <path class="cls-1" d="M484.53,183.31c-.56-3.08-4.08-4.6-6.66-5.65-2.98-1.22-6.18-1.84-9.4-1.9-1.93-.03-1.93,2.97,0,3,2.81.05,5.57.59,8.18,1.62,1.25.49,2.5,1.1,3.61,1.85.82.55,1.51,1.3,1.34,2.35-.38,2.24-2.95,3.48-4.69,4.49-2.13,1.23-4.05,2.65-4.95,5.02-.29.76.32,1.65,1.05,1.85.84.23,1.56-.29,1.85-1.05.85-2.23,3.68-3.18,5.53-4.36,2.39-1.53,4.71-4.18,4.16-7.22Z"/>
    <path class="cls-1" d="M59.65,353.18c-1.55-5.34-3.79-10.48-6.62-15.26-.83-1.4-2.61-.62-2.8.76-.64,4.84-6.53,8.35-11.07,6.54-4.39-1.76-6.37-7.71-4.07-11.78.95-1.68-1.64-3.2-2.59-1.51-3.26,5.78-.39,13.87,5.87,16.19,5.34,1.98,11.18-1.03,13.69-5.79,3.3,6.2,5.81,13.14,6.43,20.09.55,6.24-1.17,13.96-8.41,15.03-2.76.41-5.68-.43-7-3.04-.88-1.72-3.46-.2-2.59,1.51,3.16,6.22,12.15,5.58,16.68,1.36,6.44-6,4.66-16.62,2.49-24.09Z"/>
    <path class="cls-1" d="M91.23,333.24c-5.88,1.23-11.89,1.61-17.88,1.17-1.93-.14-1.92,2.86,0,3,6.26.46,12.54,0,18.68-1.28,1.89-.4,1.09-3.29-.8-2.89Z"/>
    <path class="cls-1" d="M91.74,343.79c-.45-.76-1.31-.87-2.05-.54-4.36,1.92-9.18,2.61-13.91,2.15-.81-.08-1.5.75-1.5,1.5,0,.88.69,1.42,1.5,1.5,5.29.51,10.57-.42,15.42-2.56.74-.33.91-1.41.54-2.05Z"/>
    <path class="cls-1" d="M137.06,340.84c-3.01-1.21-5.88-2.73-8.59-4.5,3.36-3.81,6.54-7.77,9.53-11.88,1.14-1.56-1.46-3.06-2.59-1.51-2.94,4.05-6.09,7.94-9.41,11.68-3.05-2.25-5.86-4.84-8.35-7.71-1.27-1.46-3.38.67-2.12,2.12,2.53,2.92,5.38,5.52,8.46,7.81-2.1,2.28-4.27,4.5-6.5,6.66-1.39,1.34.73,3.46,2.12,2.12,2.36-2.28,4.64-4.63,6.85-7.05,3.08,2.03,6.35,3.77,9.8,5.16.76.3,1.64-.33,1.85-1.05.24-.85-.3-1.54-1.05-1.85Z"/>
    <path class="cls-1" d="M157.29,301.56c-3.13-3.66-8.35-.74-11.36,1.48-.65.48-.98,1.3-.54,2.05.38.64,1.4,1.02,2.05.54,1.32-.97,2.71-2.01,4.29-2.51.68-.22,1.4-.35,2.12-.23.16.03.32.06.48.12.03,0,.08.03.1.04.24.12.33.2.42.29.33.31.45.48.67.98-.05-.12.1.34.13.46.03.1.05.21.06.32,0,.02,0,.07,0,.12,0,.12,0,.25,0,.37,0,.02,0,.04,0,.05,0,.02,0,.03-.01.05-.02.09-.05.18-.07.27,0,.02,0,.03-.01.05,0-.02,0-.02-.02.03-.04.08-.07.12-.08.14-.04.03-.08.05-.12.08-.05.01-.24.08-.26.09-1.34.34-1.36,2.03-.36,2.74.59.42.75,1.15.73,1.87-.02.82-.37,1.73-.94,2.38-1.6,1.83-4.5,2.13-6.76,2.41-.8.1-1.5.62-1.5,1.5,0,.73.69,1.6,1.5,1.5,3.42-.42,7.34-1,9.48-4.04,1.37-1.95,1.62-4.59.49-6.57,1.48-1.72,1.03-4.78-.47-6.54Z"/>
    <path class="cls-1" d="M187.98,329.54c-5.03-.26-10.1.25-14.98,1.5-1.87.48-1.08,3.37.8,2.89,4.64-1.18,9.4-1.64,14.18-1.39,1.93.1,1.92-2.9,0-3Z"/>
    <path class="cls-1" d="M229.09,335.08c-2.61-2.46-5.38-4.74-8.28-6.83,2.5-2.27,4.89-4.68,7.13-7.22,1.27-1.44-.84-3.57-2.12-2.12-2.36,2.69-4.88,5.22-7.54,7.59-4.22-2.82-8.69-5.26-13.37-7.25-.75-.32-1.6-.22-2.05.54-.38.63-.21,1.74.54,2.05,4.37,1.86,8.56,4.1,12.53,6.68-2.32,1.93-4.74,3.73-7.24,5.42-.47-.77-1.51-1.16-2.25-.29l-3.17,3.73c-1.06,1.25.27,3.25,1.82,2.36,4.75-2.74,9.24-5.92,13.42-9.47,2.97,2.11,5.81,4.42,8.48,6.92,1.41,1.32,3.53-.8,2.12-2.12Z"/>
    <path class="cls-1" d="M247.92,308.55c-2.93,1.64-7.28-.68-7.53-4.07-.14-1.95,0-4.49-2.08-5.5-1.23-.6-2.42-.19-3.52.42-.31-.45-.83-.77-1.5-.79-1.09-.04-2.23.63-2.38,1.78-.19,1.51,1.22,2.54,2.6,2.58.63.02,1.27-.16,1.83-.43.52-.25,1.01-.73,1.57-.86.14-.03,0-.05.17.04-.2-.11-.02.02.06.2.08.18.15.75.18,1.08.08,1.08.03,2.17.35,3.22.64,2.14,2.28,3.94,4.28,4.92,2.38,1.16,5.14,1.31,7.49,0,1.69-.94.17-3.53-1.51-2.59Z"/>
    <path class="cls-1" d="M273.33,326c-3.1-.26-6.21-.34-9.31-.27-.43-4.13-1.11-8.23-2.04-12.28-.43-1.88-3.33-1.08-2.89.8.88,3.83,1.52,7.71,1.94,11.61-3.37.19-6.73.57-10.06,1.13-1.9.32-1.09,3.21.8,2.89,3.16-.54,6.34-.88,9.54-1.05.18,2.36.28,4.74.29,7.11,0,1.93,3.01,1.93,3,0,0-2.41-.11-4.82-.29-7.22,3.02-.06,6.03.03,9.04.28,1.92.16,1.91-2.84,0-3Z"/>
    <path class="cls-1" d="M305.94,330.72c-3.51-1.87-7.03-3.75-10.54-5.62,2.86-2.34,5.77-4.6,8.77-6.75,1.56-1.11.06-3.72-1.51-2.59-3.47,2.48-6.84,5.09-10.13,7.81-3.55-1.89-7.1-3.78-10.65-5.67-1.7-.91-3.22,1.68-1.51,2.59,3.24,1.72,6.47,3.45,9.71,5.17-2.87,2.46-5.67,5-8.38,7.65-1.38,1.35.74,3.47,2.12,2.12,2.93-2.87,5.96-5.61,9.08-8.26,3.84,2.05,7.69,4.09,11.53,6.14,1.7.91,3.22-1.68,1.51-2.59Z"/>
    <path class="cls-1" d="M345.26,315.89c-1.7.19-3.41.39-5.11.58-.5-4.37-.99-8.75-1.49-13.12-.16-1.37-2-2.17-2.8-.76-.6,1.07-1.2,2.13-1.8,3.2-.81,1.45.98,2.76,2.1,2.04.34,2.99.68,5.98,1.02,8.98-3.02.34-6.04.69-9.05,1.03-.8.09-1.5.62-1.5,1.5,0,.74.69,1.59,1.5,1.5,3.13-.36,6.26-.72,9.39-1.07.29,2.56.58,5.12.87,7.68.22,1.9,3.22,1.92,3,0-.3-2.67-.61-5.35-.91-8.02,1.59-.18,3.19-.36,4.78-.55.8-.09,1.5-.62,1.5-1.5,0-.74-.69-1.59-1.5-1.5Z"/>
    <path class="cls-1" d="M380.02,325.72c-4.24,4.42-11.77,3.45-15.96-.55-5.05-4.84-3.65-12.9.69-17.71,1.31-1.45,2.86-2.65,4.62-3.5.89-.43,1.94-.88,2.94-.87.4,0,1.61.56,1.02.86-1.73.86-.21,3.45,1.51,2.59,2.07-1.04,1.99-3.97.43-5.43-2.04-1.91-5.26-.79-7.42.26-4.1,1.99-7.23,5.69-8.88,9.89-1.65,4.19-1.63,9.18.67,13.13,2.05,3.52,5.76,5.95,9.7,6.83,4.55,1.02,9.49.06,12.79-3.38,1.34-1.39-.78-3.52-2.12-2.12Z"/>
    <path class="cls-1" d="M42.19,303.36c-2.22.91-4.31-.83-5.52-2.6-1.39-2.04-2.04-4.48-3.31-6.59-1.28-2.11-3.49-4.46-6.19-4.26-2.69.2-4.26,3.23-2.5,5.38.51.63,1.59.53,2.12,0,.62-.62.51-1.49,0-2.12.18.23.02-.04.21-.13.33-.16.57-.17.95-.05.89.27,1.65,1.05,2.2,1.77,1.26,1.64,1.96,3.66,2.83,5.52,1.28,2.7,3.84,5.76,6.91,6.31-1.6,1.9-4.17,2.91-6.69,2.63-.81-.09-1.5.75-1.5,1.5,0,.89.69,1.41,1.5,1.5,4.73.53,9.29-2.59,10.83-7.01.35-1.01-.8-2.28-1.85-1.85Z"/>
    <path class="cls-1" d="M308.03,295.11c-9.94-9.42-22.25-20.35-37-18.9-8,.79-15.26,4.71-23.37,4.95-4.11.12-8.2-.39-12.21-1.27-4.05-.89-7.91-2.28-11.88-3.46-1.99-.59-4.07-.99-6.15-.72-1.85.23-3.56.98-5.2,1.85-3.35,1.78-6.56,3.35-10.29,4.22-7.41,1.72-15.14,1.21-22.67.82-7.29-.38-14.5-.55-21.74.47-6.86.97-13.59,2.82-19.99,5.45-12.75,5.24-24.3,13.46-33.13,24.08-1.08,1.29-2.11,2.62-3.11,3.98-1.15,1.55,1.45,3.05,2.59,1.51,7.98-10.8,18.76-19.39,30.89-25.1,6.09-2.87,12.54-4.97,19.14-6.28,6.79-1.34,13.64-1.62,20.55-1.34,7.48.3,15.01,1.04,22.48.25,3.61-.38,7.19-1.09,10.58-2.41,1.7-.66,3.32-1.46,4.92-2.35,1.57-.87,3.17-1.81,4.96-2.13,2.04-.37,4.11.2,6.04.81,1.93.61,3.84,1.28,5.78,1.85,3.78,1.11,7.62,1.96,11.53,2.44,3.96.48,7.94.48,11.88-.12,3.88-.59,7.59-1.89,11.35-2.97,3.63-1.05,7.29-1.82,11.09-1.6,3.37.2,6.7,1.11,9.78,2.47,6.43,2.84,11.99,7.33,17.17,12.02,1.31,1.19,2.6,2.39,3.88,3.61,1.4,1.33,3.53-.79,2.12-2.12Z"/>
    <path class="cls-1" d="M220.28,249.95c-2.24-4.56-9.71-6.95-13.23-2.49-.26.33-.41.71-.42,1.09-2.69-1.29-5.25.87-6.65,3.06-3.16,4.94-6.1,12.73-.46,17.05,5.03,3.86,11.57,1.67,15.8-2.28,4.25-3.96,7.79-10.7,4.96-16.44ZM215.61,261.56c-2.37,3.32-6.46,6.63-10.79,6.11-1.77-.21-3.59-1.07-4.63-2.55-1.37-1.96-.98-4.44-.25-6.56.46-1.33,1.08-2.6,1.73-3.85.52-1,1.06-2.02,1.87-2.81.54-.52,1.32-1.03,2.02-.52.39.28.75.71.39,1-.64.51-.52,1.59,0,2.12.62.63,1.49.5,2.12,0,1.5-1.2,1.24-3.11.25-4.5.33-.03.64-.16.85-.42,1.96-2.48,5.65-1.52,7.58.52,3.05,3.21,1.04,8.4-1.14,11.47Z"/>
    <path class="cls-1" d="M515.85,313.29c5.01-2.32,8.41-8.02,7.09-13.64-1.54-6.6-9.32-10.76-15.67-8.56-1.81.63-1.03,3.53.8,2.89,4.74-1.64,10.56,1.23,11.9,6.16,1.42,5.2-3.03,10.93-8.31,11.23-1.34.08-2.22,2.14-.76,2.8,2.3,1.03,4.74,2.16,6.44,4.08,1.87,2.11,1.73,4.88.12,7.12-1.82,2.52-4.9,3.63-7.78,4.4-1.3.35-2.7.82-4.05.85-.27,0-.55.02-.81-.06-.28-.09-.36-.26-.38-.23,0,0,0,0,0,0,.63.2,1.41-.17,1.73-.7.46-.77.1-1.56-.54-2.05-2.47-1.9-5.12,2-3.86,4.22,1.77,3.13,6.49,1.48,9.12.75,3.49-.97,6.86-2.51,9.05-5.51,1.98-2.72,2.45-6.3.74-9.27-1.12-1.94-2.89-3.34-4.82-4.46Z"/>
    <path class="cls-1" d="M568.46,302.73h-13.41c-1.93,0-1.93,3,0,3h13.41c1.93,0,1.93-3,0-3Z"/>
    <path class="cls-1" d="M564.8,314.94c-6.26-.41-12.54.05-18.67,1.33-1.89.39-1.09,3.29.8,2.89,5.88-1.22,11.88-1.62,17.88-1.22,1.93.13,1.92-2.87,0-3Z"/>
    <path class="cls-1" d="M615.74,330.05c-4.74,1.12-9.68,1-14.37-.3-2.31-.64-4.53-1.56-6.6-2.76-1.89-1.09-4.17-2.44-5.19-4.46-1.2-2.37.1-5.25,1-7.49.96-2.38,2.1-4.68,3.38-6.9,2.48-4.31,5.5-8.31,9.02-11.83,1.67-1.67,4.2-4.05,6.82-3.5,1.32.28,3.29,2.35,2.1,3.69-1.28,1.44.83,3.57,2.12,2.12,1.61-1.8,1.5-4.25.14-6.17-1.52-2.15-3.96-3.04-6.53-2.53-2.96.59-5.34,2.78-7.36,4.87-2.15,2.23-4.13,4.64-5.92,7.17-1.8,2.55-3.4,5.23-4.77,8.03-1.37,2.78-2.87,5.84-3.33,8.93-.97,6.47,5.33,10.19,10.48,12.36,6.25,2.63,13.22,3.21,19.82,1.65,1.88-.44,1.08-3.34-.8-2.89Z"/>
  </g>
</svg>